<?xml version="1.0" encoding="UTF-8"?>
<svg id="Layer_2" data-name="Layer 2" xmlns="http://www.w3.org/2000/svg" xmlns:xlink="http://www.w3.org/1999/xlink" viewBox="0 0 281.65 89.22">
  <defs>
    <style>
      .cls-1 {
        fill: url(#linear-gradient);
      }

      .cls-2 {
        fill: #fff;
      }

      .cls-3 {
        fill: url(#linear-gradient-3);
      }

      .cls-4 {
        fill: url(#linear-gradient-2);
      }
    </style>
    <linearGradient id="linear-gradient" x1="209.22" y1="987.85" x2="268.31" y2="1076.22" gradientTransform="translate(0 1070.54) scale(1 -1)" gradientUnits="userSpaceOnUse">
      <stop offset="0" stop-color="#234b99"/>
      <stop offset="1" stop-color="#408bbd"/>
    </linearGradient>
    <linearGradient id="linear-gradient-2" x1="234.45" y1="971.43" x2="293.33" y2="1059.5" xlink:href="#linear-gradient"/>
    <linearGradient id="linear-gradient-3" x1="216.36" y1="983.66" x2="275.05" y2="1071.45" xlink:href="#linear-gradient"/>
  </defs>
  <g id="Layer_1-2" data-name="Layer 1">
    <g>
      <g>
        <path class="cls-2" d="m12.24,17.69c.79,0,1.46-.28,2.03-.85s.85-1.25.85-2.03-.28-1.46-.85-2.03-1.25-.85-2.03-.85-1.46.28-2.03.85-.85,1.25-.85,2.03.28,1.46.85,2.03,1.25.85,2.03.85Z"/>
        <path class="cls-2" d="m5.61,17.69c.79,0,1.46-.28,2.03-.85s.85-1.25.85-2.03-.28-1.46-.85-2.03-1.25-.85-2.03-.85-1.46.28-2.03.85c-.57.57-.85,1.25-.85,2.03s.28,1.46.85,2.03c.57.57,1.25.85,2.03.85Z"/>
        <path class="cls-2" d="m21.79,44c-.79,0-1.46.28-2.03.85-.57.57-.85,1.25-.85,2.03s.28,1.46.85,2.03c.57.57,1.25.85,2.03.85s1.46-.28,2.03-.85c.57-.57.85-1.25.85-2.03s-.28-1.46-.85-2.03c-.57-.57-1.25-.85-2.03-.85Z"/>
        <path class="cls-2" d="m28.42,44c-.79,0-1.46.28-2.03.85-.57.57-.85,1.25-.85,2.03s.28,1.46.85,2.03c.57.57,1.25.85,2.03.85s1.46-.28,2.03-.85c.57-.57.85-1.25.85-2.03s-.28-1.46-.85-2.03c-.57-.57-1.25-.85-2.03-.85Z"/>
        <path class="cls-2" d="m37.08,35.38h-4.68c-1.3,0-2.22-.22-2.74-.65s-.79-1.15-.79-2.16v-8.7h-5.29v9.15c0,1-.18,1.65-.55,1.93-.37.28-1.01.43-1.93.43h-4.23c-.6,0-.98-.11-1.14-.35-.16-.23-.24-.66-.24-1.28v-12.16h-6.91c-.98,0-1.97.14-2.99.43-1.02.28-1.94.75-2.77,1.4-.83.65-1.5,1.49-2.03,2.52-.53,1.03-.79,2.29-.79,3.78s.28,2.76.83,3.72c.56.96,1.23,1.72,2.03,2.26.8.54,1.65.92,2.54,1.12.89.2,1.68.3,2.36.3.49,0,.98-.03,1.46-.1.49-.07.96-.16,1.42-.26.22.68.52,1.23.92,1.65.39.42.85.75,1.36,1,.51.24,1.08.41,1.69.51s1.24.14,1.89.14h5.45c.54,0,1.09-.02,1.65-.06.56-.04,1.09-.13,1.61-.26.51-.14,1-.35,1.46-.63.46-.28.85-.66,1.18-1.12.24.43.55.79.91,1.06.37.27.75.48,1.16.63.41.15.83.25,1.26.3.43.06.84.08,1.22.08h9.96V11.02h-5.29v24.36Zm-26.88-3.21c-.38.13-.75.22-1.12.24s-.73.04-1.08.04c-.57,0-1.04-.09-1.4-.28-.37-.19-.66-.42-.87-.71-.22-.28-.37-.61-.45-.97s-.12-.71-.12-1.03c0-.86.25-1.55.75-2.08.5-.52,1.25-.79,2.26-.79h2.03v5.57Z"/>
        <path class="cls-2" d="m90.31,35.38h-4.68c-.65,0-1.34-.13-2.07-.39-.73-.26-1.27-.71-1.63-1.36,0-.16,0-.33.02-.49.01-.16.02-.34.02-.53,0-1.22-.19-2.34-.57-3.37-.38-1.03-.9-1.91-1.57-2.64s-1.46-1.3-2.38-1.71c-.92-.41-1.91-.61-2.97-.61-.73,0-1.48.12-2.24.37-.76.24-1.52.67-2.28,1.28-.76.61-1.48,1.42-2.18,2.44-.69,1.02-1.34,2.3-1.93,3.84-.38,1.03-.81,1.82-1.28,2.36-.47.54-.87.81-1.2.81h-8.86c-.62,0-1.1-.13-1.44-.39-.34-.26-.51-.86-.51-1.81V11.02h-5.29v22.89c0,1.17.16,2.14.47,2.93.31.79.75,1.42,1.3,1.89.56.47,1.22.81,1.99,1.02s1.62.3,2.54.3h9.84c.87,0,1.67-.08,2.4-.24.73-.16,1.45-.64,2.16-1.42,1.19.79,2.34,1.34,3.46,1.67,1.11.32,2.21.49,3.29.49,1.44,0,2.66-.26,3.66-.77,1-.51,1.79-1.25,2.36-2.2.6.87,1.3,1.5,2.11,1.89.64.31,1.37.46,2.15.53,0,0,0,0,0,0,.19.04.39.06.61.06h9.96V11.02h-5.29v24.36Zm-14.21-.59c-.47.58-1.15.87-2.01.87-.71,0-1.36-.13-1.97-.39s-1.25-.59-1.93-1c.43-1.92,1.03-3.27,1.79-4.03.76-.76,1.49-1.14,2.2-1.14.49,0,.9.1,1.24.3.34.2.61.46.81.77s.35.67.45,1.08c.09.41.14.81.14,1.22,0,.95-.24,1.72-.71,2.3Z"/>
        <rect class="cls-2" x="100.52" y="11.02" width="5.29" height="29.03"/>
        <path class="cls-2" d="m136.58,35.3c0,2.01-.48,3.44-1.44,4.29-.96.85-2.42,1.28-4.4,1.28-2.11,0-3.63-.5-4.56-1.5s-1.4-2.45-1.4-4.35v-6.18h-5.29v6.38c0,3.47.93,6.09,2.79,7.87,1.86,1.78,4.62,2.66,8.28,2.66,1.73,0,3.3-.18,4.7-.55,1.4-.37,2.58-.98,3.54-1.85.96-.87,1.7-2.01,2.22-3.44.51-1.42.77-3.21.77-5.35l.04-10.21h-5.25v10.94Z"/>
        <path class="cls-2" d="m130.81,25.01c.79,0,1.46-.28,2.03-.85s.85-1.25.85-2.03-.28-1.46-.85-2.03-1.25-.85-2.03-.85-1.46.28-2.03.85-.85,1.25-.85,2.03.28,1.46.85,2.03,1.25.85,2.03.85Z"/>
        <path class="cls-2" d="m164.64,44c-.79,0-1.46.28-2.03.85-.57.57-.85,1.25-.85,2.03s.28,1.46.85,2.03c.57.57,1.25.85,2.03.85s1.46-.28,2.03-.85c.57-.57.85-1.25.85-2.03s-.28-1.46-.85-2.03c-.57-.57-1.25-.85-2.03-.85Z"/>
        <path class="cls-2" d="m171.27,44c-.79,0-1.46.28-2.03.85-.57.57-.85,1.25-.85,2.03s.28,1.46.85,2.03c.57.57,1.25.85,2.03.85s1.46-.28,2.03-.85c.57-.57.85-1.25.85-2.03s-.28-1.46-.85-2.03c-.57-.57-1.25-.85-2.03-.85Z"/>
        <path class="cls-2" d="m182.17,43.88c-.79,0-1.46.28-2.03.85s-.85,1.25-.85,2.03.28,1.46.85,2.03,1.25.85,2.03.85,1.46-.28,2.03-.85.85-1.25.85-2.03-.28-1.46-.85-2.03-1.25-.85-2.03-.85Z"/>
        <path class="cls-2" d="m179.93,35.38h-4.68c-1.3,0-2.22-.22-2.74-.65-.53-.43-.79-1.15-.79-2.16v-8.7h-5.29v9.15c0,1-.18,1.65-.55,1.93-.37.28-1.01.43-1.93.43h-10c-.62,0-1.1-.13-1.44-.39-.34-.26-.51-.86-.51-1.81V11.02h-5.29v22.89c0,1.17.16,2.14.47,2.93.31.79.75,1.42,1.3,1.89.56.47,1.22.81,1.99,1.02.77.2,1.62.3,2.54.3h11.79c.54,0,1.09-.02,1.65-.06.56-.04,1.09-.13,1.61-.26.51-.14,1-.35,1.46-.63.46-.28.85-.66,1.18-1.12.24.43.55.79.92,1.06.37.27.75.48,1.16.63.41.15.83.25,1.26.3.43.05.84.08,1.22.08,0,0,0,0,0,0h9.96v-16.18h-5.29v11.51Z"/>
        <rect class="cls-2" x="190.14" y="11.02" width="5.29" height="29.03"/>
        <path class="cls-2" d="m194.47,5.74c-.64,0-1.08-.13-1.31-.39-.23-.26-.34-.58-.34-.96,0-.35.11-.65.35-.89.23-.24.6-.37,1.12-.37.3,0,.8.08,1.5.24V.7c-.27-.11-.58-.2-.94-.28-.35-.08-.75-.12-1.18-.12-.46,0-.92.08-1.36.24-.45.16-.85.4-1.2.71s-.63.7-.83,1.18c-.2.47-.3,1.02-.3,1.65,0,.22.03.5.08.85.05.35.15.62.28.81h-1.67v2.85h7.93v-2.85h-2.13Z"/>
      </g>
      <g>
        <path class="cls-2" d="m5.51,60.17L.01,74.23h1.93l1.58-4.24h5.95l1.54,4.24h2.07l-5.49-14.06h-2.07Zm-1.4,8.25l2.38-6.56h.04l2.34,6.56h-4.77Z"/>
        <path class="cls-2" d="m26.78,66.81v-.04c.66-.26,1.17-.67,1.54-1.21.37-.54.55-1.19.55-1.94,0-.7-.16-1.29-.48-1.78-.32-.49-.71-.88-1.17-1.15-.21-.13-.46-.23-.77-.29s-.62-.11-.95-.15c-.33-.03-.67-.05-1.01-.06-.34,0-.67-.01-.99-.01h-5.1v14.06h6.8c.7,0,1.31-.11,1.84-.34.53-.23.98-.53,1.34-.91.36-.37.63-.81.82-1.29.18-.49.27-.99.27-1.5,0-.87-.23-1.6-.69-2.21-.46-.6-1.12-1-1.99-1.18Zm-6.52-5.06h3.74c.41,0,.79.02,1.15.07.36.05.68.15.95.31s.49.39.65.68.24.69.24,1.17c0,.75-.23,1.31-.7,1.68-.47.37-1.23.56-2.3.56h-3.74v-4.47Zm6.62,10.23c-.47.45-1.12.68-1.93.68h-4.69v-4.86h4.27c.39,0,.78.04,1.14.11s.69.2.98.37c.28.18.51.42.68.72.17.3.26.68.26,1.14,0,.78-.24,1.39-.71,1.84Z"/>
        <polygon class="cls-2" points="40.76 66.87 36.55 60.17 34.32 60.17 39.76 68.48 39.76 74.23 41.63 74.23 41.63 68.48 47.01 60.17 44.88 60.17 40.76 66.87"/>
        <path class="cls-2" d="m54.88,60.17l-5.49,14.06h1.93l1.58-4.24h5.95l1.54,4.24h2.07l-5.49-14.06h-2.07Zm-1.4,8.25l2.38-6.56h.04l2.34,6.56h-4.77Z"/>
        <polygon class="cls-2" points="77.18 71.57 77.14 71.57 69.74 60.17 67.75 60.17 67.75 74.23 69.52 74.23 69.52 62.95 69.56 62.95 76.91 74.23 78.96 74.23 78.96 60.17 77.18 60.17 77.18 71.57"/>
        <path class="cls-2" d="m105.01,70.55c-.2.5-.47.93-.82,1.29s-.76.64-1.24.84c-.48.2-1.03.31-1.64.31-.84,0-1.56-.16-2.17-.47-.6-.31-1.1-.74-1.49-1.27s-.67-1.16-.86-1.87-.28-1.47-.28-2.27c0-.74.09-1.45.28-2.13s.47-1.29.86-1.82.88-.95,1.48-1.27c.6-.31,1.32-.47,2.16-.47.49,0,.95.06,1.38.19s.82.31,1.17.56.64.56.88.94.41.81.51,1.31h1.87c-.11-.75-.33-1.41-.67-1.98-.34-.57-.77-1.05-1.28-1.43-.51-.38-1.1-.67-1.75-.87-.66-.2-1.35-.29-2.09-.29-1.09,0-2.05.19-2.87.58s-1.52.92-2.08,1.59-.98,1.45-1.27,2.35c-.29.9-.43,1.86-.43,2.89s.13,1.98.4,2.87c.27.89.67,1.67,1.21,2.32.54.66,1.21,1.17,2.03,1.55.82.38,1.77.57,2.86.57,1.79,0,3.2-.5,4.25-1.5s1.66-2.38,1.84-4.14h-1.87c-.04.58-.16,1.12-.36,1.62Z"/>
        <path class="cls-2" d="m117.32,60.17l-5.49,14.06h1.93l1.58-4.24h5.95l1.54,4.24h2.07l-5.49-14.06h-2.07Zm-1.4,8.25l2.38-6.56h.04l2.34,6.56h-4.77Z"/>
        <path class="cls-2" d="m136.37,60.17h-6.17v14.06h1.87v-5.75h4.3c1.4.01,2.47-.35,3.21-1.08s1.1-1.76,1.1-3.07-.37-2.33-1.1-3.06c-.74-.73-1.81-1.09-3.21-1.09Zm1.7,6.09c-.49.45-1.27.66-2.34.65h-3.66v-5.16h3.66c1.07,0,1.84.22,2.34.66.49.44.74,1.08.74,1.92s-.25,1.49-.74,1.93Z"/>
        <rect class="cls-2" x="146.98" y="60.17" width="1.87" height="14.06"/>
        <polygon class="cls-2" points="154.45 61.75 159.14 61.75 159.14 74.23 161.01 74.23 161.01 61.75 165.7 61.75 165.7 60.17 154.45 60.17 154.45 61.75"/>
        <path class="cls-2" d="m173.2,60.17l-5.49,14.06h1.93l1.58-4.24h5.95l1.54,4.24h2.07l-5.49-14.06h-2.07Zm-1.4,8.25l2.38-6.56h.04l2.34,6.56h-4.77Z"/>
        <polygon class="cls-2" points="187.95 72.66 187.95 60.17 186.08 60.17 186.08 74.23 195.4 74.23 195.4 72.66 187.95 72.66"/>
      </g>
    </g>
    <g>
      <path class="cls-1" d="m225.77,10.63C236.18,1.25,261.32,0,274.49,0c3.17,0,5.7,0,7.09.14v22.66c-2.62-.16-8.49-.44-15.57-.21-12.7.4-23.01,2.14-30.85,5.17-9.22-2.33-13.62-4.76-13.97-7.28s.24-5.92,4.57-9.86Z"/>
      <path class="cls-4" d="m281.57,71.62s0,.76-3.17,1.48c-2.59.56-6.35.95-10.7,1.4-13.73,1.4-34.03,3.48-46.56,14.73.67-16.22,6.35-26.84,17.46-32.39.12-.08.26-.14.4-.19,8.08-3.92,17.46-4.76,25.85-5.38,6.95-.57,13.16-1.08,16.6-3.6l.13,23.96Z"/>
      <path class="cls-3" d="m264.83,48.61c-7.94.65-17.93,1.46-26.39,5.41h0c-4.48-1.1-15.62-3.89-17.16-6.52v-22.47c2.59,1.98,7.14,3.71,13.81,5.36l.35.08c5.52,1.36,11.92,2.54,18.12,3.68,7.59,1.41,14.68,3.06,20.16,4.3,6.63,1.59,7.94,3.54,7.94,4.43-.08,3.82-6.82,4.92-16.82,5.73Z"/>
    </g>
  </g>
</svg>