<?xml version="1.0" encoding="UTF-8"?>
<svg id="Layer_2" data-name="Layer 2" xmlns="http://www.w3.org/2000/svg" xmlns:xlink="http://www.w3.org/1999/xlink" viewBox="0 0 785 250.9">
  <defs>
    <style>
      .cls-1, .cls-2, .cls-3, .cls-4, .cls-5, .cls-6, .cls-7, .cls-8, .cls-9 {
        fill: none;
      }

      .cls-10 {
        fill: url(#linear-gradient);
      }

      .cls-2 {
        clip-path: url(#clippath-7);
      }

      .cls-3 {
        clip-path: url(#clippath-6);
      }

      .cls-4 {
        clip-path: url(#clippath-5);
      }

      .cls-5 {
        clip-path: url(#clippath-3);
      }

      .cls-6 {
        clip-path: url(#clippath-4);
      }

      .cls-7 {
        clip-path: url(#clippath-2);
      }

      .cls-8 {
        clip-path: url(#clippath-1);
      }

      .cls-11 {
        fill: url(#linear-gradient-8);
      }

      .cls-12 {
        fill: url(#linear-gradient-3);
      }

      .cls-13 {
        fill: url(#linear-gradient-4);
      }

      .cls-14 {
        fill: url(#linear-gradient-2);
      }

      .cls-15 {
        fill: url(#linear-gradient-6);
      }

      .cls-16 {
        fill: url(#linear-gradient-7);
      }

      .cls-17 {
        fill: url(#linear-gradient-5);
      }

      .cls-9 {
        clip-path: url(#clippath);
      }
    </style>
    <clipPath id="clippath">
      <path class="cls-1" d="m634.3,0c-45.6,7.4-63.5,37.9-66,74.8,1.4,38.9,22.4,70.5,67.2,74.8h149.1v-35.1h-138c-23.1-3.8-37.2-15.4-36.8-39.7.7-19,10.4-33.6,29.8-38h114.5L784.9,0h-150.6Z"/>
    </clipPath>
    <linearGradient id="linear-gradient" x1="-1224.88" y1="143.92" x2="-1217.4" y2="143.92" gradientTransform="translate(-271848.92 63801.63) rotate(160.13) scale(227.02 -227.02)" gradientUnits="userSpaceOnUse">
      <stop offset="0" stop-color="#e0b16a"/>
      <stop offset=".11" stop-color="#d5a764"/>
      <stop offset=".6" stop-color="#b08851"/>
      <stop offset=".7" stop-color="#a8824c"/>
      <stop offset="1" stop-color="#906f40"/>
    </linearGradient>
    <clipPath id="clippath-1">
      <path class="cls-1" d="m476.2,140v21.9c2.9,18.3,15.9,30.4,40,35.6h268.8v-35.6h-256.8c-5.9-1-10.4-3.7-12-10.8v-61.4l-40,50.3Z"/>
    </clipPath>
    <linearGradient id="linear-gradient-2" x1="-1224.88" y1="144.11" x2="-1217.4" y2="144.11" gradientTransform="translate(-271846.84 63807.36) rotate(160.13) scale(227.02 -227.02)" xlink:href="#linear-gradient"/>
    <clipPath id="clippath-2">
      <rect class="cls-1" x="476.2" width="40" height="69.7"/>
    </clipPath>
    <linearGradient id="linear-gradient-3" x1="-1224.88" y1="143.55" x2="-1217.4" y2="143.55" gradientTransform="translate(-271853.86 63787.94) rotate(160.13) scale(227.02 -227.02)" xlink:href="#linear-gradient"/>
    <clipPath id="clippath-3">
      <polygon class="cls-1" points="470.6 77.6 328.4 250.9 379.1 250.9 516.3 77.6 470.6 77.6"/>
    </clipPath>
    <linearGradient id="linear-gradient-4" x1="-1224.88" y1="143.92" x2="-1217.4" y2="143.92" gradientTransform="translate(-271849.45 63800.16) rotate(160.13) scale(227.02 -227.02)" xlink:href="#linear-gradient"/>
    <clipPath id="clippath-4">
      <path class="cls-1" d="m310.1,45.5v36c85.2-10.1,86.2,78.2-.4,78.7l-26.4-.1-33.1,37.4h98.8c4.9-.2,8.9-1.5,11.4-4.3l51.4-63.9c4-47.2-16.6-82.6-67.5-83.7l-34.2-.1h0Z"/>
    </clipPath>
    <linearGradient id="linear-gradient-5" y1="143.65" x2="-1217.4" y2="143.65" gradientTransform="translate(-271852.71 63791.11) rotate(160.13) scale(227.02 -227.02)" xlink:href="#linear-gradient"/>
    <clipPath id="clippath-5">
      <path class="cls-1" d="m124.5,0v153.7c-.3,24.1,8.7,40.1,39.1,43.8h76.8v-36.8h-65.2c-8.1-.2-10.9-2.4-11.7-7V0h-39Z"/>
    </clipPath>
    <linearGradient id="linear-gradient-6" x1="-1224.88" y1="143.37" x2="-1217.4" y2="143.37" gradientTransform="translate(-271855.97 63782.08) rotate(160.13) scale(227.02 -227.02)" xlink:href="#linear-gradient"/>
    <clipPath id="clippath-6">
      <path class="cls-1" d="m76.9,0v153.7c-.7,4.7-3.6,6.9-11.7,7H0v36.8h76.8c30.4-3.8,39.1-19.4,39.1-43.8V0h-39Z"/>
    </clipPath>
    <linearGradient id="linear-gradient-7" y1="143.21" x2="-1217.4" y2="143.21" gradientTransform="translate(-271857.56 63777.71) rotate(160.13) scale(227.02 -227.02)" xlink:href="#linear-gradient"/>
    <clipPath id="clippath-7">
      <rect class="cls-1" x="173.6" y="214.1" width="66.9" height="36.8"/>
    </clipPath>
    <linearGradient id="linear-gradient-8" x1="-1224.88" y1="143.88" x2="-1217.4" y2="143.88" gradientTransform="translate(-271849.89 63798.94) rotate(160.13) scale(227.02 -227.02)" xlink:href="#linear-gradient"/>
  </defs>
  <g id="Layer_17" data-name="Layer 17">
    <g class="cls-9">
      <polygon class="cls-10" points="832.6 132.3 593.3 218.8 520.5 17.3 759.8 -69.2 832.6 132.3"/>
    </g>
  </g>
  <g id="Layer_16" data-name="Layer 16">
    <g class="cls-8">
      <polygon class="cls-14" points="819.5 185 511.9 296.2 441.8 102.1 749.4 -9 819.5 185"/>
    </g>
  </g>
  <g id="Layer_15" data-name="Layer 15">
    <g class="cls-7">
      <polygon class="cls-12" points="538.5 61.7 480.9 82.6 454 8.1 511.6 -12.8 538.5 61.7"/>
    </g>
  </g>
  <g id="Layer_14" data-name="Layer 14">
    <g class="cls-5">
      <polygon class="cls-13" points="571.7 230.9 350.1 310.9 273 97.6 494.6 17.5 571.7 230.9"/>
    </g>
  </g>
  <g id="Layer_13" data-name="Layer 13">
    <g class="cls-6">
      <polygon class="cls-17" points="464.3 179.9 269.3 250.4 201.6 63.1 396.6 -7.4 464.3 179.9"/>
    </g>
  </g>
  <g id="Layer_12" data-name="Layer 12">
    <g class="cls-4">
      <polygon class="cls-15" points="303.6 174.7 137.7 234.6 61.1 22.8 227.1 -37.1 303.6 174.7"/>
    </g>
  </g>
  <g id="Layer_11" data-name="Layer 11">
    <g class="cls-3">
      <polygon class="cls-16" points="179.2 174.7 13.5 234.5 -63 22.8 102.7 -37 179.2 174.7"/>
    </g>
  </g>
  <g id="Layer_10" data-name="Layer 10">
    <g class="cls-2">
      <polygon class="cls-11" points="252.2 246.7 181.4 272.3 161.9 218.4 232.8 192.8 252.2 246.7"/>
    </g>
  </g>
</svg>