<?xml version="1.0" encoding="UTF-8"?><svg id="Layer_2" xmlns="http://www.w3.org/2000/svg" xmlns:xlink="http://www.w3.org/1999/xlink" viewBox="0 0 644.2 218.75"><defs><style>.cls-1{fill:url(#linear-gradient);}.cls-2{fill:#fff;}.cls-3{fill:url(#linear-gradient-3);}.cls-3,.cls-4,.cls-5,.cls-6{opacity:.19;}.cls-4{fill:url(#linear-gradient-4);}.cls-5{fill:url(#linear-gradient-2);}.cls-6{fill:url(#linear-gradient-5);}</style><linearGradient id="linear-gradient" x1="526.56" y1="218.75" x2="526.56" y2="0" gradientUnits="userSpaceOnUse"><stop offset="0" stop-color="#00ad81"/><stop offset="1" stop-color="#0080a9"/></linearGradient><linearGradient id="linear-gradient-2" x1="568.53" y1="116.93" x2="602.17" y2="135.15" gradientUnits="userSpaceOnUse"><stop offset="0" stop-color="#241f1f"/><stop offset="1" stop-color="#241f1f" stop-opacity="0"/></linearGradient><linearGradient id="linear-gradient-3" x1="-2645.35" y1="116.93" x2="-2611.71" y2="135.15" gradientTransform="translate(-2160.76) rotate(-180) scale(1 -1)" xlink:href="#linear-gradient-2"/><linearGradient id="linear-gradient-4" x1="530.49" y1="176.3" x2="545.55" y2="153.18" xlink:href="#linear-gradient-2"/><linearGradient id="linear-gradient-5" x1="521.9" y1="184.56" x2="503.43" y2="200.9" xlink:href="#linear-gradient-2"/></defs><g id="Layer_1-2"><g><g><path class="cls-2" d="M231.41,76.02c0,9.34-6.16,13.66-12.03,13.66-6.44,0-11.54-5.31-12.88-15.92-1.77,2.55-1.91,5.52-1.7,7.15l4.32,32.77c-3.33-.99-5.94-1.7-9.06-2.12,.07-5.1-.35-22.79-.35-25.69,0-12.46,7.57-25.12,18.61-25.12,8,0,13.09,6.79,13.09,15.29Zm-2.33,.28c0-3.47-4.6-6.94-12.1-6.94-4.6,0-7.57,1.34-9.41,3.11,2.26,5.8,7.43,7.86,13.59,7.86,3.26,0,7.93-.57,7.93-4.03Z"/><path class="cls-2" d="M264.17,79.49c0,12.88-7.57,22.36-22.15,26.82-2.12-3.54-3.75-5.24-6.02-7.43v-1.06c11.04-.14,25.41-7.15,25.83-16.99-2.05,4.39-5.87,8.14-11.25,8.14s-11.39-3.61-11.39-13.23c0-8.14,4.46-14.3,11.96-14.3,8.63,0,13.02,8.21,13.02,18.05Zm-2.83-1.98c-1.56-4.67-7.01-6.72-11.82-6.72-3.89,0-8,1.34-8,4.6,0,4.17,6.16,4.95,9.7,4.95,3.96,0,7.36-.99,10.12-2.83Z"/><path class="cls-2" d="M272.31,74.96h2.34c-.21,.71-.28,1.42-.28,1.84,0,3.75,5.02,4.25,10.97,4.25,7.15,0,10.12-.71,10.12-3.11,0-2.76-4.11-8.49-13.23-16.28,2.34-2.55,4.1-4.67,5.38-7.36,1.7,2.26,4.46,4.53,6.79,5.87v.85c-.71,.71-.85,1.13-.85,1.77,0,.49,.07,.71,.99,2.48,2.55,4.81,3.61,7.01,3.61,11.32,0,9.84-5.87,13.8-13.16,13.8-8,0-13.02-4.81-13.02-12.31,0-1.27,.14-2.12,.35-3.11Z"/><path class="cls-2" d="M31,170.87c0,8.07-4.74,13.16-11.04,13.16s-13.09-5.66-14.93-15.99c-1.42,2.26-2.19,4.67-2.05,6.79,.35,5.24,.78,13.73,1.91,33.19-1.63-.57-2.97-.85-4.53-1.06-.07-6.37-.35-22.79-.35-25.9,0-16.91,8.21-25.97,17.55-25.97,8.42,0,13.45,7.43,13.45,15.78Zm-1.56,.57c0-5.88-4.6-11.25-11.25-11.25-5.09,0-9.62,3.04-12.46,6.86,3.4,8,8.56,11.89,15.14,11.89,5.45,0,8.56-2.62,8.56-7.5Z"/><path class="cls-2" d="M63.62,173.91c0,14.51-9.98,22.72-22.86,26.75-1.7-1.91-2.83-2.76-4.6-4.03v-.35c12.67-2.69,23.92-8.99,25.69-18.4-2.69,4.11-7.29,6.16-11.32,6.16-5.8,0-11.54-4.67-11.54-13.73,0-7.93,4.32-14.51,11.61-14.51,8.42,0,13.02,8.78,13.02,18.12Zm-1.56,1.2c-.07-5.66-3.89-14.22-12.46-14.22-5.31,0-9.06,3.26-9.06,8.99,0,6.94,5.38,9.06,10.83,9.06,3.47,0,7.43-.92,10.69-3.82Z"/><path class="cls-2" d="M107.85,178.94v5.1c-6.51,0-9.27-3.54-10.9-7.5-1.42,4.95-6.23,8.21-12.81,8.21-7.64,0-12.17-4.46-12.17-11.54,0-.85,.07-2.05,.28-3.19h1.56c-.21,.92-.28,1.77-.28,2.55,0,5.17,3.04,7.08,11.04,7.08,9.27,0,11.32-2.62,11.32-6.44-6.16-22.29-.35-1.2-6.51-23.43,1.49-.28,2.97-.64,4.46-1.13l4.6,23.43c1.13,5.45,3.54,6.86,9.41,6.86Z"/><path class="cls-2" d="M107.85,184.03c-.64,0-1.7-.5-1.7-2.55s1.06-2.55,1.7-2.55c8.63,0,11.82-1.91,11.82-4.67,0-1.27-.71-7.22-2.33-19.39,1.2-.28,2.48-.78,3.68-1.34,.57,1.7,2.05,4.81,3.11,6.51v.35c-1.56,.42-2.26,.99-2.26,2.55,0,1.13,.35,2.9,.35,5.66,0,9.98-4.6,15.43-14.37,15.43Zm4.53-36.23l-3.96-4.03,3.96-4.1,4.03,4.1-4.03,4.03Zm8.71,0l-3.96-4.03,3.96-4.1,4.03,4.1-4.03,4.03Z"/><path class="cls-2" d="M181.59,178.94v5.1c-5.1,0-9.06-3.33-10.97-9.84-2.05,4.95-7.29,6.16-10.9,6.16-5.8,0-12.1-3.18-12.1-11.96s6.37-12.95,17.41-14.79c-.5-1.56-.92-3.33-1.49-5.24,1.49-.28,2.97-.64,4.46-1.13,3.96,20.67,4.39,22.65,4.88,24.91,1.27,5.73,4.95,6.79,8.71,6.79Zm-11.25-5.8c-.64-2.48-1.2-4.81-4.03-15-8.85,1.49-17.13,3.89-17.13,10.19,0,4.95,5.17,6.94,11.25,6.94,3.54,0,6.79-.64,9.91-2.12Zm-11.11-35.53l-4.03,4.03-3.96-4.03,3.96-4.11,4.03,4.11Zm8.7,0l-4.03,4.03-3.96-4.03,3.96-4.11,4.03,4.11Z"/><path class="cls-2" d="M209.19,161.67c0,14.01-7.08,22.36-20.45,22.36h-7.15c-.64,0-1.7-.5-1.7-2.55s1.06-2.55,1.7-2.55h7.79c11.96,0,17.76-5.73,18.26-15.14-2.55,4.32-6.72,6.44-10.62,6.44-5.66,0-12.1-4.81-12.1-13.8,0-7.71,4.67-14.44,11.68-14.44,7.57,0,12.6,7.86,12.6,19.67Zm-1.56-.35c-.5-10.26-7.08-14.22-12.39-14.22-4.88,0-8.78,3.61-8.78,9.06,0,6.79,6.09,8.99,11.39,8.99,3.61,0,6.65-.92,9.77-3.82Zm-12.24-29.02l-4.03,4.03-3.96-4.03,3.96-4.1,4.03,4.1Zm8.71,0l-4.03,4.03-3.96-4.03,3.96-4.1,4.03,4.1Z"/><path class="cls-2" d="M230.84,184.03c-8.07,0-12.24-4.32-12.74-13.73l-1.98-38.85c1.56-.28,2.9-.71,4.46-1.34l.28,40.91c.07,6.09,3.96,7.93,9.98,7.93v5.1Z"/><path class="cls-2" d="M282.36,178.94v5.1c-9.41,0-12.46-2.48-13.16-6.51-5.24,4.53-13.3,6.51-20.52,6.51h-9.91c-.35,2.48-.57,4.67-.64,7.08-1.2-.57-2.41-.99-3.61-1.34,.42-1.77,.92-3.61,1.49-5.73h-5.17c-.64,0-1.7-.5-1.7-2.55s1.06-2.55,1.7-2.55h6.51c.78-2.33,1.63-4.67,2.62-6.93l-.42-40.55c1.2-.28,2.48-.78,3.68-1.34,.57,1.7,2.05,4.81,3.11,6.51v.35c-2.05,.57-2.19,1.27-2.19,3.82,0,5.03-.5,16.99-1.84,26.19,4.39-8.42,10.26-14.79,18.83-14.79s13.45,6.58,13.45,13.8c0,4.17-1.49,7.5-3.96,10.19,.5,2.26,3.47,2.76,11.75,2.76Zm-34.96,0c14.37,0,25.62-4.25,25.62-12.46,0-4.6-3.54-9.2-11.11-9.2-8.78,0-18.61,6.44-22.22,21.66h7.71Z"/><path class="cls-2" d="M296.09,169.38c.07,6.16-1.63,14.65-13.73,14.65-.64,0-1.7-.5-1.7-2.55s1.06-2.55,1.7-2.55c11.54,0,11.39-2.48,10.9-12.1l-1.84-35.39c.85-.21,2.12-.71,3.33-1.34,.57,1.7,2.05,4.81,3.11,6.51v.35c-2.19,.49-2.19,1.49-2.19,3.82l.42,28.59Z"/></g><path class="cls-2" d="M353.51,195.71c-.55,0-1-.45-1-1V52.15c0-.55,.45-1,1-1s1,.45,1,1V194.71c0,.55-.45,1-1,1Z"/><g><path class="cls-1" d="M526.54,172.73v.05s.02,0,.02-.02c-.02,0-.02-.02-.02-.03Zm107.31-33.5c-5.29-5.69-11.91-10.24-19.35-13.86-13.12-6.4-28.82-9.94-44.45-11.89,6.97-19.73,10.97-39.5,11.48-56.53C582.84,25.93,557.55-.06,526.57,0h-.02c-30.98-.06-56.26,25.93-54.95,56.94,.51,17.03,4.5,36.8,11.48,56.53-15.63,1.95-31.33,5.49-44.45,11.89-7.44,3.62-14.06,8.17-19.35,13.86-7.32,7.94-11.08,18.85-10.24,29.6,.23,4.33,1.02,8.66,2.32,12.78,7.34,23.87,30.91,39.43,55.66,36.85,22.48-1.99,42.63-14.2,59.54-31.82h.02c16.9,17.61,37.05,29.83,59.54,31.82,24.75,2.58,48.32-12.98,55.66-36.85,1.3-4.13,2.09-8.45,2.32-12.78,.84-10.75-2.92-21.67-10.24-29.6Zm-114.22,41.83c-12.24,13.38-28.01,24.43-46.15,27.45-5.76,.92-11.75,1.22-17.51,.24-18.16-2.97-32.7-18.62-33.95-37.01-1.28-14.41,5.87-23.52,18.45-29.91,1.4-.71,2.83-1.36,4.28-1.97,0,0,.02,0,.03-.02,4.98-2.09,10.22-3.64,15.49-4.89,9.72-2.24,19.62-3.61,29.59-4.42,3.72,8.37,7.96,16.59,12.7,24.44,5.38,8.95,11.39,17.41,17.97,25.07-.29,.34-.6,.69-.91,1.02Zm6.94-8.29h-.02l.02-.02s-.02-.02-.02-.03c-5.69-7.32-10.8-15.26-15.31-23.63-3.36-6.23-6.39-12.7-9.06-19.33-2.32-5.75-4.38-11.62-6.16-17.56-5.32-17.74-8.18-36.06-8.3-53.58,.02-1.39,.03-3.64,.19-5.08,1.63-19.86,18.67-35.66,38.64-35.54h.02c19.98-.11,37.01,15.69,38.64,35.54,.16,1.44,.16,3.69,.19,5.08-.11,17.52-2.98,35.85-8.3,53.58-1.78,5.94-3.83,11.81-6.16,17.56-6.27,15.54-14.47,30.22-24.38,42.99t0,.02Zm104.53-1.03c-1.26,18.39-15.79,34.04-33.95,37.01-5.77,.97-11.76,.68-17.51-.24-18.14-3.02-33.9-14.07-46.15-27.45-.31-.33-.61-.68-.91-1.02,12.36-14.37,22.71-31.6,30.67-49.51,9.97,.82,19.87,2.18,29.59,4.42,5.27,1.26,10.51,2.81,15.49,4.89,0,0,.02,.02,.03,.02,1.45,.61,2.88,1.26,4.28,1.97,12.58,6.39,19.73,15.49,18.45,29.91Zm-104.57,.98v.05s.02,0,.02-.02c-.02,0-.02-.02-.02-.03Z"/><path class="cls-5" d="M614.5,125.37l-6.13,14.5s-.02,0-.03-.02c-4.98-2.09-10.22-3.64-15.49-4.89-9.72-2.24-19.62-3.61-29.59-4.42l6.79-17.06c15.63,1.95,31.33,5.49,44.45,11.89Z"/><path class="cls-3" d="M438.62,125.37l6.13,14.5s.02,0,.03-.02c4.98-2.09,10.22-3.64,15.49-4.89,9.72-2.24,19.62-3.61,29.59-4.42l-6.79-17.06c-15.63,1.95-31.33,5.49-44.45,11.89Z"/><path class="cls-4" d="M526.56,172.78l6.01,7.27c6.58-7.66,12.6-16.12,17.97-25.07l-8.66-5.88c-4.51,8.37-9.63,16.32-15.31,23.63v.05Z"/><path class="cls-6" d="M526.55,186.65c-7.42,7.73-15.47,14.41-24.05,19.66l-5.47-6.58c8.43-4.96,16.02-11.48,22.6-18.67,.31-.33,.61-.68,.91-1.02l6.01,6.61Z"/></g></g></g></svg>