<?xml version="1.0" encoding="utf-8"?>
<!-- Generator: Adobe Illustrator 27.6.1, SVG Export Plug-In . SVG Version: 6.00 Build 0)  -->
<svg version="1.1" id="Layer_2_00000052072545354052894250000005522961894314420111_"
	 xmlns="http://www.w3.org/2000/svg" xmlns:xlink="http://www.w3.org/1999/xlink" x="0px" y="0px" viewBox="0 0 132.2 42.7"
	 style="enable-background:new 0 0 132.2 42.7;" xml:space="preserve">
<style type="text/css">
	.st0{fill:#FF6E0C;}
	.st1{fill:#F20C90;}
</style>
<g>
	<path class="st0" d="M116.3,8.8c-2.5-0.2-4.6,1.3-4.9,4.1c-0.3,2.6,1.3,4.7,3.7,5.2c3.2,0.6,6.1,1.5,6.1,4.6h-8.2
		c-3,0-5.2,2.1-5.2,5.1c0,3,2.2,5.2,5.2,5.2h12c2.7,0,4.7-2,4.7-4.7v-3.9C129.9,15.2,124.9,9.4,116.3,8.8"/>
	<path class="st0" d="M5.7,29.3H6c0.2,0,0.4-0.1,0.4-0.4c0-0.2-0.2-0.4-0.4-0.4H5.7V29.3z M7.4,30.4c0.1,0.1,0.2,0.2,0.2,0.4
		c0,0.3-0.2,0.5-0.5,0.5c-0.2,0-0.3-0.1-0.4-0.2l-0.7-1H5.7v0.6c0,0.3-0.2,0.5-0.5,0.5c-0.3,0-0.5-0.2-0.5-0.5v-2.5
		c0-0.3,0.2-0.5,0.5-0.5h1.1c0.7,0,1.2,0.5,1.2,1.2c0,0.4-0.2,0.8-0.5,1L7.4,30.4z M8.6,29.5c0-1.4-1.2-2.6-2.6-2.6
		s-2.6,1.2-2.6,2.6c0,1.4,1.2,2.6,2.6,2.6S8.6,30.9,8.6,29.5 M9.7,29.5c0,2-1.6,3.6-3.7,3.6c-2,0-3.7-1.6-3.7-3.6
		c0-2,1.6-3.6,3.7-3.6C8.1,25.9,9.7,27.5,9.7,29.5"/>
	<path class="st1" d="M24.2,16.9c-2.7,0-3.7-2.3-4.6-6.5c-0.2-0.9-0.3-1.7-0.3-2.1c0-2.7,2.2-4.2,4.3-4.2c1.6,0,2.9,0.6,3.7,2
		c0.6,1,0.8,2.4,0.8,4.3c0,2-0.2,3.5-0.6,4.4C26.7,16.3,25.5,16.9,24.2,16.9"/>
	<path class="st0" d="M88.9,3.5c-2.4,0-4.5,2-4.5,4.5c0,2.4,2.1,4.5,4.5,4.5c2.4,0,4.5-2,4.5-4.5C93.4,5.5,91.4,3.5,88.9,3.5"/>
	<path class="st0" d="M88.9,15.5c-2.5,0-4.5,2-4.5,4.5v2.7h-4.2h0h-1v-1.3c0-6.4-3.8-9.4-12.1-9.4H49.6l9.1-3.5
		c5.5-2.1,2.2-9.5-3-7.4l-7.9,3.1c-5,1.9-7,5.3-7,8.4c0,4,3.2,7.6,7.4,7.6H65c5.4,0,6.1,0.2,6.1,1.9v0.5h-30c-3.3,0-3.9-0.3-4.5-2.1
		c-0.7-2.4-2.2-3.7-4.4-3.7c-2.8,0-4.5,1.9-4.5,5.1v5.4c0,2.4-1.1,3.9-3.1,3.9c-1.9,0-3.2-1.9-3.2-4.9c0-1.1,0.2-2.4,0.2-3
		c0-2.5-1.5-4.1-3.9-4.1c-3.4,0-5.2,3.2-5.2,9.4c0,8.3,4.4,13.4,11.3,13.4c7.8,0,12-3.7,13-11.6c0.8,1.8,2.2,2.6,4.3,2.6
		c0,0,0,0,0,0h39.1h0h5.3c5.8,0,7.8-2.1,7.8-8v-5C93.4,17.4,91.5,15.5,88.9,15.5"/>
	<path class="st0" d="M100.8,2.3c-2.7,0-4.6,1.9-4.6,4.7v21.9c0,2.8,1.8,4.7,4.6,4.7c2.7,0,4.5-1.9,4.5-4.7V7
		C105.4,4.2,103.6,2.3,100.8,2.3"/>
</g>
</svg>
