<?xml version="1.0" encoding="UTF-8"?>
<svg id="Layer_2" data-name="Layer 2" xmlns="http://www.w3.org/2000/svg" viewBox="0 0 687.27 203.4">
  <defs>
    <style>
      .cls-1 {
        fill: #fff;
      }

      .cls-2 {
        fill: #ccab84;
      }

      .cls-3 {
        fill: #1b3e71;
      }

      .cls-4 {
        fill: #4a98d0;
      }

      .cls-5 {
        fill: #82ccf1;
      }
    </style>
  </defs>
  <g id="Layer_1-2" data-name="Layer 1">
    <g>
      <g>
        <path class="cls-2" d="m593.02,1.38c-2.18-.92-4.47-1.38-6.83-1.38s-4.5.44-6.6,1.28l-19.59,7.96,16.08,6.63c2.42-1.46,4.96-2.71,7.56-3.72l1.74-.68,1.74.67c2.62,1.02,5.16,2.25,7.56,3.7l16.39-6.82-18.04-7.63Zm68.76,34.65c-1.77-4.34-5.12-7.74-9.43-9.57l-19.59-8.28,6.71,16.12c2.73.67,5.39,1.57,7.96,2.7l1.71.75.76,1.71c1.14,2.55,2.06,5.22,2.75,7.98l16.53,6.81-7.39-18.21Zm-66.8,151.27c-2.42,1.46-4.95,2.71-7.56,3.72l-1.73.68-1.75-.68c-2.61-1-5.15-2.24-7.56-3.69l-16.63,6.92,18.39,7.78c2.18.91,4.47,1.38,6.83,1.38s4.49-.44,6.59-1.29l19.83-8.04-16.42-6.77Zm-63.28-18.42c-2.74-.68-5.41-1.58-7.98-2.71l-1.7-.74-.76-1.72c-1.14-2.56-2.06-5.22-2.74-7.95l-16.65-6.87,7.51,18.5c.9,2.18,2.19,4.14,3.86,5.81,1.61,1.61,3.48,2.86,5.58,3.75l19.71,8.34-6.82-16.4Zm121.12-13.36c-.68,2.75-1.58,5.43-2.71,7.98l-.76,1.71-1.71.76c-2.56,1.12-5.22,2.04-7.96,2.72l-6.88,16.7,18.44-7.49c4.34-1.77,7.75-5.12,9.59-9.43l8.34-19.76-16.36,6.81ZM519.91,25.5c-4.34,1.77-7.74,5.12-9.57,9.43l-8.21,19.42,16.12-6.71c.68-2.75,1.58-5.42,2.72-7.98l.76-1.73,1.72-.75c2.56-1.12,5.21-2.03,7.92-2.71l6.75-16.36-18.21,7.39Zm166.1,70.2l-8.05-19.83-6.7,16.27c1.44,2.38,2.68,4.91,3.71,7.53l.69,1.75-.68,1.74c-1,2.62-2.24,5.16-3.69,7.57l6.92,16.63,7.69-18.22c1.8-4.26,1.84-9.15.11-13.44Zm-189.91,7.8l-.69-1.75.69-1.77c1.02-2.62,2.25-5.15,3.69-7.55l-6.82-16.39-7.7,18.21c-1.8,4.26-1.83,9.15-.1,13.42l7.96,19.59,6.7-16.25c-1.45-2.39-2.7-4.91-3.72-7.52Z"/>
        <path class="cls-3" d="m549.68,15.44l-7.24,17.58c.27,0,.53-.01.79-.01,3.34,0,6.66.35,9.92,1.02,1.61.33,3.2.75,4.79,1.25.76-1.46,1.58-2.89,2.49-4.27,1.98-3.04,4.27-5.82,6.83-8.32l-17.57-7.24Zm78.14,154.71c-3.16,0-6.31-.31-9.41-.92h-.01l-.48-.1c-1.6-.33-3.2-.74-4.79-1.25-.76,1.48-1.58,2.9-2.48,4.27-1.98,3.04-4.27,5.82-6.84,8.32l17.57,7.24,7.24-17.58c-.27,0-.53.01-.8.01Zm-109.95-100.75c-.75-3.53-1.1-7.11-1.05-10.68l-17.55,7.3,7.3,17.55c1.87-1.95,3.92-3.72,6.12-5.35v-.08l2.19-1.45c1.38-.89,2.79-1.73,4.24-2.49-.5-1.57-.92-3.18-1.26-4.8Zm146.62,50.19c-2.49,2.58-5.26,4.87-8.31,6.87-1.37.91-2.78,1.74-4.24,2.5.51,1.57.93,3.17,1.26,4.76.75,3.56,1.09,7.15,1.05,10.73l17.55-7.32-7.3-17.55Zm-149.53,7.1c-3.04-1.97-5.82-4.26-8.32-6.83l-7.24,17.57,17.57,7.24c-.05-3.58.28-7.15,1.02-10.69.33-1.61.75-3.22,1.25-4.8-1.46-.76-2.89-1.58-4.27-2.49Zm139.13-68.2c.06,3.58-.28,7.16-1,10.7-.34,1.62-.75,3.22-1.25,4.8,1.48.75,2.89,1.58,4.27,2.48l2.2,1.43v.1c2.19,1.61,4.23,3.39,6.12,5.32l7.24-17.58-17.58-7.24Zm-33-43.16l-17.55,7.3c2.56,2.48,4.86,5.26,6.86,8.3.91,1.38,1.74,2.79,2.5,4.24,1.57-.5,3.17-.92,4.79-1.26l.5-.1h.01c3.14-.63,6.36-.94,9.57-.94.21,0,.42,0,.64.01l-7.32-17.56Zm-60.44,156.92c-.89-1.37-1.73-2.79-2.49-4.24-1.56.5-3.17.92-4.79,1.26l-.48.1h-.02c-3.14.62-6.35.94-9.55.94-.22,0-.42-.01-.64-.01l7.3,17.56,17.55-7.3c-2.58-2.49-4.86-5.26-6.87-8.3Z"/>
        <path class="cls-4" d="m551.19,43.51c-2.62-.54-5.3-.82-7.97-.82-2.48,0-4.98.24-7.43.71-2.27.44-4.52,1.09-6.7,1.91-.82,2.18-1.46,4.43-1.9,6.72-.98,5.12-.93,10.29.15,15.38.21.97.45,1.93.71,2.88l18.39-7.65,7.61-18.43c-.96-.28-1.91-.51-2.87-.7Zm92.54,92.2c-.19-.96-.44-1.9-.71-2.84l-18.41,7.67-7.59,18.42c.82.24,1.64.45,2.48.63l.39.07c2.6.54,5.28.82,7.95.82,2.49,0,4.99-.24,7.45-.71,2.29-.45,4.53-1.09,6.71-1.92.82-2.15,1.46-4.4,1.9-6.71.97-5.12.92-10.3-.16-15.42Zm-121.01-52.44c-.65.36-1.31.74-1.93,1.14l-.59.39c-4.38,2.88-8.05,6.52-10.94,10.81-1.31,1.93-2.44,3.98-3.4,6.12.96,2.13,2.09,4.17,3.4,6.09,2.95,4.31,6.65,7.92,10.99,10.76.83.53,1.68,1.04,2.54,1.52l7.59-18.43-7.65-18.41Zm139.11,12.07c-2.94-4.31-6.64-7.93-10.99-10.76l-.71-.47c-.59-.36-1.2-.71-1.81-1.05l-7.59,18.43,7.67,18.41c.85-.47,1.68-.98,2.5-1.51,4.37-2.88,8.05-6.52,10.96-10.82,1.32-1.93,2.45-3.98,3.4-6.11-.96-2.14-2.1-4.18-3.41-6.11Zm-18.1-43.5c-.45-2.31-1.09-4.56-1.92-6.71-2.18-.82-4.43-1.46-6.72-1.9-2.39-.46-4.86-.69-7.3-.69-2.71,0-5.43.29-8.08.83l-.48.11c-.8.17-1.6.37-2.38.6l7.67,18.42,18.42,7.59c.27-.94.51-1.9.7-2.87,1.05-5.1,1.09-10.28.11-15.39Zm-41.39-15.6c-2.88-4.38-6.52-8.07-10.81-10.96-1.95-1.33-3.99-2.45-6.11-3.4-2.12.94-4.17,2.08-6.11,3.4-4.31,2.95-7.93,6.65-10.77,11-.54.82-1.04,1.66-1.51,2.53l18.42,7.59,18.42-7.67c-.48-.85-.99-1.68-1.52-2.5Zm-55.74,104.41l-18.42-7.59c-.28.94-.51,1.91-.7,2.87-1.06,5.09-1.1,10.27-.11,15.39.44,2.3,1.09,4.55,1.92,6.71,2.16.82,4.41,1.46,6.71,1.9,2.41.46,4.86.69,7.32.69,2.71,0,5.43-.29,8.08-.85l.48-.1c.8-.18,1.6-.37,2.38-.6l-7.67-18.42Zm39.05,16.1l-18.42,7.67c.48.85.98,1.69,1.52,2.5,2.87,4.37,6.51,8.05,10.82,10.96,1.93,1.32,3.98,2.45,6.11,3.4,2.12-.94,4.16-2.08,6.11-3.41,4.29-2.94,7.92-6.64,10.77-10.99.53-.82,1.04-1.66,1.51-2.52l-18.43-7.61Z"/>
        <path class="cls-5" d="m632.85,107.81l-1.85-4.45-.77-1.85.76-1.86,1.84-4.46,4.01-9.72-6.87,2.85-31.79,13.24,31.84,13.13,6.87,2.83-4.04-9.71Zm-91.81-19.34h-.01l-6.86-2.83,4.04,9.69h0s1.85,4.47,1.85,4.47l.77,1.85-.76,1.85-1.85,4.47-4,9.72,6.87-2.85,31.8-13.24-31.85-13.13Zm50.71-34.22l-4.46,1.86-1.85.77-1.85-.76-4.46-1.84h-.01l-9.69-4,2.85,6.84,13.23,31.8,13.13-31.84h0s2.83-6.88,2.83-6.88l-9.72,4.04Zm7.05,91.79h0s-13.24-31.83-13.24-31.83l-13.13,31.86-2.83,6.87,9.7-4.04,4.46-1.85,1.85-.77,1.85.76,4.47,1.84,9.72,4.01-2.85-6.86Zm27.55-22.4h-.01l-31.85-13.15,13.24,31.82h0s2.85,6.87,2.85,6.87l4.01-9.73,1.84-4.45.76-1.86,1.85-.76,4.45-1.85,9.72-4.05-6.87-2.83Zm-2.94-51.1l-4.47-1.84-1.85-.77-.77-1.85-1.85-4.46-4.04-9.7-2.83,6.87-13.13,31.84,31.8-13.23,6.87-2.85-9.72-4Zm-46.8,38.01l-13.12,31.84-2.83,6.88-4.05-9.71-1.86-4.46-.76-1.85-1.85-.76-4.47-1.85-9.71-4,6.86-2.85,31.8-13.23Zm-.04-17.89l-31.84-13.13-6.86-2.83,9.67-4.03h.01l4.45-1.85,1.85-.77.76-1.85,1.85-4.49,4.01-9.72,2.85,6.87,13.23,31.8Z"/>
      </g>
      <g>
        <g>
          <polygon class="cls-1" points="80.48 104.44 78.65 102.23 76.32 104.18 78.15 106.39 80.48 104.44"/>
          <path class="cls-1" d="m85.69,119.31h-10.18c-2.21,0-3.74-.33-4.59-.99-.85-.66-1.28-1.71-1.28-3.14,0-.89.15-1.98.44-3.26l-.21-.17-2.01.41c-.45,1.3-.67,2.52-.67,3.66,0,4.3,2.55,6.46,7.65,6.46h13.46v-11.66h-2.62v8.7Z"/>
          <polygon class="cls-1" points="80.1 110.29 82.46 108.31 80.6 106.07 78.21 108.05 80.1 110.29"/>
          <polygon class="cls-1" points="78.27 108.25 76.41 106.01 74.02 108.02 75.91 110.26 78.27 108.25"/>
          <path class="cls-1" d="m124.31,110.61h-2.62v8.7h-7.13c-.87,0-1.57-.13-2.09-.38l1.22-.52.67-2.41c-2.54-2.07-4.54-3.57-5.99-4.48-1.45-.91-2.8-1.37-4.04-1.37-1.05,0-2.27.28-3.67.84v2.56l.26.15c1.05-.37,2.07-.55,3.05-.55,1.07,0,2.08.24,3.04.71.96.48,2.39,1.37,4.29,2.69-.29.12-.96.4-2.01.84-1.05.45-1.74.72-2.07.83s-.88.28-1.66.52c-.77.24-1.49.4-2.15.47-.66.07-1.4.1-2.21.1h-5.56v-18.85h-2.62v21.82h7.97c1.61,0,3.09-.19,4.44-.58,1.35-.39,2.95-.99,4.82-1.8,1.12,1.59,2.57,2.39,4.33,2.39h9.72v-11.66Z"/>
          <polygon class="cls-1" points="122.13 124.51 119.72 126.52 121.67 128.85 124.08 126.84 122.13 124.51"/>
          <rect class="cls-1" x="129.06" y="102.41" width="2.62" height="19.87"/>
          <path class="cls-1" d="m133.42,100.05l-.23-1.48-.15-.06c-.68.23-1.57.35-2.68.35-.39-.45-.58-1.01-.58-1.69,0-.31.02-.52.06-.64.35-.06.67-.09.96-.09.58,0,1.18.04,1.8.12l.15-1.45c-.58-.14-1.15-.2-1.72-.2-.76,0-1.49.13-2.21.38-.35.66-.52,1.35-.52,2.07,0,.51.19,1,.55,1.48l-1.46-.06v1.63h2.82c1.24,0,2.3-.12,3.2-.35Z"/>
          <path class="cls-1" d="m145.17,122.39c-.19,1.24-.62,2.1-1.26,2.59-.65.48-1.57.73-2.75.73-1.61,0-3.08-.23-4.42-.7l-.2.17.46,2.53c1.2.56,2.46.84,3.78.84,4.67,0,7.01-2.87,7.01-8.61,0-1.61-.19-3.15-.58-4.61-.39-1.46-1.03-2.72-1.93-3.78s-1.97-1.58-3.21-1.58-2.52.75-3.67,2.24c-1.14,1.49-1.97,3.38-2.47,5.67,1.94,2.62,5.02,4.12,9.25,4.51Zm-5.22-8.29c.59-.74,1.17-1.11,1.73-1.11.76,0,1.41.33,1.96,1,.55.67.95,1.47,1.2,2.41.25.94.41,1.99.47,3.16-2.99-.21-5.26-1.1-6.81-2.65.37-1.14.85-2.08,1.44-2.82Z"/>
          <polygon class="cls-1" points="168.56 107.96 170.27 110 172.69 107.99 170.8 105.75 168.38 107.76 166.67 105.72 164.25 107.73 166.17 109.97 168.56 107.96"/>
          <path class="cls-1" d="m165.04,122.27h13.46v-11.66h-2.62v8.7h-10.18c-2.21,0-3.74-.33-4.59-.99-.85-.66-1.28-1.71-1.28-3.14,0-.89.15-1.98.44-3.26l-.21-.17-2.01.41c-.45,1.3-.67,2.52-.67,3.66,0,4.3,2.55,6.46,7.65,6.46Z"/>
          <path class="cls-1" d="m205.38,111.05c.58,2.83,1.05,5.58,1.4,8.26-2.06-.04-3.76-.28-5.12-.73l.84-6.63h-2.62l-.93,7.36c-1.67-.02-3.11-.3-4.31-.84l1.05-6.52h-2.62l-1.1,7.36h-6.11v-18.85h-2.62v21.82h10.79l.26-1.66c1.55,1.11,3.38,1.66,5.5,1.66l1.13-1.69c1.9,1.12,4.13,1.69,6.69,1.69l1.86-2.91c-.35-2.91-.84-5.89-1.49-8.96l-2.62.64Z"/>
          <rect class="cls-1" x="213.73" y="100.46" width="2.62" height="21.82"/>
          <path class="cls-1" d="m220.77,128.56c3.53,0,5.29-2.31,5.29-6.92v-10.06h-2.59v10.56c0,1.28-.21,2.2-.64,2.75-.43.55-1.08.83-1.95.83-.95,0-1.8-.12-2.56-.35l-.2.18.46,2.53c.7.33,1.43.5,2.18.5Z"/>
          <path class="cls-1" d="m243.1,122.27h0s0,0,0,0h5.85v-21.82h-2.7v18.85h-3.14s0,0,0,0h-.26c-.87,0-1.56-.19-2.05-.58s-1.09-1.25-1.79-2.59c-1.24-2.48-2.41-5-3.49-7.56h-.26l-2.04,1.46c1.18,2.68,2.45,5.32,3.81,7.94l.47.81c-1.16.35-2.64.52-4.42.52h-4.1l-.24.26.7,2.7h3.08c1.4,0,2.57-.12,3.54-.35.96-.23,1.89-.63,2.81-1.19.97,1.03,2.11,1.54,3.43,1.54h.81Z"/>
          <polygon class="cls-1" points="265.07 128.91 266.99 131.23 269.4 129.23 267.48 126.9 265.07 128.91"/>
          <path class="cls-1" d="m268.97,124.95c3.95,0,7.48-.74,10.56-2.21.35-.99.52-1.95.52-2.88,0-1.01-.39-1.84-1.16-2.49-.78-.65-1.94-1.3-3.49-1.96-1.2-.54-2.03-1-2.47-1.38s-.67-.85-.67-1.41c0-.31.02-.55.06-.73.87-.27,1.87-.41,2.99-.41s2.39.17,3.84.52l.15-.09.03-2.79c-1.28-.37-2.51-.55-3.69-.55-1.82,0-3.47.4-4.95,1.19-.6,1.14-.9,2.27-.9,3.37,0,1.03.34,1.86,1.02,2.49.68.63,1.71,1.28,3.08,1.93,1.32.62,2.27,1.14,2.85,1.57.58.43.88.84.88,1.25l-.03.41c-2.15.81-4.81,1.22-7.97,1.22-5.06,0-7.58-1.78-7.53-5.35,0-1.11.16-2.32.49-3.64l-.15-.14-2.12.41c-.47,1.4-.7,2.81-.7,4.25,0,2.25.77,4.05,2.31,5.4,1.54,1.35,3.89,2.02,7.06,2.02Z"/>
          <polygon class="cls-1" points="271.35 131.23 273.74 129.23 271.81 126.9 269.4 128.91 271.35 131.23"/>
          <path class="cls-1" d="m293.28,122.27l1.54-2.79c-.72-3.39-2.66-7.06-5.82-10.99h-.32l-1.92,1.92c2.68,3.28,4.49,6.24,5.44,8.9h-8.93l-.23.26.7,2.7h9.54Z"/>
          <path class="cls-1" d="m336.21,122.27l.23-1.6c1.55,1.07,3.36,1.6,5.44,1.6l1.13-1.69c1.9,1.12,4.13,1.69,6.69,1.69l.99-1.57c1.08,1.05,2.21,1.57,3.37,1.57h.55s0,0,0,0h5.85v-21.82h-2.7v18.85h-3.14s0,0,0,0h-.43c-1.16,0-2.08-.23-2.73-.7-.29-2.25-.7-4.85-1.22-7.8l-2.62.58c.46,2.56.87,5.2,1.22,7.91-2.04-.04-3.73-.28-5.09-.73l.84-6.63h-2.62l-.93,7.36c-1.63-.02-3.05-.29-4.25-.81l.99-6.55h-2.62l-1.05,7.36h-6.95c-.97,0-1.83-.06-2.59-.17,1.86-1.51,3.2-3.37,4.01-5.56l-.41-2.94c-2.1-.68-4.17-1.02-6.23-1.02-2.17,0-4.52.41-7.04,1.22l-.26,2.59.23.15,1.19-.32c.71,2.23,1.83,4.15,3.34,5.76-1.16.19-2.52.29-4.07.29h-3.05l-2.24.03c-.04-1.14-.19-2.26-.44-3.33s-.61-2.07-1.06-3c-.46-.92-1.05-1.66-1.77-2.21-.73-.55-1.55-.83-2.46-.83-1.3,0-2.52.74-3.67,2.21-1.14,1.47-1.97,3.36-2.47,5.64,1.92,2.6,5.01,4.07,9.28,4.42-.19,1.3-.62,2.2-1.27,2.71-.65.5-1.58.76-2.78.76-1.49,0-2.91-.23-4.25-.7l-.21.17.29,2.5c1.26.58,2.52.87,3.78.87,4.01,0,6.3-2.1,6.87-6.28h4.59c2.83,0,5.26-.48,7.3-1.43,1.69.95,3.54,1.43,5.56,1.43h8.84Zm-35.43-5.41c.35-1.14.83-2.07,1.43-2.79.6-.72,1.18-1.08,1.75-1.08,1.08,0,1.93.61,2.53,1.83.6,1.22.96,2.72,1.08,4.48-3.08-.23-5.34-1.05-6.78-2.44Zm21.38,1.4c-.21-.13-.41-.29-.58-.47-1.49-1.41-2.52-3.1-3.08-5.06,1.03-.18,2.1-.26,3.2-.26,1.86,0,3.36.17,4.48.52-.8,2.23-2.14,3.98-4.01,5.26Z"/>
          <rect class="cls-1" x="365.48" y="100.46" width="2.62" height="21.82"/>
          <polygon class="cls-1" points="384.96 106.01 383.07 103.75 380.63 105.75 382.55 108.02 384.96 106.01"/>
          <path class="cls-1" d="m378.86,128.56c3.53,0,5.29-2.31,5.29-6.92v-.58c1.07.81,2.05,1.22,2.97,1.22h15.97l1.57-2.85c-.16-2.87-.98-4.97-2.46-6.31-1.49-1.34-3.37-2.01-5.66-2.01-1.38,0-2.84.16-4.39.47l8.9-8.9-1.37-2.18h-.26l-10.53,11.37,1.08,2.44c2.05-.29,3.89-.44,5.53-.44,1.98,0,3.52.38,4.62,1.14,1.1.76,1.79,2.19,2.07,4.3h-15.04c-1.24,0-2.24-.21-3-.64v-7.1h-2.59v10.56c0,1.28-.21,2.2-.64,2.75-.43.55-1.08.83-1.95.83-.95,0-1.8-.12-2.56-.35l-.2.18.46,2.53c.7.33,1.43.5,2.18.5Z"/>
          <path class="cls-1" d="m437.38,119.31h-3.58c-1.14,0-2.04-.19-2.68-.58.18-.74.26-1.46.26-2.18,0-1.8-.4-3.29-1.21-4.45-.8-1.16-1.84-1.75-3.12-1.75-1.14,0-2.18.46-3.11,1.4-.93.93-1.84,2.25-2.73,3.96-.72,1.38-1.31,2.32-1.79,2.84s-1.06.77-1.76.77h-.9c-1.24,0-2.24-.21-3-.64v-7.1h-2.59v10.56c0,1.28-.21,2.2-.64,2.75-.43.55-1.08.83-1.95.83-.95,0-1.8-.12-2.56-.35l-.2.18.46,2.53c.7.33,1.43.5,2.18.5,3.53,0,5.29-2.31,5.29-6.92v-.58c1.07.81,2.05,1.22,2.97,1.22h.7c.95,0,1.74-.19,2.36-.57s1.23-1.02,1.83-1.93l6.63,3.02,2.04-1.95.03-.06c1.07.99,2.19,1.48,3.37,1.48h6.4v-21.82h-2.7v18.85Zm-9.11.7l-5.38-2.47.23-.41c.68-1.32,1.27-2.28,1.77-2.89.51-.61,1.05-.92,1.63-.92.71,0,1.29.33,1.73,1,.44.67.65,1.58.65,2.72,0,1.01-.21,2-.64,2.97Z"/>
          <rect class="cls-1" x="445.09" y="100.46" width="2.62" height="21.82"/>
          <polygon class="cls-1" points="5.47 140.6 7.18 142.63 9.6 140.63 7.71 138.39 5.29 140.39 3.58 138.36 1.16 140.36 3.08 142.61 5.47 140.6"/>
          <polygon class="cls-1" points="19.05 161.63 21 163.96 23.39 161.95 21.46 159.62 19.05 161.63"/>
          <polygon class="cls-1" points="14.72 161.63 16.64 163.96 19.05 161.95 17.13 159.62 14.72 161.63"/>
          <polygon class="cls-1" points="42.41 140.16 44.12 142.2 46.54 140.19 44.65 137.95 42.24 139.96 40.52 137.92 38.1 139.93 40.02 142.17 42.41 140.16"/>
          <path class="cls-1" d="m72.05,154.21h-7.01c-.97,0-1.83-.06-2.59-.17,1.86-1.51,3.2-3.37,4.01-5.56l-.41-2.94c-2.1-.68-4.17-1.02-6.23-1.02-2.17,0-4.52.41-7.04,1.22l-.26,2.59.23.15,1.19-.32c.71,2.23,1.83,4.15,3.34,5.76-1.16.19-2.52.29-4.07.29h-4.22c-1.36,0-2.36-.04-3.03-.12,1.3-1.3,1.95-2.79,1.95-4.48,0-1.45-.45-2.68-1.35-3.66s-2.07-1.48-3.51-1.48c-1.26,0-2.46.52-3.59,1.56-1.13,1.04-1.98,2.51-2.54,4.41.76,1.47,1.84,2.73,3.25,3.78h-5.9c-1.2,0-2.13-.24-2.76-.73v-18.12h-2.65v18.85h-4.48c-1.14,0-2.06-.23-2.73-.7v-7.04h-2.65v7.74h-7.62v-10.27h-2.59v2.3l-7.83,2.18c-.66,1.36-.99,2.67-.99,3.93s.4,2.31,1.19,3.08c.79.78,1.89,1.16,3.28,1.16,1.28,0,2.73-.49,4.34-1.48v2.07h10.88l1.08-1.75c1.2,1.16,2.38,1.75,3.52,1.75h5.29l.99-1.66c1.1,1.11,2.3,1.66,3.61,1.66h2.38c2.58,0,4.76-.41,6.55-1.22,1.82.81,3.69,1.22,5.61,1.22h3.67c2.83,0,5.26-.48,7.3-1.43,1.69.95,3.54,1.43,5.56,1.43h9.51v-21.82h-2.7v18.85Zm-63.23-1.48c-1.32.66-2.62.99-3.9.99-1.63,0-2.44-.67-2.44-2.01,0-.48.06-.94.18-1.37l6.17-1.69v4.07Zm36.15-.74c-.33.57-.79,1.07-1.4,1.5-1.84-.76-3.23-1.94-4.16-3.55.37-.76.83-1.37,1.4-1.85.56-.48,1.16-.71,1.8-.71.89,0,1.59.27,2.09.81.51.54.76,1.24.76,2.1,0,.56-.17,1.13-.5,1.7Zm15.07,1.18c-.21-.13-.41-.29-.58-.47-1.49-1.41-2.52-3.1-3.08-5.06,1.03-.18,2.1-.26,3.2-.26,1.86,0,3.36.17,4.48.52-.8,2.23-2.14,3.98-4.01,5.26Z"/>
          <rect class="cls-1" x="79.76" y="135.36" width="2.62" height="21.82"/>
          <path class="cls-1" d="m111.29,154.21h-10.18c-2.21,0-3.74-.33-4.59-.99-.85-.66-1.28-1.71-1.28-3.14,0-.89.15-1.98.44-3.26l-.21-.17-2.01.41c-.45,1.3-.67,2.52-.67,3.66,0,4.3,2.55,6.46,7.65,6.46h13.46v-11.66h-2.62v8.7Z"/>
          <polygon class="cls-1" points="103.95 142.87 105.67 144.9 108.09 142.9 106.2 140.66 103.78 142.66 102.07 140.63 99.65 142.63 101.57 144.87 103.95 142.87"/>
          <rect class="cls-1" x="118.65" y="135.36" width="2.62" height="21.82"/>
          <polygon class="cls-1" points="137.9 137.31 139.73 139.52 142.06 137.57 140.23 135.36 137.9 137.31"/>
          <polygon class="cls-1" points="139.85 141.38 137.99 139.14 135.6 141.15 137.49 143.39 139.85 141.38"/>
          <polygon class="cls-1" points="139.79 141.18 141.68 143.42 144.03 141.44 142.18 139.2 139.79 141.18"/>
          <path class="cls-1" d="m139.06,154.21h-5.09c-1.24,0-2.24-.21-3-.64v-7.1h-2.59v10.56c0,1.28-.21,2.2-.64,2.75-.43.55-1.08.83-1.95.83-.95,0-1.8-.12-2.56-.35l-.2.18.46,2.53c.7.33,1.43.5,2.18.5,3.53,0,5.29-2.31,5.29-6.92v-.58c1.07.81,2.05,1.22,2.97,1.22h7.74v-11.66h-2.62v8.7Z"/>
          <path class="cls-1" d="m154.36,141.91l-.23-1.49-.15-.06c-.68.23-1.57.35-2.68.35-.39-.45-.58-1.01-.58-1.69,0-.31.02-.52.06-.64.35-.06.67-.09.96-.09.58,0,1.19.04,1.8.12l.15-1.46c-.58-.13-1.15-.2-1.71-.2-.76,0-1.5.13-2.21.38-.35.66-.52,1.35-.52,2.07,0,.51.18,1,.55,1.48l-1.45-.06v1.63h2.82c1.24,0,2.31-.12,3.2-.35Z"/>
          <path class="cls-1" d="m179.96,154.21h-3.58c-1.14,0-2.04-.19-2.68-.58.18-.74.26-1.46.26-2.18,0-1.8-.4-3.29-1.21-4.45s-1.84-1.75-3.12-1.75c-1.14,0-2.18.46-3.11,1.4s-1.84,2.25-2.73,3.96c-.72,1.38-1.31,2.32-1.79,2.84s-1.06.77-1.76.77h-.46l-2.24.03c-.04-1.14-.19-2.26-.44-3.33s-.61-2.07-1.06-3c-.46-.92-1.05-1.66-1.77-2.21-.73-.55-1.55-.83-2.46-.83-1.3,0-2.52.74-3.67,2.21-1.14,1.47-1.97,3.36-2.47,5.64,1.92,2.6,5.01,4.07,9.28,4.42-.19,1.3-.62,2.2-1.27,2.71-.65.5-1.58.76-2.78.76-1.49,0-2.91-.23-4.25-.7l-.21.17.29,2.5c1.26.58,2.52.87,3.78.87,4.01,0,6.3-2.1,6.87-6.28h2.62c.95,0,1.74-.19,2.36-.57s1.23-1.02,1.83-1.93l6.63,3.02,2.04-1.95.03-.06c1.07.99,2.19,1.48,3.37,1.48h6.4v-21.82h-2.7v18.85Zm-31.71-2.44c.35-1.14.83-2.07,1.43-2.79.6-.72,1.18-1.08,1.75-1.08,1.08,0,1.93.61,2.53,1.83.6,1.22.96,2.72,1.08,4.48-3.08-.23-5.34-1.05-6.78-2.44Zm22.6,3.14l-5.38-2.47.23-.41c.68-1.32,1.27-2.28,1.77-2.89.51-.61,1.05-.92,1.63-.92.71,0,1.29.33,1.73,1,.44.67.65,1.58.65,2.72,0,1.01-.21,2-.64,2.97Z"/>
          <rect class="cls-1" x="187.67" y="135.36" width="2.62" height="21.82"/>
          <path class="cls-1" d="m203.88,146.46c-.9-1.06-1.97-1.58-3.21-1.58s-2.52.75-3.67,2.24-1.97,3.38-2.47,5.67c1.94,2.62,5.02,4.12,9.25,4.51-.19,1.24-.62,2.1-1.26,2.59-.65.48-1.57.73-2.75.73-1.61,0-3.08-.23-4.42-.7l-.2.17.46,2.53c1.2.56,2.46.84,3.78.84,4.67,0,7.01-2.87,7.01-8.61,0-1.61-.19-3.15-.58-4.61-.39-1.46-1.03-2.72-1.93-3.78Zm-6.76,5.37c.37-1.14.85-2.08,1.44-2.82s1.17-1.11,1.73-1.11c.76,0,1.41.33,1.96,1,.55.67.95,1.47,1.2,2.41.25.94.41,1.99.47,3.16-2.99-.21-5.26-1.1-6.81-2.65Z"/>
          <path class="cls-1" d="m234.5,154.21h-10.18c-2.21,0-3.74-.33-4.59-.99-.85-.66-1.28-1.71-1.28-3.14,0-.89.15-1.98.44-3.26l-.21-.17-2.01.41c-.45,1.3-.67,2.52-.67,3.66,0,4.3,2.55,6.46,7.65,6.46h13.46v-11.66h-2.62v8.7Z"/>
          <polygon class="cls-1" points="222.86 142.63 224.78 144.87 227.17 142.87 228.88 144.9 231.3 142.9 229.41 140.66 226.99 142.66 225.28 140.63 222.86 142.63"/>
          <rect class="cls-1" x="241.86" y="135.36" width="2.62" height="21.82"/>
          <path class="cls-1" d="m251.6,157.03c0,1.28-.21,2.2-.64,2.75-.43.55-1.08.83-1.95.83-.95,0-1.8-.12-2.56-.35l-.2.18.46,2.53c.7.33,1.43.5,2.18.5,3.53,0,5.29-2.31,5.29-6.92v-10.06h-2.59v10.56Z"/>
          <polygon class="cls-1" points="276.97 142.02 279.38 140.02 277.49 137.75 275.04 139.76 276.97 142.02"/>
          <path class="cls-1" d="m309.72,154.21h-3.58c-1.14,0-2.04-.19-2.68-.58.18-.74.26-1.46.26-2.18,0-1.8-.4-3.29-1.21-4.45s-1.84-1.75-3.12-1.75c-1.14,0-2.18.46-3.11,1.4s-1.84,2.25-2.73,3.96c-.72,1.38-1.31,2.32-1.79,2.84s-1.06.77-1.76.77h-2.94c-.87,0-1.57-.13-2.09-.38l1.22-.52.67-2.41c-2.54-2.07-4.54-3.57-5.99-4.48-1.45-.91-2.8-1.37-4.04-1.37-1.05,0-2.27.28-3.67.84v2.56l.26.15c1.05-.37,2.07-.55,3.05-.55,1.07,0,2.08.24,3.04.71.96.48,2.39,1.37,4.29,2.69-.29.12-.96.4-2.01.84-1.05.45-1.74.72-2.07.83s-.88.28-1.66.52c-.77.24-1.49.4-2.15.47-.66.07-1.4.1-2.21.1h-2.73c-.87,0-1.56-.19-2.05-.58s-1.09-1.25-1.79-2.59c-1.24-2.48-2.41-5-3.49-7.56h-.26l-2.04,1.46c1.18,2.68,2.45,5.32,3.81,7.94l.47.81c-1.16.35-2.64.52-4.42.52h-4.1l-.24.26.7,2.7h3.08c1.4,0,2.57-.12,3.54-.35.96-.23,1.89-.63,2.81-1.19.97,1.03,2.11,1.54,3.43,1.54h3.08c1.61,0,3.09-.19,4.44-.58,1.35-.39,2.95-.99,4.82-1.8,1.12,1.59,2.57,2.39,4.33,2.39h2.68c.95,0,1.74-.19,2.36-.57s1.23-1.02,1.83-1.93l6.63,3.02,2.04-1.95.03-.06c1.07.99,2.19,1.48,3.37,1.48h6.4v-21.82h-2.7v18.85Zm-9.11.7l-5.38-2.47.23-.41c.68-1.32,1.27-2.28,1.77-2.89.51-.61,1.05-.92,1.63-.92.71,0,1.29.33,1.73,1,.44.67.65,1.58.65,2.72,0,1.01-.21,2-.64,2.97Z"/>
          <rect class="cls-1" x="317.43" y="135.36" width="2.62" height="21.82"/>
          <polygon class="cls-1" points="337.14 147.23 339.56 145.22 337.67 142.95 335.22 144.96 337.14 147.23"/>
          <path class="cls-1" d="m357.83,145.25c-1.14,0-2.18.46-3.11,1.4s-1.84,2.25-2.73,3.96c-.72,1.38-1.31,2.32-1.79,2.84s-1.06.77-1.76.77h-.47s0,0,0,0h-.26c-1.12,0-2.05-.18-2.79-.55v-6.81h-2.59v11.55c-1.16.35-2.36.52-3.61.52-2.08,0-3.56-.46-4.45-1.37-.89-.91-1.34-2.26-1.34-4.04,0-1.26.18-2.59.55-3.99l-.14-.14-2.1.35c-.52,1.61-.79,3.11-.79,4.51,0,2.36.65,4.23,1.95,5.58,1.3,1.36,3.2,2.04,5.7,2.04,2.19,0,4.46-.61,6.81-1.83v-3.9c.95.7,1.87,1.05,2.76,1.05h.29s0,0,0,0h.23c.95,0,1.74-.19,2.36-.57s1.23-1.02,1.83-1.93l6.63,3.02,2.04-1.95c.74-1.34,1.1-2.77,1.1-4.3,0-1.8-.4-3.29-1.21-4.45s-1.84-1.75-3.12-1.75Zm1.22,9.66l-5.38-2.47.23-.41c.68-1.32,1.27-2.28,1.77-2.89.51-.61,1.05-.92,1.63-.92.71,0,1.29.33,1.73,1,.44.67.65,1.58.65,2.72,0,1.01-.21,2-.64,2.97Z"/>
          <path class="cls-1" d="m385.54,157.18h7.27v-11.66h-2.62v8.7h-7.42v-10.27h-2.59v2.3l-7.83,2.18c-.66,1.36-.99,2.67-.99,3.93s.4,2.31,1.19,3.08c.79.78,1.89,1.16,3.28,1.16,1.28,0,2.73-.49,4.34-1.48v2.07h5.35Zm-9.25-3.46c-1.63,0-2.44-.67-2.44-2.01,0-.48.06-.94.18-1.37l6.17-1.69v4.07c-1.32.66-2.62.99-3.9.99Z"/>
          <polygon class="cls-1" points="376.85 140.6 378.56 142.63 380.98 140.63 379.09 138.39 376.67 140.39 374.96 138.36 372.54 140.36 374.46 142.61 376.85 140.6"/>
          <polygon class="cls-1" points="384.96 161.63 386.88 163.96 389.3 161.95 387.38 159.62 384.96 161.63"/>
          <polygon class="cls-1" points="389.3 161.63 391.25 163.96 393.63 161.95 391.71 159.62 389.3 161.63"/>
          <polygon class="cls-1" points="410.59 138.01 412.31 140.04 414.72 138.04 412.83 135.8 410.42 137.81 408.7 135.77 406.29 137.78 408.21 140.02 410.59 138.01"/>
          <path class="cls-1" d="m413.93,143.52c-.85-.9-1.84-1.35-2.97-1.35-1.41,0-2.65.79-3.71,2.37-1.06,1.58-1.7,3.44-1.93,5.57,2.15,1.88,5.05,2.8,8.7,2.76,0,.35-.02.8-.06,1.34h-13.79v-18.85h-2.62v21.82h18.26c.43-1.86.64-3.89.64-6.08,0-1.47-.21-2.88-.62-4.22-.42-1.34-1.06-2.46-1.91-3.36Zm-6.2,5.36c.21-1.05.61-1.92,1.18-2.63.57-.71,1.17-1.06,1.79-1.06.85,0,1.57.5,2.15,1.5.58,1,.95,2.22,1.1,3.65-2.77.08-4.85-.41-6.23-1.46Z"/>
          <path class="cls-1" d="m437.38,154.21h-3.14l-2.24.03c-.04-1.14-.19-2.26-.44-3.33s-.61-2.07-1.06-3c-.46-.92-1.05-1.66-1.77-2.21-.73-.55-1.55-.83-2.46-.83-1.3,0-2.52.74-3.67,2.21-1.14,1.47-1.97,3.36-2.47,5.64,1.92,2.6,5.01,4.07,9.28,4.42-.19,1.3-.62,2.2-1.27,2.71-.65.5-1.58.76-2.78.76-1.49,0-2.91-.23-4.25-.7l-.21.17.29,2.5c1.26.58,2.52.87,3.78.87,4.01,0,6.3-2.1,6.87-6.28h8.23v-21.82h-2.7v18.85Zm-14.66-2.44c.35-1.14.83-2.07,1.43-2.79.6-.72,1.18-1.08,1.75-1.08,1.08,0,1.93.61,2.53,1.83.6,1.22.96,2.72,1.08,4.48-3.08-.23-5.34-1.05-6.78-2.44Z"/>
          <rect class="cls-1" x="445.09" y="135.36" width="2.62" height="21.82"/>
        </g>
        <g>
          <polygon class="cls-1" points="273.28 40.71 267.41 33.6 259.68 39.96 265.7 47.07 273.28 40.71"/>
          <polygon class="cls-1" points="319.09 80.43 314.51 74.83 306.78 81.19 312.93 88.57 319.7 82.96 324.42 88.57 332.01 82.21 325.92 74.83 319.09 80.43"/>
          <path class="cls-1" d="m435.1,42.46c-3.88-2.21-7.34-3.31-10.39-3.31-2.82,0-5.94.8-9.36,2.39v9.64l.75.41c2.87-.91,5.35-1.37,7.45-1.37,2.64,0,4.92.31,6.84.92s4.74,2.04,8.48,4.27c-2.87,1.41-5.66,2.43-8.38,3.04-2.71.62-6.21.92-10.49.92h-22.08c-2.23,0-3.99-.45-5.26-1.37-.46-5.83-1.96-10.69-4.51-14.56-2.55-3.87-5.77-5.81-9.64-5.81s-10,3.26-18.25,9.78v-5.26h-9.23v17.23h-19.55c-2.23,0-4.01-.48-5.33-1.44v-15.79h-9.57v17.23h-23.11c-2.51,0-4.4-.25-5.67-.75v-15.79h-9.44v28.44c-2.51.59-5.06.89-7.65.89-4.33,0-7.49-.94-9.47-2.8-1.98-1.87-2.97-4.85-2.97-8.95,0-2.69.52-5.92,1.57-9.71l-.55-.55-7.25,1.09c-1.55,4.15-2.32,8.18-2.32,12.1,0,6.43,1.78,11.27,5.33,14.53,3.56,3.26,8.2,4.89,13.95,4.89,6.38,0,12.65-1.94,18.8-5.81v-9.09c2.37,1.64,4.31,2.46,5.81,2.46h25.16l3.42-5.54c.96,1.05,1.65,1.79,2.08,2.22.43.43,1.06.98,1.88,1.64.82.66,1.62,1.11,2.39,1.33.77.23,1.66.34,2.67.34h54.96l3.15-4.85c1.46,1.69,2.78,2.92,3.97,3.69,1.18.77,2.64,1.16,4.37,1.16h20.37c5.65,0,10.76-.74,15.35-2.22,4.58-1.48,9.29-3.59,14.12-6.32l2.32-8.34c-5.92-5.1-10.82-8.76-14.7-10.97Zm-74.86,16.92v-3.76c7.11-4.6,12.39-6.9,15.86-6.9,2.01,0,3.69.94,5.06,2.8,1.37,1.87,2.32,4.49,2.87,7.86h-23.79Z"/>
        </g>
      </g>
    </g>
  </g>
</svg>