<?xml version="1.0" encoding="UTF-8"?><svg id="Layer_2" xmlns="http://www.w3.org/2000/svg" viewBox="0 0 134.76 23.51"><defs><style>.cls-1{fill:#fff;}</style></defs><g id="Layer_1-2"><g id="Artboard"><g id="logo_english"><polygon id="Fill-303" class="cls-1" points="34.21 23.51 31.88 23.51 31.88 9.08 2.33 9.08 2.33 23.51 0 23.51 0 6.75 34.21 6.75 34.21 23.51"/><polygon id="Fill-304" class="cls-1" points="84.48 23.51 50.27 23.51 50.27 6.75 52.6 6.75 52.6 21.18 82.16 21.18 82.16 6.75 84.48 6.75 84.48 23.51"/><polygon id="Fill-305" class="cls-1" points="125.68 23.51 91.46 23.51 91.46 6.75 93.79 6.75 93.79 21.18 125.68 21.18 125.68 23.51"/><polygon id="Fill-306" class="cls-1" points="41.19 23.51 43.52 23.51 43.52 6.75 41.19 6.75 41.19 23.51"/><polygon id="Fill-307" class="cls-1" points="41.19 4.89 43.52 4.89 43.52 0 41.19 0 41.19 4.89"/><polygon id="Fill-308" class="cls-1" points="132.43 23.51 134.76 23.51 134.76 6.75 132.43 6.75 132.43 23.51"/><polygon id="Fill-309" class="cls-1" points="132.43 4.89 134.76 4.89 134.76 0 132.43 0 132.43 4.89"/></g></g></g></svg>