<?xml version="1.0" encoding="utf-8"?>
<!-- Generator: Adobe Illustrator 27.6.1, SVG Export Plug-In . SVG Version: 6.00 Build 0)  -->
<svg version="1.1" id="Layer_2_00000167397267198018181250000000210785246305946282_"
	 xmlns="http://www.w3.org/2000/svg" xmlns:xlink="http://www.w3.org/1999/xlink" x="0px" y="0px" viewBox="0 0 104 30.9"
	 style="enable-background:new 0 0 104 30.9;" xml:space="preserve">
<style type="text/css">
	.st0{clip-path:url(#SVGID_00000100346718662210666070000004541874561992992678_);}
	.st1{fill:#FFFFFF;}
	.st2{clip-path:url(#SVGID_00000145051911452525449700000003722578999791308710_);}
</style>
<g id="Layer_1-2">
	<g>
		<g>
			<defs>
				<path id="SVGID_1_" d="M39.7,16.9c0,7.5,6.3,11.8,16.6,14c0.2,0,0.3-0.1,0.1-0.2c-5.6-2-12.7-7.2-12.7-13.2
					c0-4.3,3.5-7.7,7.7-7.7c0.2,0,0.2-0.2,0-0.2c-0.6-0.1-1.9-0.4-3.2-0.4C43.5,9.2,39.7,12.2,39.7,16.9"/>
			</defs>
			<use xlink:href="#SVGID_1_"  style="overflow:visible;fill:#FFFFFF;"/>
			<clipPath id="SVGID_00000165951473816535303300000001232062853511680925_">
				<use xlink:href="#SVGID_1_"  style="overflow:visible;"/>
			</clipPath>
			<g style="clip-path:url(#SVGID_00000165951473816535303300000001232062853511680925_);">
				<rect x="39.7" y="9.1" class="st1" width="17" height="21.8"/>
			</g>
		</g>
		<g>
			<defs>
				<path id="SVGID_00000081630122457996681220000009144081131266038433_" d="M55.8,0.1c-2.6,4.5-1.5,7.9,0,10.2
					c1.2,1.9,3.3,3.7,3.3,7.2c0,4.3-3.5,7.7-7.7,7.7c-1.2,0-2.2-0.3-2.9-0.6c-0.2-0.1-0.2,0-0.1,0.1c1.8,1.8,4,2.2,5.7,2.2
					c5.3,0,9.1-3.4,9.1-9.2c0-4.1-3-6.3-5.1-9.2c-1.5-2-3-3.9-2.1-8.4C56.1,0.1,56,0,56,0C55.9,0,55.9,0,55.8,0.1"/>
			</defs>
			<use xlink:href="#SVGID_00000081630122457996681220000009144081131266038433_"  style="overflow:visible;fill:#FFFFFF;"/>
			<clipPath id="SVGID_00000018234998184996704510000001482805004397270715_">
				<use xlink:href="#SVGID_00000081630122457996681220000009144081131266038433_"  style="overflow:visible;"/>
			</clipPath>
			<g style="clip-path:url(#SVGID_00000018234998184996704510000001482805004397270715_);">
				<rect x="48.3" class="st1" width="14.9" height="27"/>
			</g>
		</g>
		<g>
			<g>
				<path class="st1" d="M0,12.5c0.8-0.1,1.9-0.2,3.4-0.2c1.6,0,2.8,0.3,3.5,0.8c0.7,0.5,1.2,1.3,1.2,2.3s-0.4,1.8-1,2.3
					c-0.9,0.8-2.2,1.1-3.8,1.1c-0.4,0-0.8,0-1.1-0.1v3.9H0V12.5L0,12.5z M2.2,17.3c0.3,0.1,0.6,0.1,1.1,0.1c1.7,0,2.7-0.7,2.7-1.9
					c0-1.1-0.9-1.7-2.5-1.7c-0.6,0-1,0.1-1.3,0.1V17.3z"/>
				<polygon class="st1" points="27.3,18.1 22.8,18.1 22.8,21.1 27.9,21.1 27.9,22.6 20.6,22.6 20.6,12.4 27.6,12.4 27.6,13.9 
					22.8,13.9 22.8,16.5 27.3,16.5 				"/>
				<path class="st1" d="M73.8,20.6c0.7,0.4,1.8,0.7,2.9,0.7c1.4,0,2.2-0.6,2.2-1.4c0-0.8-0.6-1.2-2.1-1.7c-2-0.6-3.3-1.5-3.3-3
					c0-1.7,1.6-3,4.3-3c1.3,0,2.2,0.2,2.9,0.5l-0.5,1.5c-0.4-0.2-1.3-0.5-2.4-0.5c-1.4,0-2,0.6-2,1.2c0,0.8,0.7,1.2,2.3,1.7
					c2.1,0.7,3.1,1.6,3.1,3c0,1.7-1.5,3.1-4.6,3.1c-1.3,0-2.6-0.3-3.3-0.6L73.8,20.6L73.8,20.6z"/>
				<path class="st1" d="M96.7,19.7l-1,2.9h-2.3l3.9-10.3h2.8l3.9,10.3h-2.4l-1.1-2.9H96.7L96.7,19.7z M100.1,18.3l-0.9-2.5
					c-0.2-0.6-0.4-1.3-0.6-1.9h0c-0.2,0.6-0.4,1.3-0.6,1.9L97,18.3H100.1z"/>
				<path class="st1" d="M55.4,22.3c-0.5,0.2-1.7,0.5-3.1,0.5c-3.8,0-6.2-2-6.2-5.2c0-3.4,2.8-5.4,6.5-5.4c1.5,0,2.5,0.2,2.9,0.4
					L55,14.1c-0.6-0.2-1.4-0.4-2.4-0.4c-2.5,0-4.2,1.3-4.2,3.8c0,2.3,1.5,3.7,4.2,3.7c0.9,0,1.8-0.1,2.4-0.4L55.4,22.3L55.4,22.3z"
					/>
			</g>
		</g>
	</g>
</g>
</svg>
