<svg xmlns="http://www.w3.org/2000/svg" fill="none" viewBox="0 0 132 48"><path fill="#e57b73" d="M131.13 33.07c-.1-3.31-1.4-6.58-3.55-9.07 2.4-2.69 3.7-6.33 3.55-9.93a14.46 14.46 0 0 0-17.47-2.78 35.16 35.16 0 0 0-1.72 1.1 14.19 14.19 0 0 0-3.46-7.48 12.82 12.82 0 0 1 7.82-2.98c1.54 1.58 2.6 3.6 3.12 5.76.62-.05 1.3-.05 1.97-.05a14.56 14.56 0 0 0-2.4-5.52 12.86 12.86 0 0 0-1.82-2.11c-3.7-.1-7.35 1.2-10.03 3.55A14.23 14.23 0 0 0 97.2.01a14.47 14.47 0 0 0-2.79 17.46c.34.58.72 1.16 1.1 1.73a14.19 14.19 0 0 0-7.48 3.46 12.81 12.81 0 0 1-2.97-7.78 12.56 12.56 0 0 1 5.76-3.12c-.05-.62-.05-1.3-.05-1.96a14.56 14.56 0 0 0-5.52 2.4 12.82 12.82 0 0 0-2.11 1.82c-.1 3.65 1.2 7.3 3.55 9.98a14.22 14.22 0 0 0-3.55 9.93 14.46 14.46 0 0 0 17.46 2.78c.58-.33 1.15-.72 1.73-1.1a14.19 14.19 0 0 0 3.45 7.48 12.8 12.8 0 0 1-7.77 2.98 12.54 12.54 0 0 1-3.12-5.76c-.62.05-1.3.05-1.96.05a14.53 14.53 0 0 0 2.4 5.52 12.82 12.82 0 0 0 1.82 2.1c3.6.1 7.24-1.14 9.93-3.54 2.69 2.4 6.33 3.7 9.93 3.55a14.47 14.47 0 0 0 2.78-17.47c-.33-.57-.72-1.15-1.1-1.72a14.19 14.19 0 0 0 7.49-3.46 12.57 12.57 0 0 1 3.02 7.77 12.54 12.54 0 0 1-5.76 3.12c.05.63.05 1.3.05 1.97a14.55 14.55 0 0 0 5.52-2.4 12.77 12.77 0 0 0 2.1-1.82v-.91zm-13.2-16.08a12.73 12.73 0 0 1-1.53 2.07 11.92 11.92 0 0 1-2.83 2.3c-1.01.62-2.11 1.06-3.26 1.34-.77.15-1.5.34-2.21.34-.05-.72.14-1.44.29-2.11.28-1.15.76-2.26 1.34-3.26a11.94 11.94 0 0 1 2.3-2.83 12.53 12.53 0 0 1 7.58-3.31 11.93 11.93 0 0 1-1.68 5.47zm-4.8 9.46c.15.04.25.14.39.24a11.9 11.9 0 0 1 2.83 2.3 12.54 12.54 0 0 1 3.31 7.58 13.26 13.26 0 0 1-5.52-1.73c-.72-.43-1.44-.96-2.06-1.58a11.91 11.91 0 0 1-2.3-2.83c-.63-1-1.06-2.11-1.35-3.26-.14-.77-.33-1.5-.33-2.21.72-.05 1.44.14 2.1.29 1.06.28 2.02.67 2.94 1.2zm-7.67 1.92c-.29.72-.58 1.39-.96 2.06a11.91 11.91 0 0 1-2.3 2.83 12.53 12.53 0 0 1-7.58 3.31c.14-1.92.76-3.84 1.72-5.52.44-.72.96-1.44 1.59-2.06a11.92 11.92 0 0 1 2.83-2.3c1-.63 2.1-1.06 3.26-1.35a8.5 8.5 0 0 1 2.16-.38c.05.72-.14 1.44-.29 2.11zm-4.32-6.82c-.14-.05-.24-.14-.38-.24a11.92 11.92 0 0 1-2.83-2.3 12.53 12.53 0 0 1-3.31-7.58c1.92.14 3.83.77 5.51 1.73.72.43 1.44.96 2.07 1.58a11.91 11.91 0 0 1 2.3 2.83c.62 1 1.06 2.11 1.34 3.26.15.77.34 1.5.34 2.21-.72.05-1.44-.14-2.11-.29a12.11 12.11 0 0 1-2.93-1.2zM94.66 8.93a12.74 12.74 0 0 1 3.31-7c6.43.05 12.05 5.61 12.2 12.04a14.37 14.37 0 0 0-3.03 4.7 14.54 14.54 0 0 0-12-9.06c-.19 0-.38-.05-.52-.05 0-.24.04-.43.04-.63zm-1.96 27.6a12.61 12.61 0 0 1-7.63-3.37c.05-6.43 5.61-12.04 12.04-12.18a14.35 14.35 0 0 0 4.7 3.02 14.5 14.5 0 0 0-9.11 12.52zm26.91 2.53a12.74 12.74 0 0 1-3.3 7.01c-6.44-.05-12.05-5.61-12.2-12.04a14.36 14.36 0 0 0 3.03-4.7 14.5 14.5 0 0 0 12.52 9.11c0 .24-.05.43-.05.63zm7.58-17.75c-2.16 3.36-6 5.57-10.02 5.71a14.37 14.37 0 0 0-4.7-3.02 14.5 14.5 0 0 0 9.11-12.52 12.4 12.4 0 0 1 7.63 3.4 12.39 12.39 0 0 1-2.02 6.43z"/><path fill="#fafafa" d="M70.55 4.25 59.9 9.55l-.7 2.14L69.83 6.5zm-53.9 10.27a43.86 43.86 0 0 1-3.95-3.19c-1 1.06-2.42 2.45-3.68 3.52 1.06.96 2.6 2.29 3.97 3.3 1.28-1.14 2.7-2.6 3.66-3.63zm29.1 21.95a54.06 54.06 0 0 1-2.62-2.19 49.12 49.12 0 0 1-3.67 3.52 52.4 52.4 0 0 0 3.96 3.3c1.01-.9 2.11-2 3-2.93.86.72 1.8 1.5 2.68 2.14 1.28-1.13 2.7-2.59 3.66-3.63a43.88 43.88 0 0 1-3.95-3.18 49.92 49.92 0 0 1-3.05 2.97zm16.96-17.12.94.25c2.9 4.74 4.53 7.98 5.28 9.57-4.46 9.06-14.9 6.76-14.9 6.76l-.83.77a51.26 51.26 0 0 0 7.46 4.4c5.46-.79 15.98-11.45 5.12-26.4l-3.07 4.65zm-9.56-8.98-3.47 4.96.81.55 3.8 8.4c-1.42 1.22-5.5 3.14-17.12 3.14-10.03 0-12.35-5.45-14.97-9.69l-3.37 4.3c3.4 5.66 4.41 8.72 4.68 10.29-2.69 2.28-6.17 4.22-10.89 4.22-15.13 0-8.75-14.97-8.75-14.97l-1.17-.18C-5.16 38.51 6.3 40.95 9.8 41.27c3.52.34 10.27.11 13.26-4.6 1.76-2.79 2.12-6.18 2.12-8.51 6.61 5.48 23.34 4.2 27.78.7 4.82-3.8 2.15-14.82.2-18.49z"/></svg>