<?xml version="1.0" encoding="UTF-8"?>
<svg id="Layer_2" data-name="Layer 2" xmlns="http://www.w3.org/2000/svg" viewBox="0 0 1914.38 335.09">
  <defs>
    <style>
      .cls-1 {
        fill: #f5f5f7;
      }

      .cls-2 {
        fill: #e6342c;
      }
    </style>
  </defs>
  <g id="Layer_1-2" data-name="Layer 1">
    <g id="Artwork_2" data-name="Artwork 2">
      <g>
        <path class="cls-2" d="m221.63,335.09c-67.96-7.07-139.4-31.15-187.77-81.56C9.79,228.45-5.91,195.19,2.12,160.03c7.67-33.55,33.37-58.67,57.36-81.7C103.28,36.3,168.74-10.87,232.95,9.32c32.73,10.29,57.22,36.7,75.26,64.73,18.88,29.33,33.83,62.91,40.03,97.34,6.78,37.62,3.67,78.54-17.77,111.22-9.92,15.12-23.32,27.8-39.12,36.69-8.16,4.59-16.97,8.17-25.99,10.7-4.62,1.3-9.48,2.46-14.21,3.28-4.1.71-9.89-.24-13.52,1.82h-16Zm49.05-60.86h13.57c-4.34-9.84-8.45-19.53-12.28-29.26,11.56-7.04,15.35-22.55,5.02-32.62-5.75-5.6-13.16-6.61-20.87-6.77-8.92-.18-18-.41-26.9.1v68.67c4.02,0,9.03.77,12.93-.34v-26.48h17.6c3.67,8.97,7.31,17.86,10.93,26.69m-68.5-29.1c5.85-4.94,10.57-8.69,11.2-16.89.48-6.15-2.13-12.86-6.86-16.88-5.8-4.93-13.02-5.72-20.33-5.81-8.57-.1-17.42-.56-25.95.16-.48,4.41-.28,66.81.19,68.49h11.62c0-8.92-.15-17.85.03-26.76,4.43,0,8.86.01,13.29,0,4.14-.01,4.83.16,6.45,3.88,3.31,7.59,6.24,15.38,9.39,23.03,4.33,0,9.02.48,13.31-.22-4.16-9.77-8.18-19.19-12.36-29.01m109.71,29.16v-68.73c-3.89,0-7.78.01-11.68.04-.51,6.22-.28,66.85.24,68.69h11.43Z"/>
        <path class="cls-1" d="m983.63,335.09c-8.2-2.83-15.71-9.68-10.15-19.11,5.13-8.7,19.99-6.73,28.32-9.46.35-6.02-3.28-9.68-9.18-10.16-6.99-.57-9.76,2.51-12.51,8.25-2.25-.52-4.38-1.01-6.6-1.51-1.65-14.26,23.58-16.37,31.66-10.16,5.01,3.85,4.2,11.01,4.32,16.62.16,7.61-1.62,17.58,2.32,24.43-6.13,0-7.51.95-9.55-4.94-3.78,2.74-7.75,3.78-11.64,6.05h-7Zm18.33-22.35c-4.72.96-29.73,3.57-20.17,13.73,3.7,3.94,10.51,3.02,14.54.28,4.91-3.33,6-8.41,5.63-14.01"/>
        <path class="cls-1" d="m744.13,335.09c-5.08-1.69-10.03-3.38-11.52-9.1-1.12-4.28-.13-9.28,3.09-12.4,6.44-6.24,18.19-3.9,26.19-7.24,1.59-8.41-7.13-11.79-14.29-9.71-3.96,1.15-3.89,3.33-6.35,5.85-2.23,2.29-4.84,1.07-8.16.59,1.79-6.46,5.13-10.39,11.75-12.19,6.35-1.73,15.85-2.11,21.2,2.55,4.82,4.2,3.69,12.31,3.69,17.98,0,7.73-.89,15.31,2.35,22.54-5.93,0-7.7,1.08-9.32-4.8-3.16,1.64-9.03,3.76-11.62,5.94h-7Zm17.96-22.32c-5.48,1.1-14.1,1.21-18.8,4.42-4.52,3.09-3.44,8.72,1.29,10.98,10.78,5.16,18.15-6.31,17.51-15.4"/>
        <path class="cls-1" d="m593.63,335.09c-8.13-2.71-14.93-6.19-16.85-15.31-1.78-8.45-.38-19.54,6.48-25.47,6.29-5.44,16.52-5.98,23.55-1.73,8,4.85,8.78,13.14,9.58,21.58h-32.13c-1.07,8.05,6.68,16.14,14.92,14.26,4.71-1.08,4.89-4.34,8.2-6.89,2.71-2.08,4.72-1.16,8.39-.63-2.24,8.87-7.59,10.11-14.62,14.18h-7.5Zm-8.88-27.15h23.26c.83-15.37-22.51-14.93-23.26,0"/>
        <path class="cls-1" d="m872.63,335.09c-12.54-4.16-17.21-11.27-17.06-24.22.14-11.89,7.15-20.86,19.65-21.05,11.53-.17,19.45,8.08,20.67,19.15,1.49,13.58-4.7,21.6-16.76,26.11h-6.5Zm15.88-22.74c-.02-8.02-4.76-16.99-13.95-16.12-8.71.83-12.06,10.28-11.51,17.93.53,7.44,5.4,15.52,14.02,14.51,8.54-1,10.44-9.35,11.45-16.32"/>
        <path class="cls-1" d="m1079.18,234.8V3.71c27.71-1.23,55.73-.13,83.48-.1,24.21.03,48.3-.69,69.31,13.21,19.85,13.14,31.22,34.8,31.63,58.44.22,12.62-2.33,25.74-8.64,36.77-6.33,11.06-15.27,17.94-25.04,25.65,6.33,16.36,13.57,32.41,20.48,48.53,3.63,8.47,7.29,16.93,10.93,25.4,3.13,7.29,7.95,15.33,9.62,23.09-14.41.82-29.05.13-43.49.13-3.3,0-10.98,1.64-13.74-.6-1.45-1.18-2.16-5.13-2.83-6.76-1.27-3.11-2.58-6.2-3.83-9.31-9.29-23.06-18.55-46.27-28.61-69.01h-47.72v85.19c-2.83,1.49-8.34.44-11.48.44-4.43,0-8.86,0-13.3,0-8.92,0-17.85,0-26.77,0m51.47-137.48c17.89,0,35.79.09,53.68.04,13.27-.04,27.06-4.4,27.74-19.87.8-18.23-16.43-22.4-31.1-22.47-16.6-.07-33.79-1.26-50.32.15v42.15Z"/>
        <path class="cls-1" d="m447.3,3.59c28.44,0,56.88-.02,85.32.02,25.16.03,49.92-.04,70.88,15.91,38.44,29.25,37.71,93.44-5.89,117.9,13.83,32.43,27.62,64.77,41.56,97.43-12.76,0-25.51,0-38.27,0-4.01,0-15.85,2.11-19-.43-3.26-2.63-4.93-11.89-6.49-15.77-9.3-23.26-19.7-46.09-28.68-69.46h-48.04c-1.89,24.36-.16,49.52-.15,73.96,0,2.86,1.25,9.3-.69,11.42-1.62,1.76-10.89.29-13.53.29-12.22,0-24.56.52-36.76-.04-1.5-1.43-.51-6.32-.51-8.08,0-5.06,0-10.12,0-15.18v-30.35c0-19.78,0-39.55,0-59.33,0-19.78,0-39.55,0-59.33,0-10.12,0-20.24,0-30.35,0-8.83-1.85-20.04.24-28.59m51.34,93.73c17.57,0,35.15.06,52.73.05,13.65-.01,28.86-4.27,28.51-20.78-.36-16.74-15.22-21.44-29.53-21.56-17.06-.13-34.7-1.27-51.7.13v42.16Z"/>
        <path class="cls-1" d="m866.17,234.87V3.71c18.24-.85,36.69-.18,54.95-.15,16.88.03,33.76-.57,50.22,3.8,29.95,7.95,56.9,28.53,70.69,56.36,14.51,29.27,15.68,66.92,5.68,97.76-9.98,30.76-34.23,54.85-64.47,66.15-17.83,6.66-35.17,7.24-53.98,7.24-21.03,0-42.07,0-63.1,0m52.2-179.74v128.16c21.85,1.47,43.94.8,61.76-13.44,17.26-13.8,22.4-32.56,22.11-54.09-.28-20.79-8.18-39.35-26.02-50.89-17.11-11.08-38.18-10.8-57.85-9.73"/>
        <path class="cls-1" d="m835.42,3.76v51.15h-119.91c-.55,1.97-.72,24.76-.25,28.74h65.27v52.05c-21.7.94-43.64.06-65.37.06v47.62c20.54.97,41.34.06,61.9.06s41.21,0,61.82,0v50.98c-1.84,2.05-12.19.44-14.96.44-7.84,0-15.67,0-23.51,0-15.21,0-30.41,0-45.62,0h-91.17c-1.42-1.35-.45-8.31-.45-10.19,0-5.1,0-10.2-.01-15.3,0-9.73-.01-19.47-.02-29.2-.01-19.93-.03-39.86-.04-59.79-.03-38.88-.07-77.76-.07-116.64h172.37Z"/>
        <path class="cls-1" d="m1914.38,234.72c-14.67.88-29.59.11-44.29.13-3.46,0-8.7,1.03-12.03-.1-2.8-.94-3.44-3.31-4.69-5.91-3.34-6.91-6.78-13.78-10.18-20.66-13.48-27.24-27.11-54.41-40.25-81.81-6.65,7.22-12.4,15.45-18.47,23.16-4.91,6.23-14.51,14.39-15.96,22.24-.93,5.03.03,11.25.04,16.38,0,5.46,0,10.92.01,16.38,0,10.05,0,20.1,0,30.16h-51.1c-.49-1.78-.61-228.06-.1-230.97h51.06v81.67c9.95-9.65,18.38-21.45,27.32-32.05,10.1-11.97,20.2-23.94,30.19-36,3.38-4.08,7.75-12.3,13.06-13.68,6.57-1.7,15.52-.05,22.31-.04,14.02.03,28.18-.53,42.18.16-12.4,18.63-28.61,35.49-42.81,52.79-3.62,4.41-7.24,8.82-10.83,13.24-2.28,2.81-8.6,8.13-9.42,11.77-.86,3.81,3.87,9.91,5.46,13.12,2.47,4.99,4.92,9.98,7.36,14.97,10.27,20.94,20.5,41.91,30.83,62.83,5.3,10.74,10.61,21.48,15.91,32.23,4.84,9.82,10.69,19.67,14.43,29.96"/>
        <path class="cls-1" d="m1485.9,118.86c-.61,46.19-18.27,98.12-65.75,115.1-20.58,7.36-46,6.96-66.24-1.19-20.95-8.43-36.68-24.22-47.68-43.66-21.92-38.73-22.42-92.22-4.64-132.51,9.02-20.43,23.56-37.65,44.05-47.37,20.9-9.92,46.47-11.83,68.76-5.79,23.15,6.27,41.67,22.3,53.78,42.65,13.36,22.45,16.45,47.22,17.72,72.78m-144.21.07c.36,25.23,6.44,58.83,34.75,66.83,59.57,16.83,66.91-71.16,50.85-107.8-4.6-10.48-11.88-19.28-22.75-23.54-10.86-4.26-24.21-4.24-34.74.98-23.81,11.78-26.49,40.33-28.1,63.53"/>
        <path class="cls-1" d="m1699.32,57.04c-15.63,7.73-30.96,15.32-46.46,22.98-6.01-9.08-12.19-17.19-22.04-22.4-10.43-5.53-23.63-7.96-35.15-4.84-22.84,6.19-33.9,31.93-36.3,53.45-2.45,21.9-.17,48.62,14.97,65.95,14.99,17.16,43.38,19.03,61.52,5.43,4.9-3.68,9.11-8.5,12.17-13.79.79-1.37,1.7-4.88,3.26-5.42,1.66-.57,6.32,2.7,7.54,3.32,13.5,6.76,27.01,13.5,40.51,20.24-10.14,15.64-20.83,29.73-36.46,40.32-15.79,10.7-34.06,15.63-52.96,16.42-38.47,1.62-71.28-17.46-88.83-51.63-17.44-33.97-18.88-78.76-8.34-115.07,11.11-38.3,40.18-66.72,80.64-71.18,22.03-2.43,44.96,1.29,64.27,12.41,18.29,10.53,30.72,26.18,41.66,43.8"/>
        <path class="cls-1" d="m520.79,333.92h-7.44c-.61-8.01-.12-16.21-.13-24.24-.01-6.06-.55-12.7-8.14-13.23-16.98-1.18-11.88,27.08-11.88,37.09-1.88.55-4.43.6-7.62.16-.06-14.25,0-28.56-.04-43.02h6.88v4.78c7.44-5.39,20.23-9.54,26.41.49,2.98,4.84,1.9,12.07,1.98,17.5.1,6.32,1.46,14.33-.02,20.47"/>
        <path class="cls-1" d="m916.2,290.68h6.76v5.9c6.6-7.15,20.71-10.82,26.56-.26,2.7,4.87,2.01,11.14,2.02,16.48.02,7,.32,14.09-.13,21.08-2.39.19-4.74.14-7.36,0,0-8.48.31-17.03-.05-25.5-.29-6.85-2.82-13.35-11.06-11.71-5.9,1.17-8.47,5.5-9.08,11.18-.92,8.51-.16,17.45-.16,26h-7.4c-.44-14.37-.1-28.79-.1-43.17"/>
        <path class="cls-1" d="m711.51,333.9h-7.18c-.64-9.28,5.73-42.47-12.58-36.85-5.88,1.8-7.37,6.75-7.71,12.36-.48,8.1,0,16.36,0,24.48-2.49.15-4.83.16-7.35-.07v-43.08h6.42v5.39c6.78-6.37,21.4-10.31,26.84.42,2.32,4.57,1.72,10.73,1.73,15.68.03,7.18.38,14.5-.19,21.67"/>
        <path class="cls-1" d="m794.05,296.56h-5.22v-5.87c1.6-.07,3.21-.15,5.14-.23.04-2.74-.93-7.72.38-10.31,1.12-2.22,5.08-3.35,7.18-4.31v14.68h7.34v6.02h-7.1c-.86,8-.59,16.71-.21,24.75.3,6.4,2.07,4.99,7.34,6.27.3,1.96.6,3.96.93,6.11-8.47,2.29-15.62-.4-15.75-9.57-.13-9.18-.03-18.37-.03-27.55"/>
        <path class="cls-1" d="m559.88,327.51c.32,2.07.63,4.07,1,6.45-9.73.67-15.57-.29-15.72-11.06-.11-8.55.89-17.79-.32-26.23h-4.97v-6.04h5.17c0-6.5-.92-13.55,7.47-14.43v14.31h7.38v6.11h-7.15c-.65,6.91-.21,14.05-.19,20.99.02,7.1-.21,9.48,7.33,9.91"/>
        <rect class="cls-1" x="1032.32" y="274.48" width="7.55" height="59.39"/>
        <path class="cls-1" d="m460.84,333.87h-7.64v-59.38h7.45c.49,1.71.69,54.88.19,59.38"/>
        <path class="cls-1" d="m636.83,333.71v-42.88c2.16-.59,4.35-.16,6.72-.06v5.01c.14.09.28.18.42.28,3.7-6.61,9.57-7.44,16.1-4-.21,2.54-1.45,4.68-2.3,7.22-7.39-2.09-11.92-.65-13.25,7.73-1.35,8.54-.32,17.91-.32,26.53-1.92.58-4.81.64-7.37.18"/>
        <rect class="cls-1" x="827.85" y="290.72" width="7.22" height="43.15"/>
        <rect class="cls-1" x="827.9" y="274.49" width="7.18" height="8.22"/>
        <path class="cls-2" d="m242.05,235.47c0-5.39-.7-11.51.18-16.83,7.54-.4,28.58-4.09,28.54,8.25-.04,12.7-20.75,8.58-28.72,8.58"/>
        <path class="cls-2" d="m172.15,235.47v-16.78c7.96-.89,30.14-3.87,29.02,9.07-1.01,11.71-21.16,7.71-29.02,7.71"/>
      </g>
    </g>
  </g>
</svg>