<?xml version="1.0" encoding="UTF-8"?>
<svg id="Layer_2" data-name="Layer 2" xmlns="http://www.w3.org/2000/svg" viewBox="0 0 545.55 128.57">
  <defs>
    <style>
      .cls-1 {
        fill: #fff;
      }

      .cls-2 {
        fill: #f14144;
      }
    </style>
  </defs>
  <g id="Ready_Set_Yummy" data-name="Ready, Set, Yummy">
    <g>
      <g>
        <path class="cls-1" d="m180.59,128.5c-.97-.14-8.06-15.84-14.31-36.26l-8.89,3.33c-1.25-.14-4.17-.56-4.17-1.67,0-2.36,4.45-5,11.39-7.5-4.31-15.42-7.78-32.78-7.78-47.93,0-20.84,6.67-37.37,27.37-38.48-2.5,15.84-3.61,38.62-3.61,61.82,0,6.81,0,13.47.28,20.14,10.28-2.36,22.23-4.58,33.62-5.97-2.64-16.11-4.58-33.2-4.58-47.09,0-9.72,5.7-19.17,15.7-19.17,2.36,0,4.72.56,7.5,1.67-2.22,19.45-2.92,39.04-3.19,63.07,4.17-.28,8.06-.42,11.67-.42,5.42,0,7.78,2.92,7.78,5.83,0,2.36-1.39,4.58-3.89,5.7-4.17-1.53-9.45-2.36-15.7-2.78v37.51c0,2.36-1.67,3.33-3.61,3.33-.69,0-1.67-.14-2.36-.42-2.08-8.47-5.42-23.62-8.2-40.42-10.7.56-22.5,2.22-34.59,5.14.56,14.03,1.67,27.09,3.19,37.65-.28,1.25-1.67,2.22-3.61,2.92Z"/>
        <path class="cls-1" d="m284.5,108.21c-2.36-4.17-3.61-9.31-3.61-13.89,0-7.22,3.2-13.2,10.7-13.2,4.58,0,6.81,3.33,6.81,7.92,0,4.86-2.36,10.97-6.53,16.39,1.53,4.17,3.75,7.22,7.22,7.22,5.83,0,13.47-5.97,20.98-17.36,1.81-2.78,3.33-5.83,4.72-8.75l2.64.69c-1.25,2.78-2.78,5.7-4.58,8.47-8.61,13.2-18.48,21.25-25.98,21.25-4.17,0-7.64-2.36-10.42-5.7-5.28,4.45-12.36,7.64-20.7,7.64-12.09,0-17.36-6.95-17.36-15.42,0-13.61,13.47-31.12,34.45-31.12,5.83,0,9.17,2.36,9.17,4.45,0,1.53-1.81,2.92-5.83,3.33-1.25-4.17-4.45-4.72-7.64-4.72-8.47,0-13.61,12.5-13.61,22.92,0,7.36,2.64,13.61,8.47,13.61,4.31,0,8.06-1.39,11.11-3.75Zm6.25-6.95c3.06-4.72,4.58-10,4.58-13.75,0-2.92-.83-4.86-2.78-4.86-1.67,0-2.64,4.31-2.64,9.72,0,2.92.28,5.97.83,8.89Z"/>
        <path class="cls-1" d="m314.23,112.52c0-2.5,2.36-4.72,7.92-5.83,1.39,4.31,4.86,6.39,8.2,6.39,4.17,0,8.06-3.06,8.06-8.61,0-10.7-18.06-10.14-18.06-19.73,0-8.61,14.45-14.45,25.14-14.45,6.25,0,11.11,1.95,11.11,6.53,0,1.94-2.22,3.89-7.5,4.58-1.39-4.03-6.39-6.11-10.83-6.11s-8.2,1.95-8.2,6.11c0,3.89,9.58,6.39,17.64,9.86,6.95,3.06,10.14,6.67,10.14,10.56s-3.33,8.33-9.86,12.22c0,0,20.7-5,28.2-19.03l4.58-8.47,2.64.69-4.45,8.33c-8.47,15.84-32.09,24.87-50.98,24.87-8.06,0-13.75-4.17-13.75-7.92Z"/>
        <path class="cls-1" d="m419.11,78.49c2.22,0,4.45.42,6.39,1.25,0,1.53-.14,2.92-.14,4.31,0,16.95,4.72,25.14,11.39,25.14,5.14,0,11.25-4.72,17.5-13.89,1.81-2.78,3.33-5.83,4.72-8.75l2.64.69c-1.25,2.78-2.78,5.7-4.58,8.47-8.2,12.5-19.31,20.7-28.76,20.7s-17.64-8.47-19.17-29.59c-6.53,5.97-11.39,27.37-14.72,31.67,0,0-1.95.83-4.17.83-8.89,0-15.14-21.81-15.14-29.03s4.17-15.14,14.03-15.14c1.81,0,4.03.28,6.25.97-2.78,11.25-3.47,21.67-3.47,28.62,0,5.42.42,7.36.97,7.36.83,0,2.08-4.45,2.92-6.67,4.86-14.03,9.03-26.95,23.34-26.95Z"/>
        <path class="cls-1" d="m483.43,108.21c-2.36-4.17-3.61-9.31-3.61-13.89,0-7.22,3.2-13.2,10.7-13.2,4.58,0,6.81,3.33,6.81,7.92,0,4.86-2.36,10.97-6.53,16.39,1.53,4.17,3.75,7.22,7.22,7.22,5.83,0,13.48-5.97,20.98-17.36,1.81-2.78,3.33-5.83,4.72-8.75l2.64.69c-1.25,2.78-2.78,5.7-4.58,8.47-8.61,13.2-18.48,21.25-25.98,21.25-4.17,0-7.64-2.36-10.42-5.7-5.28,4.45-12.36,7.64-20.7,7.64-12.08,0-17.36-6.95-17.36-15.42,0-13.61,13.48-31.12,34.45-31.12,5.83,0,9.17,2.36,9.17,4.45,0,1.53-1.81,2.92-5.83,3.33-1.25-4.17-4.45-4.72-7.64-4.72-8.47,0-13.61,12.5-13.61,22.92,0,7.36,2.64,13.61,8.47,13.61,4.31,0,8.06-1.39,11.11-3.75Zm6.25-6.95c3.06-4.72,4.58-10,4.58-13.75,0-2.92-.83-4.86-2.78-4.86-1.67,0-2.64,4.31-2.64,9.72,0,2.92.28,5.97.83,8.89Z"/>
      </g>
      <path class="cls-2" d="m55.37,44.53v-14.07s-.8.32-2.68-1.79c-1.87-2.12-2.04-3.86-2.16-5.38-.42-5.12,1.1-12.79,1.1-12.79.07-.8.58-1.4,1.19-1.4h1.04c.61,0,1.12.6,1.19,1.4l1.1,12.79c.16.22.58.25.8,0l1.1-12.79c.07-.8.58-1.4,1.19-1.4h1.04c.61,0,1.12.6,1.19,1.4l1.1,12.79c.09.17.7.19.8,0l1.1-12.79c.07-.8.58-1.4,1.19-1.4h1.04c.61,0,1.12.6,1.19,1.4,0,0,1.52,7.67,1.1,12.79-.13,1.51-.29,3.26-2.16,5.38-1.87,2.12-2.68,1.79-2.68,1.79v14.07c0,1.33-.82,2.41-1.83,2.41h-5.07c-1.01,0-1.83-1.08-1.83-2.41Z"/>
      <path class="cls-2" d="m64.1,93.14v14.07s.8-.32,2.68,1.79,2.04,3.86,2.16,5.38c.42,5.12-1.1,12.79-1.1,12.79-.07.8-.58,1.4-1.19,1.4h-1.04c-.61,0-1.12-.6-1.19-1.4l-1.1-12.79c-.16-.22-.58-.25-.8,0l-1.1,12.79c-.07.8-.58,1.4-1.19,1.4h-1.04c-.61,0-1.12-.6-1.19-1.4l-1.1-12.79c-.09-.17-.7-.19-.8,0l-1.1,12.79c-.07.8-.58,1.4-1.19,1.4h-1.04c-.61,0-1.12-.6-1.19-1.4,0,0-1.52-7.67-1.1-12.79.13-1.51.29-3.26,2.16-5.38,1.87-2.12,2.68-1.79,2.68-1.79v-14.07c0-1.33.82-2.41,1.83-2.41h5.07c1.01,0,1.83,1.08,1.83,2.41Z"/>
      <path class="cls-2" d="m35.42,73.2h-14.07s.32.8-1.79,2.68-3.86,2.04-5.38,2.16c-5.12.42-12.79-1.1-12.79-1.1C.6,76.88,0,76.37,0,75.76v-1.04c0-.61.6-1.12,1.4-1.19l12.79-1.1c.22-.16.25-.58,0-.8l-12.79-1.1C.6,70.48,0,69.96,0,69.36v-1.04c0-.61.6-1.12,1.4-1.19l12.79-1.1c.17-.09.19-.7,0-.8l-12.79-1.1C.6,64.07,0,63.56,0,62.95v-1.04c0-.61.6-1.12,1.4-1.19,0,0,7.67-1.52,12.79-1.1,1.51.13,3.26.29,5.38,2.16,2.12,1.87,1.79,2.68,1.79,2.68h14.07c1.33,0,2.41.82,2.41,1.83v5.07c0,1.01-1.08,1.83-2.41,1.83Z"/>
      <path class="cls-2" d="m84.04,64.47h14.07s-.32-.8,1.79-2.68c2.12-1.87,3.86-2.04,5.38-2.16,5.12-.42,12.79,1.1,12.79,1.1.8.07,1.4.58,1.4,1.19v1.04c0,.61-.6,1.12-1.4,1.19l-12.79,1.1c-.22.16-.25.58,0,.8l12.79,1.1c.8.07,1.4.58,1.4,1.19v1.04c0,.61-.6,1.12-1.4,1.19l-12.79,1.1c-.17.09-.19.7,0,.8l12.79,1.1c.8.07,1.4.58,1.4,1.19v1.04c0,.61-.6,1.12-1.4,1.19,0,0-7.67,1.52-12.79,1.1-1.51-.13-3.26-.29-5.38-2.16s-1.79-2.68-1.79-2.68h-14.07c-1.33,0-2.41-.82-2.41-1.83v-5.07c0-1.01,1.08-1.83,2.41-1.83Z"/>
      <g>
        <path class="cls-1" d="m270.66,46.94l-9-8.94h-.87v8.94h-2.88v-22.71h4.53c3.9,0,8.94,1.17,8.94,6.72,0,3.66-2.58,6.36-6.54,6.9l9.87,9.09h-4.05Zm-8.25-11.49c3.9,0,5.97-1.89,5.97-4.47,0-2.85-2.01-4.17-5.37-4.17h-2.22v8.64h1.62Z"/>
        <path class="cls-1" d="m290.25,45.11c-.84,1.11-3.18,2.25-6.21,2.25-4.5,0-7.74-3.06-7.74-7.71s3.09-7.86,7.59-7.86,6.81,3.63,6.81,7.53v.78h-11.73c0,.36.06.72.09.9.54,2.97,2.91,4.17,5.55,4.17,2.46,0,4.05-1.11,4.71-1.83l.93,1.77Zm-2.22-7.2c-.39-2.25-1.62-3.96-4.2-3.96-2.22,0-4.17,1.2-4.77,3.96h8.97Z"/>
        <path class="cls-1" d="m307.44,45.39c-1.29,1.11-3.48,1.98-6.51,1.98-4.41,0-6.42-2.55-6.42-5.34,0-3.36,3.42-4.77,6.09-4.77,1.41,0,3.09.39,4.29,1.44v-1.83c0-1.62-1.23-2.82-3.66-2.82-1.92,0-3.6.63-4.11.87l-.87-1.98c1.14-.51,2.85-1.14,5.13-1.14,4.83,0,6.06,2.28,6.06,5.7v7.89Zm-2.55-4.38c-.78-.69-2.16-1.5-3.93-1.5-2.49,0-3.72,1.29-3.72,2.73s1.32,2.88,3.87,2.88c1.62,0,2.91-.42,3.78-1.02v-3.09Z"/>
        <path class="cls-1" d="m324.03,22.35h2.64v23.1c-1.92,1.32-4.14,1.92-6.27,1.92-4.14,0-8.1-2.52-8.1-7.59,0-4.77,3.15-7.98,7.62-7.98,1.47,0,3.03.45,4.11,1.35v-10.8Zm0,13.47c-.75-1.05-2.4-1.74-4.02-1.74-2.97,0-4.92,2.19-4.92,5.7s2.49,5.37,5.31,5.37c1.05,0,2.46-.24,3.63-1.02v-8.31Z"/>
        <path class="cls-1" d="m331.74,54.68l4.95-9.24-6.12-13.26h2.94l4.59,10.41,5.01-10.41h2.97l-11.46,22.5h-2.88Z"/>
        <path class="cls-1" d="m346.8,50.19l2.37-6.36h2.91l-3.3,6.36h-1.98Z"/>
        <path class="cls-1" d="m367.2,42.23c.99,1.08,2.94,2.55,5.85,2.55,2.55,0,4.29-1.44,4.29-3.69,0-5.94-10.35-4.5-10.35-11.43,0-3.87,3.21-5.91,6.72-5.91,3.09,0,5.34,1.71,5.97,2.37l-1.5,2.1c-1.05-1.02-2.61-1.89-4.44-1.89-1.95,0-3.75.99-3.75,3.12,0,4.89,10.44,3.57,10.44,11.61,0,3.21-2.79,6.33-7.62,6.33-3.18,0-6.15-1.8-7.17-3.06l1.56-2.1Z"/>
        <path class="cls-1" d="m398.73,45.11c-.84,1.11-3.18,2.25-6.21,2.25-4.5,0-7.74-3.06-7.74-7.71s3.09-7.86,7.59-7.86,6.81,3.63,6.81,7.53v.78h-11.73c0,.36.06.72.09.9.54,2.97,2.91,4.17,5.55,4.17,2.46,0,4.05-1.11,4.71-1.83l.93,1.77Zm-2.22-7.2c-.39-2.25-1.62-3.96-4.2-3.96-2.22,0-4.17,1.2-4.77,3.96h8.97Z"/>
        <path class="cls-1" d="m405.3,46.94v-12.54h-2.73v-2.19h2.73v-5.13h2.64v5.13h3.63v2.19h-3.63v12.54h-2.64Z"/>
        <path class="cls-1" d="m413.58,50.19l2.37-6.36h2.91l-3.3,6.36h-1.98Z"/>
        <path class="cls-1" d="m439.08,46.94v-9.75l-7.86-12.96h3.24l5.94,10.2c.09.18.15.33.18.75.03-.42.12-.57.21-.75l6-10.2h3.18l-8.01,12.96v9.75h-2.88Z"/>
        <path class="cls-1" d="m461.43,32.19h2.67v13.11c-1.59,1.41-3.63,2.07-6.33,2.07-3.75,0-6.42-1.89-6.42-5.7v-9.48h2.67v8.88c0,2.97,1.68,4.08,3.93,4.08,1.8,0,2.88-.6,3.48-1.02v-11.94Z"/>
        <path class="cls-1" d="m488.82,46.94v-9.51c0-2.31-.99-3.24-2.88-3.24-1.68,0-3.18,1.11-3.84,1.8v10.95h-2.64v-9.57c0-2.34-1.08-3.18-2.97-3.18-1.65,0-3.15,1.17-3.75,1.83v10.92h-2.64v-14.76h2.64v1.59c.75-.69,2.49-1.98,4.8-1.98s3.3,1.23,3.87,2.25c1.11-.93,3.09-2.25,5.34-2.25,2.94,0,4.71,1.65,4.71,5.31v9.84h-2.64Z"/>
        <path class="cls-1" d="m516.12,46.94v-9.51c0-2.31-.99-3.24-2.88-3.24-1.68,0-3.18,1.11-3.84,1.8v10.95h-2.64v-9.57c0-2.34-1.08-3.18-2.97-3.18-1.65,0-3.15,1.17-3.75,1.83v10.92h-2.64v-14.76h2.64v1.59c.75-.69,2.49-1.98,4.8-1.98s3.3,1.23,3.87,2.25c1.11-.93,3.09-2.25,5.34-2.25,2.94,0,4.71,1.65,4.71,5.31v9.84h-2.64Z"/>
        <path class="cls-1" d="m523.56,54.68l4.95-9.24-6.12-13.26h2.94l4.59,10.41,5.01-10.41h2.97l-11.46,22.5h-2.88Z"/>
        <path class="cls-1" d="m543.63,47.33c-.99,0-1.86-.93-1.86-1.86,0-1.05.87-1.89,1.86-1.89,1.11,0,1.92.84,1.92,1.89,0,.93-.84,1.86-1.92,1.86Zm-.96-6.6l-.69-16.5h3.3l-.69,16.5h-1.92Z"/>
      </g>
      <path class="cls-1" d="m51.42,60.53h11.57c2.79,0,5.05,2.26,5.05,5.05v11.57h-11.57c-2.79,0-5.05-2.26-5.05-5.05v-11.57h0Z" transform="translate(66.17 -22.07) rotate(45)"/>
      <path class="cls-1" d="m26.42,86.71h4.21c6.2,0,11.23,5.03,11.23,11.23v4.21h-4.21c-6.2,0-11.23-5.03-11.23-11.23v-4.21h0Z" transform="translate(128.57 60.29) rotate(90)"/>
      <path class="cls-1" d="m77.6,35.52h4.21c6.2,0,11.23,5.03,11.23,11.23v4.21h-4.21c-6.2,0-11.23-5.03-11.23-11.23v-4.21h0Z" transform="translate(128.57 -42.08) rotate(90)"/>
      <path class="cls-1" d="m77.6,86.71h4.21c6.2,0,11.23,5.03,11.23,11.23v4.21h-4.21c-6.2,0-11.23-5.03-11.23-11.23v-4.21h0Z"/>
      <path class="cls-1" d="m26.42,35.52h4.21c6.2,0,11.23,5.03,11.23,11.23v4.21h-4.21c-6.2,0-11.23-5.03-11.23-11.23v-4.21h0Z"/>
    </g>
  </g>
</svg>