<?xml version="1.0" encoding="utf-8"?>
<!-- Generator: Adobe Illustrator 27.6.1, SVG Export Plug-In . SVG Version: 6.00 Build 0)  -->
<svg version="1.1" id="Layer_2_00000163782119038687368440000011777387205521028740_"
	 xmlns="http://www.w3.org/2000/svg" xmlns:xlink="http://www.w3.org/1999/xlink" x="0px" y="0px" viewBox="0 0 141.9 28.4"
	 style="enable-background:new 0 0 141.9 28.4;" xml:space="preserve">
<style type="text/css">
	.st0{fill:#CE181E;}
	.st1{fill:#FFFFFF;}
</style>
<g id="Layer_1-2">
	<g id="lKtvhy">
		<g>
			<path class="st0" d="M92.4,28.3V0h33.3c-5.9,4.7-11.7,9.3-17.5,13.9c0.8,1,2,1.6,2.9,2.5c0.9,0.8,2,1.5,3,2.3
				c1,0.8,2,1.6,3.1,2.4c1.1,0.8,2,1.7,3,2.5c1,0.7,1.9,1.6,2.9,2.3c1.1,0.7,2,1.6,3,2.5L92.4,28.3L92.4,28.3z"/>
			<path class="st0" d="M141.8,28.4H134c-6-4.7-12-9.5-18.1-14.3c0.7-0.6,1.5-1.3,2.3-2c0.5-0.4,1.1-0.7,1.6-1.1
				c1-0.8,1.9-1.8,3-2.5c1.3-0.9,2.5-2,3.8-2.9c1-0.7,1.9-1.7,2.9-2.4c1-0.7,1.9-1.6,3-2.3c0.4-0.2,0.6-0.6,0.9-0.9h8.1
				c-5.9,4.7-11.7,9.3-17.5,13.9c0.2,0.2,0.3,0.4,0.4,0.5c1.6,1.3,3.2,2.6,4.8,3.9c1.5,1.2,3,2.3,4.5,3.5c1.6,1.3,3.2,2.5,4.8,3.9
				c1.1,0.9,2.2,1.7,3.4,2.5C141.8,28.2,141.8,28.3,141.8,28.4L141.8,28.4z"/>
			<path class="st1" d="M84.6,0.4V1c-0.7,1-1.7,1.6-2.8,2.1c-1,0.5-1.9,0.9-2.9,1.4v4.7c0.2,0.2,0.4,0.4,0.6,0.6
				c0.1-0.1,0.2-0.2,0.3-0.2c0.8,0.1,0.9-0.6,1-1.1c0.1-0.5,0.2-1,0.2-1.6c0-0.5,0-1,0-1.5c0.7-0.5,1.2-0.8,1.7-0.8
				C82.6,5,82.6,5.6,82.4,6c-0.2,0.4-0.2,0.8-0.2,1.1c0,0.8-0.2,1.7-0.5,2.4c-0.5,1.1-1.4,1.9-2.8,1.8c-0.2,0-0.5,0-0.7,0
				c-0.8-0.4-0.8-1.2-1.1-1.8c-0.3,0.3-0.5,0.5-0.6,0.6c-0.6,0-0.9,0-1.2,0c-0.5,0.1-0.9-0.1-1.3-0.3c-0.5-0.4-1-0.4-1.6-0.4
				c-0.1,0.1-0.2,0.2-0.3,0.3c0.2,0.2,0.5,0.4,0.7,0.6V12c-1.3,0.9-2,1.2-3.5,0.1c-0.6,0.5-1.3,0.7-2,0.7c-0.9,0.9-1.9,1.1-3.1,0.9
				c0,0-0.1-0.1-0.2-0.1c-0.8-0.3-1.1-0.9-1.1-1.8c0-2.1,0-4.1,0-6.1c0.5-0.5,0.9-0.9,1.4-1.4c0,0.2,0,0.5,0,0.8c0,1.8,0,3.6,0,5.3
				c0,0.6,0.1,1.1,0.6,1.6c1.1,0.1,2.1-0.3,2.9-1.2c0.3,0.1,0.5,0.2,0.8,0.3c0.5-0.4,1-0.8,1.6-0.7c1-1.1,1.9-2.2,3.4-2.8
				c0.5-0.1,1.1,0.1,1.7,0.6c0.3,0.3,0.9,0.4,1.4,0.6c0.3-0.3,0.7-0.6,1-1c0-0.9,0-1.8,0-2.7c0-0.3,0.1-0.7,0.2-0.9
				c0.5-0.5,0.9-1.1,1.6-1.5C80.9,2,82.5,1.2,84,0.5C84.1,0.4,84.3,0.5,84.6,0.4L84.6,0.4z"/>
			<path class="st1" d="M20.3,11.9c0.4-0.1,0.8-0.1,1.2-0.2c0.7-0.2,1.5-0.3,2.1-0.9c-0.1-0.1-0.2-0.2-0.4-0.4h-1.5
				c0.1-0.8,0.7-1.4,1.2-1.8c0.9-0.7,2.1-0.7,3.2-0.6c0.3,0.2,0.7,0.5,1,0.7v1.1c-0.1,0.1-0.3,0.2-0.5,0.4c0.1,0.1,0.1,0.2,0.2,0.4
				c0.2,0.3,0.6,0.3,0.8,0.2c0.7-0.2,1.3-0.6,2.1-0.9c0.6,0,1.3-0.1,1.9,0.6c0.5-0.4,0.9-0.7,1.5-1.1c0.3,0.1,0.8,0.2,1.3,0.3
				c0.3-0.3,0.7-0.7,1-1c0.4,0.2,0.7,0.5,1.1,0.7c0.1-0.2,0.2-0.5,0.3-0.7c0.1-0.3,0.5-0.7,0.3-1.2c-0.2-0.5,0-1.1,0-1.7V4.1
				c0.5-0.4,0.9-1,1.6-1.4c0,0.4,0,0.7,0.1,1c0,0.7-0.1,1.4,0,2c0.1,0.9-0.3,1.8-0.2,2.7c-0.5,1-0.7,2.4-2.3,2.4
				c-0.1,0-0.2,0.1-0.2,0.2c-0.5-0.2-1-0.4-1.5-0.5c-0.6,0.4-1.2,1.1-2,0.6c-0.5,0.2-1,0.6-1.6,0.6c-0.5,0-1-0.3-1.7-0.4
				c-0.6,0.4-1.3,0.8-2.1,1.2h-1.3c-0.6-0.3-1.1-0.5-1.6-0.8c-0.7,0.5-1.3,1-2.1,1.3c-0.7,0.2-1.5,0.5-2.1,0.7
				c-0.8,1.7-2.1,2.5-3.8,2.8c-0.4,0-0.7,0.2-1.1,0.2c-0.3,0.1-0.6,0-1,0.2c-0.6,0.3-1.2-0.2-2.1-0.3c0.5-0.3,0.8-0.5,1.1-0.6
				c1.2-0.2,2.2-0.7,3.3-1.1c0.8-0.3,1.4-0.7,2.3-1.3c-1.2,0.2-2-0.2-2.6-0.8v-0.8c0.7-0.6,1.5-1.3,2.3-1.9h0.7
				C19.6,10.6,20.1,11,20.3,11.9L20.3,11.9z"/>
			<path class="st1" d="M61.7,22c0.4-0.2,0.7-0.3,1-0.5c0.4-0.1,0.9,0.2,1.3-0.2c0.5,0.1,1,0.3,1.5,0.5c0,0.1,0,0.3,0.1,0.3
				c0.6,0.5,0.6,1.2,0.7,1.8c0.1,1.3,0,2.6,0,3.8c-0.4,0.6-1.1,0.3-1.6,0.4c-0.2-1.8,0.3-3.6-0.6-5.3c-0.6,0.1-1.2,0.2-1.8,0.3v5
				h-1.4c0,0-0.1-0.2-0.3-0.4v-4.2c-0.2-0.1-0.4-0.3-0.8-0.6c-0.3,0-0.8,0.1-1.3,0.2v5h-1.7v-6.5h1.6c0,0.1,0.1,0.2,0.1,0.3
				c0.1,0,0.1,0,0.2,0c0.4-0.4,0.9-0.4,1.4-0.4c0.4,0,0.8,0,1.3,0C61.4,21.6,61.6,21.8,61.7,22L61.7,22z"/>
			<path class="st1" d="M45.2,10.4c0,0,0.3-0.1,0.4,0c0.7,0.4,1.5,0.6,2.3,0.8c1.6,0.4,2.5,0.4,4.2,0.2c1.2-0.1,2.2-0.5,3.3-1
				c0.5-0.2,0.9-0.6,1.4-0.9c0.5-0.4,1.2-0.4,1.7,0c0.4,0.3,0.8,0.1,1.2,0.2c0.5-0.6,1-1.1,1.4-1.7c0.1,0.2,0.2,0.4,0.3,0.6
				c-0.5,0.3,0,1-0.4,1.5c-0.3,0.4-0.8,0.8-1.1,1.3c-0.9-0.1-1.8,0.2-2.7-0.3c-0.4,0.3-0.7,0.5-1.1,0.8c-0.2,0.2-3.6,1.4-3.9,1.4
				c-0.3,0-0.5,0-0.8,0c-0.9,0-1.8-0.1-2.7,0c-1.1,0.1-2.1-0.2-3.1-0.5c-0.8-0.2-0.8-0.2-1.5,0c-0.5,0.6-0.5,1.4-1.2,1.9h-0.5
				c-0.1-0.2-0.2-0.4-0.3-0.6C42.8,12.6,43.6,11.3,45.2,10.4L45.2,10.4z"/>
			<path class="st1" d="M27.5,28.2c-0.6-0.1-1.3,0.2-1.8-0.3c-0.8,0.5-1.7,0.1-2.5,0.2c-1-0.4-1.2-1.1-1.4-2c-0.2-0.8-0.3-1.5,0-2.3
				c0.1-0.2,0-0.5,0-0.9c0.4-0.5,0.8-0.9,1.3-1.4h2.7V19h1.7L27.5,28.2L27.5,28.2z M25.9,26.5c0-0.6,0-1.2,0-1.8c0-0.6,0-1.2,0-1.8
				h-1.8c-0.2,0.2-0.4,0.4-0.5,0.5v2.7c0.2,0.2,0.4,0.4,0.6,0.6C24.7,26.7,25.2,26.6,25.9,26.5z"/>
			<path class="st1" d="M0.6,27.7c0.1-0.4,0.1-0.8,0.2-1.2c0.3,0,0.7,0,1.2,0.1c0.6,0.2,1.2,0.2,1.8,0.1c0.3,0,0.7-0.3,1-0.5v-1.3
				c-0.4-0.2-0.9-0.4-1.4-0.6c-1.9-0.6-1.9-0.6-2.9-1.8v-1.9c0.6-1.1,1.5-1.6,2.8-1.5c0.2,0,0.3,0,0.5,0c0.9,0,1.8-0.1,2.7,0.4
				c-0.1,0.3,0.2,0.8-0.4,1.3c-1.1-0.1-2.3-0.6-3.6,0.1c-0.1,0.2-0.2,0.4-0.3,0.6c0.1,0.2,0.2,0.4,0.3,0.6c1.2,0.5,2.4,1,3.5,1.4
				c0.8,1.1,0.9,2.2,0.3,3.5C6,27.3,5.4,27.8,5,28.2C3.5,28,1.9,28.5,0.6,27.7z"/>
			<path class="st1" d="M46.6,23.3l-0.4-0.4c-0.6,0.1-1.2-0.2-1.8,0.3v4.9h-1.6c-0.1-1.5,0-3,0-4.5c0-1.5,0-3.1,0-4.6h1.7v2.8
				c0.4-0.1,0.8-0.2,1.1-0.2c0.4,0,0.7-0.3,1.1,0c0.3,0.2,0.7,0.2,1,0.2c0.8,1,0.9,2.1,0.8,3.3c0,0.9,0,1.9,0,2.8
				c-0.3,0.2-0.9,0.3-1.6,0.3c-0.1-0.1-0.2-0.2-0.3-0.3L46.6,23.3L46.6,23.3z"/>
			<path class="st1" d="M8.2,22.9C8.1,22.5,8,22.3,7.9,22c0.2-0.1,0.5-0.3,0.8-0.5c0.8,0,1.6,0,2.5,0c0.5,0,0.9,0.2,1.3,0.5
				c0.4,0.3,0.3,0.9,0.6,1.3c0,0.1,0,0.1,0,0.2c0,0.8,0,1.6,0,2.4c0.1,0.7,0.2,1.4,0.3,2.2c-0.6-0.1-1.1,0.2-1.6-0.2
				c-0.1-0.1-0.4-0.1-0.6,0c-0.8,0.5-1.7,0.1-2.6,0.3c-0.4-0.4-0.7-0.7-1-1v-2c0.3-0.3,0.6-0.5,0.8-0.8c0.4-0.1,0.9-0.2,1.3-0.2
				c0.4,0,0.9,0,1.3,0c0.1-0.1,0.2-0.2,0.3-0.3c-0.1-0.1-0.1-0.3-0.2-0.4c0-0.1,0-0.3,0-0.5L8.2,22.9L8.2,22.9z M9.9,27
				c0.6-0.2,1.1-0.3,1.5-0.5c-0.1-0.3-0.2-0.4-0.2-0.6c0-0.2,0.1-0.4,0.2-0.6c-0.7,0-1.5-0.2-2.1,0.4v0.7C9.5,26.6,9.7,26.8,9.9,27
				L9.9,27z"/>
			<path class="st1" d="M41.3,19.4v1.3c-0.3,0-0.6,0-1-0.1c-0.8-0.3-1.7-0.1-2.5,0.2c-0.4,0.2-0.6,0.7-0.6,1.1c0,1.2,0,2.4,0,3.6
				c0.5,0.8,1,1.1,1.9,1.1c0.5,0,0.9,0.1,1.3-0.2c0.1-0.1,0.5,0,0.8,0c-0.1,0.6,0.2,1.2-0.4,1.7c-0.9,0-1.9-0.1-2.8,0
				c-0.7,0.1-1.1-0.4-1.7-0.5c-0.2,0-0.3-0.3-0.4-0.4c-0.4-0.8-0.8-1.7-0.7-2.7c0.1-0.7,0-1.4,0-2.1c-0.1-1,0.4-1.7,0.8-2.5
				c0.3-0.6,1-0.7,1.6-0.8c0.9-0.1,1.8,0,2.7,0C40.8,19.2,41,19.3,41.3,19.4L41.3,19.4z"/>
			<path class="st1" d="M51.6,21.5c0.3,0,0.7-0.1,1.3-0.2c0,0,0.2,0.1,0.5,0.2c1.3,0.2,2,1,2,2.3c0,0.5,0,1.1,0,1.7h-3.7
				c-0.3,0.6,0.2,0.8,0.5,1.2h2.9v1.1c-1.2,0.6-2.5,0.1-3.8,0.3c-0.3-0.2-0.5-0.4-0.9-0.7c-0.1-0.2-0.3-0.7-0.5-1.1
				c-0.5-1.1-0.2-2.3,0-3.3C50.1,22.4,50.7,21.8,51.6,21.5L51.6,21.5z M51.6,23.2v1.1h2v-1.2c-0.3-0.2-0.7-0.4-1-0.5
				C52.3,22.8,52,23,51.6,23.2L51.6,23.2z"/>
			<path class="st1" d="M76.8,25.2c0.3-0.3,0.6-0.5,0.8-0.8c0.4-0.1,0.9-0.2,1.3-0.2c0.4,0,0.9,0,1.4,0c0.1-0.4,0.2-0.8-0.4-1.2
				h-2.6c-0.1-0.1-0.3-0.2-0.3-0.4c-0.1-0.1,0-0.3,0-0.5c0.2-0.2,0.4-0.4,0.6-0.6c0.8,0,1.7,0,2.5,0c0.9,0,1.6,0.2,1.9,1.2
				c0,0.7,0,1.5,0,2.3c0,0.7-0.1,1.4,0.4,2c0.2,0.2,0.1,0.7,0.1,1.1c-0.6-0.1-1.1,0.2-1.6-0.2c-0.1-0.1-0.4-0.1-0.6,0
				c-0.9,0.5-1.8,0.1-2.8,0.3c-0.3-0.4-0.6-0.8-0.8-1.1L76.8,25.2L76.8,25.2z M79,26.9c0.5-0.1,0.9-0.2,1.2-0.3v-1.3h-1.5
				c-0.1,0.1-0.2,0.2-0.3,0.3v1C78.6,26.7,78.8,26.8,79,26.9z"/>
			<path class="st1" d="M14.8,21.5h1.6v4.6c0.2,0.2,0.4,0.4,0.7,0.7c0.4-0.1,1-0.2,1.5-0.3v-4.6c0.5-0.6,1-0.3,1.5-0.4
				c0.1,0.1,0.2,0.2,0.4,0.4v5.9c-0.1,0.1-0.2,0.2-0.4,0.3c-0.4-0.1-0.9,0.2-1.4-0.2c-0.1-0.1-0.2-0.1-0.3,0
				c-0.8,0.5-1.7,0.1-2.6,0.3c-0.4-0.4-0.7-0.9-1-1.3L14.8,21.5L14.8,21.5z"/>
			<path class="st1" d="M75.5,22.9h-2.2c-0.2,0.2-0.4,0.4-0.6,0.6c0.1,0.9-0.2,1.9,0.2,2.8c0.4,0.2,0.7,0.4,1.2,0.4
				c0.4,0,0.9,0,1.3,0c0.1,0.2,0.2,0.4,0.4,0.7c-0.1,0.1-0.2,0.2-0.2,0.3c-0.1,0.1-0.1,0.2-0.1,0.4h-3.1c-1.1-0.7-1.5-1.8-1.6-2.9
				c-0.1-1.1,0.2-2.1,0.8-3.1c0.2-0.1,0.5-0.3,0.8-0.5c0.3,0,0.8-0.1,1.3-0.2c0.5,0.1,1.2,0.1,1.8,0.2c0.1,0.2,0.2,0.4,0.3,0.6
				C75.7,22.4,75.6,22.7,75.5,22.9L75.5,22.9z"/>
			<path class="st1" d="M9.1,9.4c0.2,0.2,0.3,0.3,0.5,0.5c-0.1,0.3-0.2,0.6-0.4,1c-0.6,1.1-1.5,1.8-2.6,2.2
				c-0.6,0.2-1.2-0.1-1.8-0.3c-0.5-0.1-1-0.2-1.5-0.2c-1.2,0.4-1.7,1.8-3,2.1c-0.1-0.1-0.2-0.3-0.4-0.4c0.7-1.8,2.1-2.8,3.8-3.6
				c0.7-0.1,1.5,0,2.2,0.4c0.7,0.3,1.2,0.1,1.8-0.4C8.2,10.2,8.7,9.8,9.1,9.4z"/>
			<path class="st1" d="M83.9,18.9h1.6v9.2h-1.6V18.9z"/>
			<path class="st1" d="M13.8,12.1c-0.6-0.6-1.1-1.1-1.6-1.6c0.3-0.6,0.4-1.2,1.4-1.2c0.6,0.2,1.1,0.8,1.6,1.7c0,1.4-0.8,2.4-2,3.1
				c-1,0.6-2,1-3.2,1c-0.7,0-1.3,0.4-2.1,0.7c0.1-0.3,0.1-0.6,0.2-0.8c0.4-0.5,1-0.8,1.6-0.9c1-0.2,1.9-0.7,2.7-1.1
				C13.2,12.9,13.4,12.5,13.8,12.1z"/>
			<path class="st1" d="M84.9,11.1c-0.5-0.2-0.7-0.6-0.5-0.8c0.3-0.4,0.2-0.7,0.2-1.1c0-1.2,0-2.4,0-3.5c0-0.8,0.2-1.3,0.8-1.8
				c0.2-0.2,0.4-0.4,0.5-0.6c0.6,0.1,0.8,0.5,0.6,0.8c-0.3,0.4-0.2,0.7-0.2,1.1c0,0.9,0,1.9,0,2.8C86.3,9.2,85.9,10.3,84.9,11.1z"/>
			<path class="st1" d="M29.3,21.5h1.6v6.6h-1.6C29.3,28.1,29.3,21.5,29.3,21.5z"/>
			<path class="st1" d="M68,21.5h1.3c0.1,0.1,0.2,0.2,0.3,0.3v6c-0.1,0.1-0.2,0.2-0.3,0.3H68C68,28.1,68,21.5,68,21.5z"/>
			<path class="st1" d="M16.9,7.2c0-0.4,0.2-0.5,0.5-0.7c1.2-0.6,2.5-1.2,3.7-1.9c0.2-0.1,0.3-0.2,0.5-0.3c-0.5-0.3-0.6-0.7-0.5-1.2
				c0.7-0.7,1.6-0.7,2.5-1c0.1,0,0.3,0.1,0.5,0.2c0.2,0.6,0,1.1-0.4,1.6c-0.7,0.8-1.5,1.3-2.5,1.8c-1.1,0.6-2.2,1-3.4,1.5
				C17.5,7.3,17.2,7.3,16.9,7.2L16.9,7.2z"/>
			<path class="st1" d="M41.2,10.1c-0.1-0.1-0.2-0.2-0.3-0.3v-4c0-0.4,0-0.8,0-1.2c0-1.2,0.3-1.5,1.7-2v1.9c0,0.9,0,1.8,0,2.7
				C42.5,8.3,42.3,9.4,41.2,10.1L41.2,10.1z"/>
			<path class="st1" d="M33.7,0.9c0.1,0.7-0.1,1.2-0.6,1.6c-1,1-2.2,1.6-3.5,2.2c-0.9,0.4-1.9,0.7-3,1.2c-0.1-0.2-0.2-0.4-0.3-0.7
				c0,0.1,0,0,0,0c1.1-0.5,2.2-0.9,3.2-1.5c0.5-0.3,1-0.5,1.5-0.8c-0.1-0.3-0.3-0.6-0.5-0.9c0.1-0.2,0.2-0.4,0.3-0.7
				c0.7-0.4,1.5-0.6,2.3-0.8C33.4,0.7,33.5,0.8,33.7,0.9L33.7,0.9z"/>
			<path class="st1" d="M3.5,17.3C2.7,17.2,1.8,17.1,1,17c-0.2-0.7,0-1.1,0.5-1.6c0.6,0.1,1.2-0.1,2,0.2c0.3-0.4,0.7-0.9,1.2-1.5
				c0.7,0.3,1.3,0.6,2,0.9c0,0.8-0.5,1.2-1.1,1.5c-0.5-0.1-1-0.2-1.4-0.3C3.9,16.6,3.7,16.9,3.5,17.3z"/>
			<path class="st1" d="M8.1,5c0,0.8-0.4,1.2-0.9,1.7C6.9,6.6,6.7,6.4,6.5,6.4c-0.3-0.1-0.6,0-0.8,0C5.4,6.7,5.2,7,4.9,7.3H3.3
				C3,7.1,2.7,7,2.4,6.8c0-0.2-0.1-0.4,0-0.5C2.6,6,2.8,5.7,3.1,5.4c0.5,0.1,1.1,0.2,1.8,0.3c0.4-0.4,0.9-0.9,1.3-1.4
				C6.9,4.5,7.5,4.8,8.1,5L8.1,5z"/>
			<path class="st1" d="M61,5.7c-0.2,0.4-0.3,0.7-0.5,1c-0.4,0.3-0.8,0.5-1.3,0.8c-0.7,0.4-1.4,0.7-2.2,0.7c-0.2,0-0.3-0.2-0.5-0.3
				c0.1-0.2,0.2-0.4,0.3-0.6C57.6,7,58.5,7,59.2,6.4c-0.2-0.4-0.4-0.8-0.6-1.2c0.7-0.9,1.2-2.1,2.7-2.2c-0.1,0.7-0.7,0.9-1,1.4
				c0.1,0.2,0.2,0.4,0.3,0.6C60.8,5.3,60.9,5.5,61,5.7L61,5.7z"/>
			<path class="st1" d="M70,15.1c-0.6,0.5-1,0.8-1.4,1.1c-0.4-0.2-0.8-0.4-1.1-0.5c-0.4,0.4-0.7,0.7-1,1c-0.7-0.1-1.2-0.2-1.6-0.3
				c-0.3-0.2-0.6-0.4-0.8-0.6c0.2-0.7,0.5-1.1,1.1-1.2c0.5,0.1,1,0.3,1.5,0.4c0.4-0.4,0.7-0.7,0.9-0.9C68.7,14.1,69.3,14.5,70,15.1
				L70,15.1z"/>
			<path class="st1" d="M56.8,14.7c-0.1,0.3-0.2,0.6-0.3,0.8c-0.7,0.3-1.3,0.5-1.9-0.1c-0.5,0.4-0.9,0.7-1.3,1
				c-0.5-0.1-1-0.1-1.4-0.2c-0.2-0.2-0.5-0.4-0.8-0.6c0.3-0.6,0.8-0.9,1.2-1.3c0.3,0.1,0.5,0.2,0.8,0.2s0.5,0.1,0.7,0.2
				c0.3-0.3,0.6-0.7,1-1C55.6,13.8,56.1,14.3,56.8,14.7L56.8,14.7z"/>
			<path class="st1" d="M75.7,12.2c0.7,0.3,1.2,0.6,1.8,0.9c0,0.1,0,0.2,0,0.4c-0.3,0.2-0.7,0.5-1.1,0.9c-0.2-0.1-0.7-0.3-1.1-0.5
				c-0.3,0.3-0.6,0.6-0.7,0.8c-1,0.5-1.6-0.3-2.2-0.1c-0.5-0.3-0.4-0.7-0.4-1.1c0.5-0.5,1-0.9,1.8-0.4c0.2,0.1,0.6,0,1.1,0
				C75.1,12.9,75.4,12.6,75.7,12.2L75.7,12.2z"/>
			<path class="st1" d="M48.3,3.9c0.5,0.2,0.9,0.3,1.3,0.4c0.2,0.2,0.4,0.4,0.6,0.6c-0.4,0.4-0.7,0.7-1.1,1.1
				c-0.3-0.1-0.7-0.3-1.2-0.5c-0.3,0.4-0.6,0.8-0.9,1.1c-0.6-0.1-1.1-0.2-1.8-0.4c-0.1-0.1-0.3-0.3-0.5-0.5C44.8,5.4,45,5,45.2,4.6
				c0.7,0.1,1.4,0.2,2.1,0.3C47.7,4.6,48,4.2,48.3,3.9L48.3,3.9z"/>
			<path class="st1" d="M32.5,6.6c-0.5,0.5-1.1,0.8-2,0.7c-0.1-0.1-0.2-0.3-0.5-0.8c0-0.4,0-1,0.8-1.3c0.1,0.4,0.2,0.8,0.3,1.3
				c0.5-0.4,0.9-0.7,1.5-1.1c0.2,0.1,0.6,0.1,1,0.2c0.3-0.2,0.7-0.4,1.1-0.7c0.1,0.8-0.3,1.3-0.8,1.7C33.4,6.6,32.9,6.6,32.5,6.6
				L32.5,6.6z"/>
			<path class="st1" d="M30.9,20.5h-1.6V19h1.6V20.5z"/>
			<path class="st1" d="M69.7,20.5H68v-1.6h1.3C69.9,19.4,69.5,20,69.7,20.5z"/>
		</g>
	</g>
</g>
</svg>
