<?xml version="1.0" encoding="UTF-8"?>
<svg xmlns="http://www.w3.org/2000/svg" viewBox="0 0 166.99 111.23">
  <defs>
    <style>
      .cls-1 {
        isolation: isolate;
      }

      .cls-1, .cls-2, .cls-3 {
        fill: none;
      }

      .cls-4 {
        fill: #00467f;
      }

      .cls-5 {
        fill: #fff;
      }

      .cls-6 {
        fill: #43b869;
      }

      .cls-7 {
        fill: #43b763;
      }

      .cls-8 {
        fill: #3e7ab0;
      }

      .cls-9 {
        fill: #5f9dca;
      }

      .cls-10 {
        fill: #5c9cce;
      }

      .cls-2, .cls-3 {
        mix-blend-mode: multiply;
      }

      .cls-3 {
        opacity: .7;
      }
    </style>
  </defs>
  <g class="cls-1">
    <g id="Layer_2" data-name="Layer 2">
      <g id="Layer_1-2" data-name="Layer 1">
        <g>
          <g>
            <g class="cls-2">
              <polygon class="cls-4" points="31.52 48.66 59.02 82.97 58.5 74.94 43.42 54.79 31.52 48.66"/>
            </g>
            <g class="cls-2">
              <polygon class="cls-9" points="33.5 48.89 61.19 83.83 58.2 58.65 77.58 42.3 33.5 48.89"/>
            </g>
            <g class="cls-2">
              <polygon class="cls-8" points="58.35 80.24 56.24 57.87 33.5 48.89 58.35 80.24"/>
            </g>
            <g class="cls-3">
              <polygon class="cls-9" points="65.15 50.42 48.63 52.91 57.37 56.36 57.37 56.36 65.15 50.42"/>
            </g>
            <g class="cls-2">
              <polygon class="cls-4" points="66.88 30.1 42.51 36.34 32.3 45 74.52 32.68 66.89 30.1 66.88 30.1"/>
            </g>
            <g class="cls-2">
              <polygon class="cls-10" points="44.01 0 33.27 43.26 76.13 31.01 51.72 24.15 44.01 0"/>
            </g>
            <g class="cls-2">
              <polygon class="cls-8" points="50.25 25.68 33.27 43.26 33.28 43.26 71.74 32.27 50.25 25.68"/>
            </g>
            <g class="cls-3">
              <polygon class="cls-9" points="46.77 14.6 42.77 30.81 49.29 24.05 46.77 14.6"/>
            </g>
            <g class="cls-2">
              <polygon class="cls-6" points="24.64 29.5 23.57 32.68 23.57 32.69 26.16 42.83 29.77 47.08 24.64 29.5"/>
            </g>
            <g class="cls-2">
              <polygon class="cls-7" points="23.94 28.83 21.09 39 11.03 42.2 29.05 46.68 23.94 28.83"/>
            </g>
            <g class="cls-2">
              <polygon class="cls-6" points="24.46 30.66 21.72 39.61 29.05 46.68 24.46 30.66"/>
            </g>
            <g class="cls-3">
              <polygon class="cls-6" points="21.05 40 17.11 41.06 23.86 42.72 21.05 40"/>
            </g>
            <g class="cls-2">
              <polygon class="cls-4" points="1.05 60.01 6.56 61.42 23.4 55.74 30.14 49.09 1.05 60.01"/>
            </g>
            <g class="cls-2">
              <polygon class="cls-9" points="0 61.27 17.56 64.81 24.27 81.42 29.55 50.37 0 61.27"/>
            </g>
            <g class="cls-2">
              <polygon class="cls-8" points="29.55 50.37 3.03 60.15 18.52 63.66 29.55 50.37"/>
            </g>
            <g class="cls-3">
              <polygon class="cls-9" points="19.28 64.75 21.55 71.28 23.52 59.64 19.28 64.75"/>
            </g>
          </g>
          <g>
            <path class="cls-5" d="m78.73,78.98c-.24.2-.56.37-.95.5-.39.13-.86.19-1.42.19-.51,0-.99-.05-1.43-.17-.44-.12-.82-.3-1.16-.55-.34-.25-.6-.57-.79-.96-.19-.39-.28-.86-.28-1.41h-2.53c.01.89.18,1.66.51,2.31.32.66.75,1.19,1.3,1.61.54.41,1.17.72,1.9.93.73.2,1.5.3,2.33.3.71,0,1.41-.09,2.1-.25.69-.17,1.3-.43,1.84-.8.54-.36.97-.83,1.31-1.41.33-.58.49-1.27.49-2.08,0-.38-.06-.76-.17-1.13-.12-.38-.29-.73-.53-1.07-.23-.33-.53-.62-.88-.88-.35-.25-.76-.46-1.23-.61-.19-.05-.5-.14-.94-.25-.44-.12-.89-.23-1.35-.35-.46-.12-.87-.24-1.24-.34-.37-.1-.58-.16-.64-.17-.51-.15-.93-.37-1.24-.66-.32-.29-.48-.69-.48-1.2,0-.37.08-.67.25-.91.17-.24.38-.43.64-.58.26-.14.54-.24.85-.31.31-.06.61-.09.91-.09.88,0,1.6.19,2.16.58.57.39.88,1.04.95,1.97h2.53c0-.75-.15-1.42-.45-1.99-.3-.57-.7-1.05-1.2-1.45-.51-.39-1.09-.68-1.76-.88-.67-.2-1.38-.29-2.14-.29-.65,0-1.29.09-1.92.25-.63.17-1.2.43-1.7.78-.5.35-.9.79-1.2,1.32-.3.54-.46,1.17-.46,1.9,0,.37.05.75.15,1.11.1.36.27.71.52,1.03.24.32.57.62.98.88.41.26.93.48,1.55.64,1,.27,1.84.49,2.52.66.68.17,1.28.35,1.79.53.3.11.57.29.82.56.25.26.38.67.38,1.23,0,.27-.06.54-.16.8-.11.26-.28.5-.53.69Z"/>
            <path class="cls-5" d="m92.4,79.51c.6.69,1.32,1.23,2.18,1.63.85.4,1.82.6,2.9.6s2.05-.2,2.9-.6c.86-.4,1.58-.94,2.18-1.63.59-.69,1.05-1.49,1.37-2.41.32-.92.47-1.89.47-2.94s-.16-1.99-.47-2.91c-.32-.92-.77-1.72-1.37-2.41-.59-.69-1.32-1.24-2.18-1.64-.86-.41-1.82-.61-2.9-.61s-2.05.2-2.9.61c-.86.4-1.58.95-2.18,1.64-.59.69-1.05,1.49-1.36,2.41-.32.92-.48,1.89-.48,2.91s.16,2.02.48,2.94c.32.92.77,1.72,1.36,2.41Zm.94-7.37c.17-.66.43-1.25.78-1.77.35-.52.81-.93,1.37-1.25.56-.31,1.23-.46,1.99-.46s1.43.16,1.99.46c.56.31,1.02.72,1.36,1.25.35.52.61,1.11.78,1.77.17.66.25,1.34.25,2.02s-.09,1.37-.25,2.02c-.17.66-.43,1.25-.78,1.77-.35.52-.81.94-1.36,1.25-.56.31-1.23.46-1.99.46s-1.44-.15-1.99-.46c-.56-.31-1.02-.72-1.37-1.25-.35-.52-.61-1.11-.78-1.77-.16-.66-.25-1.33-.25-2.02s.09-1.36.25-2.02Z"/>
            <path class="cls-5" d="m125.63,78.25c.32-.71.5-1.5.56-2.37h-2.47c-.05.52-.17,1.02-.34,1.48-.18.46-.42.86-.73,1.2-.31.34-.68.62-1.11.81-.43.2-.93.29-1.5.29-.77,0-1.43-.15-1.99-.46-.56-.31-1.02-.72-1.37-1.25-.35-.52-.61-1.11-.78-1.77-.17-.66-.25-1.34-.25-2.03s.08-1.36.25-2.02c.17-.66.43-1.25.78-1.77.35-.52.81-.93,1.37-1.25.56-.31,1.22-.46,1.99-.46.53,0,.99.07,1.39.21.4.14.75.34,1.04.6.3.26.54.56.73.91.19.35.34.73.44,1.15h2.53c-.08-.78-.29-1.48-.62-2.08-.34-.61-.78-1.12-1.33-1.55-.54-.42-1.17-.75-1.89-.97-.72-.22-1.48-.34-2.29-.34-1.08,0-2.05.2-2.9.61-.86.4-1.58.95-2.17,1.64-.59.69-1.05,1.49-1.37,2.41-.32.92-.48,1.89-.48,2.91s.16,2.02.48,2.94c.32.92.77,1.72,1.37,2.41.59.69,1.32,1.23,2.17,1.63.86.4,1.83.6,2.9.6.88,0,1.68-.14,2.41-.42.73-.28,1.36-.68,1.9-1.2.54-.52.97-1.13,1.29-1.85Z"/>
            <path class="cls-5" d="m138.2,75.85h3.84c1.03,0,1.86-.15,2.51-.44.65-.29,1.15-.66,1.5-1.1.35-.45.59-.93.72-1.45.13-.52.2-1,.2-1.45s-.06-.93-.2-1.46c-.12-.53-.37-1.01-.72-1.46-.35-.44-.85-.81-1.5-1.11-.65-.3-1.48-.44-2.51-.44h-6.37v14.44h2.53v-5.54Zm0-6.84h3.74c.34,0,.65.03.95.1.3.07.56.19.79.37.23.18.41.43.55.74.13.32.2.7.2,1.18s-.08.84-.23,1.14c-.15.3-.36.55-.61.73-.25.18-.52.31-.82.4-.3.08-.59.12-.87.12h-3.71v-4.77Z"/>
            <path class="cls-5" d="m157.16,77.57h5.76l1.36,3.82h2.71l-5.57-14.44h-2.69l-5.55,14.44h2.61l1.36-3.82Zm2.87-8.13h.06l2.16,6.21h-4.41l2.18-6.21Z"/>
            <path class="cls-5" d="m70.91,87.33h.9c.06,0,.11.05.11.11v.93c0,.06-.05.11-.11.11h-.9c-.06,0-.11-.05-.11-.11v-.93c0-.06.05-.11.11-.11Z"/>
            <path class="cls-5" d="m165.2,87.14h.98c.06,0,.11.05.11.11v7.06c0,.06-.05.11-.11.11h-.98c-.06,0-.11-.05-.11-.11v-7.06c0-.06.05-.11.11-.11Z"/>
            <path class="cls-5" d="m148.96,88.96h2.35s.06-.02.06-.07v-.42s-.02-.07-.06-.07h-1.17c-.08-.04-.15-.11-.22-.19-.07-.09-.11-.2-.11-.34,0-.14.04-.25.13-.35.09-.1.22-.14.39-.14.12,0,.23.02.32.06.09.04.17.1.25.17.04.04.06.04.09.02l.32-.3s.03-.06.01-.11c-.09-.12-.22-.22-.4-.3-.18-.08-.37-.12-.59-.12s-.4.03-.55.1c-.15.06-.28.15-.37.25-.09.1-.16.22-.2.34-.04.12-.06.24-.06.35,0,.12.02.23.05.32.03.09.07.17.12.25h-.36s-.06.03-.06.07v.42s.02.07.06.07Z"/>
            <path class="cls-5" d="m70.38,93.49c.18.16.4.29.64.36.25.08.51.12.79.12.23,0,.45-.03.65-.1.21-.07.38-.16.53-.3.06.31.19.53.39.65.2.12.47.18.82.18h.87s.05,0,.07,0c.02,0,.04,0,.06,0h16.56c.45,0,.76-.11.95-.33.19-.22.29-.56.29-1.02v-2.98c0-.07-.04-.11-.11-.11h-.99c-.07,0-.11.04-.11.11v2.7c0,.21-.04.36-.12.44-.08.08-.21.12-.39.12h-16.09s-.05,0-.07,0c-.02,0-.04,0-.06,0h-.41c-.18,0-.31-.04-.39-.12-.08-.08-.12-.23-.12-.44v-3.46c0-.07-.04-.11-.11-.11h-.98c-.07,0-.11.04-.11.11v.46h-1.07c-.27,0-.53.04-.78.11-.25.07-.47.19-.67.36-.2.17-.35.39-.47.67-.12.28-.18.62-.18,1.04,0,.36.05.66.16.91.11.25.25.46.43.63Zm.88-2.41c.19-.16.43-.23.74-.23h.95v.9c0,.38-.08.66-.25.86-.16.2-.42.29-.76.29-.3,0-.53-.08-.71-.23-.17-.16-.26-.4-.26-.72,0-.42.09-.71.28-.86Z"/>
            <path class="cls-5" d="m97.26,92.9c-.02.11-.06.19-.12.26-.06.07-.15.12-.26.14-.11.03-.27.04-.46.04h-1.99c-.07,0-.11.04-.11.11v.85c0,.07.04.11.11.11h2.48c.27,0,.5-.03.7-.09.2-.06.36-.16.49-.3.13-.14.22-.33.29-.56.06-.23.1-.53.1-.88v-.89c0-.66-.17-1.14-.5-1.45-.34-.31-.79-.47-1.36-.47h-1.71c-.07,0-.11.04-.11.11v.86c0,.07.04.11.11.11h1.28c.73,0,1.09.31,1.09.94v.71c0,.16,0,.29-.03.39Z"/>
            <path class="cls-5" d="m91,95.32h.9c.06,0,.11.05.11.11v.93c0,.06-.05.11-.11.11h-.9c-.06,0-.11-.05-.11-.11v-.93c0-.06.05-.11.11-.11Z"/>
            <path class="cls-5" d="m131.46,87.33h.9c.06,0,.11.05.11.11v.93c0,.06-.05.11-.11.11h-.9c-.06,0-.11-.05-.11-.11v-.93c0-.06.05-.11.11-.11Z"/>
            <path class="cls-5" d="m130.07,87.33h.9c.06,0,.11.05.11.11v.93c0,.06-.05.11-.11.11h-.9c-.06,0-.11-.05-.11-.11v-.93c0-.06.05-.11.11-.11Z"/>
            <path class="cls-5" d="m72.3,87.33h.9c.06,0,.11.05.11.11v.93c0,.06-.05.11-.11.11h-.9c-.06,0-.11-.05-.11-.11v-.93c0-.06.05-.11.11-.11Z"/>
            <path class="cls-5" d="m92.39,95.32h.9c.06,0,.11.05.11.11v.93c0,.06-.05.11-.11.11h-.9c-.06,0-.11-.05-.11-.11v-.93c0-.06.05-.11.11-.11Z"/>
            <path class="cls-5" d="m151.82,94.41s0,0,0,0c0,0,0,0,0,0h.99c.34,0,.61-.04.81-.12.2-.08.35-.22.45-.43.12.23.28.38.49.45.21.07.45.1.73.1,0,0,0,0,0,0,0,0,0,0,0,0h1.05v.62c0,.3.05.55.16.76.1.21.25.38.44.51.19.13.42.23.69.29.27.06.56.09.89.09.64,0,1.15-.13,1.52-.4.37-.26.56-.64.56-1.13,0-.29-.07-.54-.22-.75h2.02c.45,0,.76-.11.95-.33.19-.22.29-.56.29-1.02v-5.82c0-.07-.04-.11-.11-.11h-.99c-.07,0-.11.04-.11.11v5.53c0,.21-.04.36-.12.44-.08.08-.21.12-.39.12h-1.6c.09-.14.18-.34.26-.61.08-.26.12-.53.12-.8,0-.38-.06-.71-.17-.99-.11-.27-.26-.5-.46-.67-.2-.17-.43-.3-.7-.38-.27-.08-.57-.12-.89-.12-.28,0-.55.04-.81.12-.26.08-.49.22-.68.4-.2.18-.35.43-.48.72-.12.3-.18.66-.18,1.1v1.22h-1.05s0,0,0,0c0,0,0,0,0,0h-.18c-.27,0-.49-.06-.65-.17-.16-.11-.24-.28-.24-.49v-2.6c0-.07-.04-.11-.11-.11h-.91s-.08,0-.12.02c-.04.01-.06.04-.06.09v2.22c0,.19,0,.35-.01.48,0,.13-.03.24-.06.32-.03.08-.08.14-.15.18-.07.04-.17.06-.29.06h-.69s0,0,0,0c0,0,0,0,0,0h-.18c-.27,0-.49-.06-.65-.17-.16-.11-.24-.28-.24-.49v-2.6c0-.07-.04-.11-.11-.11h-.99c-.07,0-.11.04-.11.11v2.26c0,.18,0,.34-.01.47,0,.13-.03.23-.06.31-.03.08-.08.14-.16.17-.07.04-.17.05-.29.05h-.51s-.02,0-.02,0c-.01,0-.03,0-.04,0h-14.11s-.05,0-.07,0c-.02,0-.04,0-.06,0h-.41c-.18,0-.31-.04-.39-.12-.08-.08-.12-.23-.12-.44v-3.46c0-.07-.04-.11-.11-.11h-.98c-.07,0-.11.04-.11.11v.46h-1.07c-.27,0-.53.04-.78.11-.25.07-.47.19-.67.36-.2.17-.35.39-.47.67-.12.28-.18.62-.18,1.04,0,.36.05.66.16.91.11.25.25.46.43.63.18.16.4.29.64.36.25.08.51.12.79.12.23,0,.45-.03.65-.1.21-.07.38-.16.53-.3.06.31.19.53.39.65.2.12.47.18.82.18h.87s.05,0,.07,0c.02,0,.04,0,.06,0h14.11s.02,0,.03,0c0,0,.01,0,.02,0h.84c.34,0,.61-.04.8-.12.19-.08.34-.22.44-.43.12.23.28.38.49.45.21.07.45.1.73.1Zm5.74-2.39c0-.38.09-.67.26-.87.17-.2.41-.3.71-.3.33,0,.58.1.75.31.17.21.26.51.26.92,0,.16-.02.32-.05.47-.04.15-.09.29-.16.4-.07.12-.17.21-.29.29s-.26.11-.42.11h-1.05v-1.33Zm0,2.35h.89c.21,0,.38.01.51.04.13.03.24.07.31.13.07.06.12.13.15.21.02.08.04.18.04.28,0,.2-.07.35-.21.46-.14.11-.38.16-.71.16-.65,0-.97-.24-.97-.72v-.57Zm-25.46-2.61c0,.38-.08.66-.25.86-.16.2-.42.29-.76.29-.3,0-.53-.08-.71-.23-.17-.16-.26-.4-.26-.72,0-.42.09-.71.28-.86.19-.16.43-.23.74-.23h.95v.9Z"/>
            <path class="cls-5" d="m123.49,87.14h.98c.06,0,.11.05.11.11v7.06c0,.06-.05.11-.11.11h-.98c-.06,0-.11-.05-.11-.11v-7.06c0-.06.05-.11.11-.11Z"/>
            <path class="cls-5" d="m121.86,87.14h-.99c-.07,0-.11.04-.11.11v5.53c0,.21-.04.36-.12.44-.08.08-.21.12-.39.12h-.52s0,0,0,0c0,0,0,0,0,0h-.18c-.27,0-.49-.06-.65-.17-.16-.11-.24-.28-.24-.49v-2.6c0-.07-.04-.11-.11-.11h-.99c-.07,0-.11.04-.11.11v2.22c0,.22,0,.4-.02.54-.01.14-.05.25-.1.32s-.13.12-.23.15c-.1.02-.23.04-.4.04-.22,0-.4-.05-.54-.16-.14-.1-.2-.27-.2-.49v-1.79c0-.07-.04-.11-.11-.11h-.99c-.07,0-.11.04-.11.11v1.37c0,.23,0,.41-.02.55-.01.14-.04.24-.09.32-.05.08-.13.13-.23.16-.1.03-.25.04-.43.04-.26,0-.45-.05-.57-.16-.12-.11-.18-.27-.18-.5v-1.76c0-.07-.04-.11-.11-.11h-.99c-.07,0-.11.04-.11.11v1.37c0,.19,0,.35,0,.49,0,.13-.02.24-.05.33-.03.09-.08.15-.15.19-.07.04-.17.06-.29.06h-2.41c-.07,0-.13,0-.19-.02.13-.09.26-.19.4-.32.14-.13.26-.27.36-.43.11-.16.19-.33.26-.52.07-.19.1-.39.1-.6,0-.5-.19-.9-.57-1.2-.38-.31-.98-.46-1.8-.46-.3,0-.59.02-.88.07-.29.05-.54.11-.76.19-.22.07-.4.16-.53.25-.14.09-.2.18-.2.26v.67c0,.06,0,.11.02.15s.06.1.13.15c.14.1.28.2.42.3.14.1.27.22.39.35.12.13.23.28.33.45.1.17.17.37.23.61-.19.04-.36.07-.5.08-.14.01-.27.02-.38.02h-1.98v-1.2c0-.43-.05-.8-.16-1.1-.11-.3-.26-.54-.45-.72-.19-.18-.42-.32-.69-.4-.27-.09-.56-.13-.88-.13-.29,0-.57.04-.84.13-.26.09-.5.23-.7.43-.2.2-.36.45-.48.76-.12.31-.18.68-.18,1.12,0,.41.05.75.14,1.03.1.28.23.5.41.68.18.17.4.3.66.37.26.07.56.11.89.11h1.08c0,.22-.02.4-.06.55-.04.14-.1.25-.18.33-.08.08-.18.13-.3.17-.12.03-.26.05-.43.05h-1.25c-.07,0-.11.04-.11.11v.86c0,.07.04.11.11.11h1.44c.64,0,1.13-.15,1.47-.46.34-.31.51-.79.51-1.46v-.24h2.27c.21,0,.44-.02.71-.07.26-.05.51-.13.75-.26.21.13.43.22.66.26.23.05.48.07.73.07h1.59s.01,0,.02,0c.02,0,.03,0,.05,0h1.15c.32,0,.57-.04.76-.13.19-.09.33-.23.43-.44.19.38.53.57,1.04.57h.47c.32,0,.58-.04.76-.12.19-.08.33-.23.43-.44.09.18.23.32.4.42.17.1.39.15.64.15h.46c.32,0,.58-.04.76-.12.19-.08.33-.23.43-.43.12.23.28.38.49.45.2.07.44.1.72.1,0,0,0,0,0,0,0,0,0,0,0,0h.99c.45,0,.76-.11.95-.33.19-.22.29-.56.29-1.02v-5.82c0-.07-.04-.11-.11-.11Zm-19.06,6.2h-.95c-.34,0-.6-.08-.79-.24-.18-.16-.27-.47-.27-.92,0-.4.09-.73.27-.97.18-.24.43-.36.75-.36.34,0,.59.11.75.32.16.22.24.53.24.95v1.21Zm5.96-1.29c-.06.14-.13.26-.22.38-.09.12-.19.23-.31.33-.12.1-.23.19-.35.26-.1-.41-.27-.79-.5-1.12-.23-.33-.51-.6-.84-.81.08-.04.22-.09.43-.15.21-.06.46-.09.74-.09.33,0,.6.06.81.17.21.11.32.32.32.61,0,.14-.03.28-.09.42Z"/>
            <path class="cls-5" d="m152.43,95.32h.9c.06,0,.11.05.11.11v.93c0,.06-.05.11-.11.11h-.9c-.06,0-.11-.05-.11-.11v-.93c0-.06.05-.11.11-.11Z"/>
            <path class="cls-5" d="m153.82,95.32h.9c.06,0,.11.05.11.11v.93c0,.06-.05.11-.11.11h-.9c-.06,0-.11-.05-.11-.11v-.93c0-.06.05-.11.11-.11Z"/>
            <path class="cls-5" d="m132.68,109.93h.9c.06,0,.11.05.11.11v.93c0,.06-.05.11-.11.11h-.9c-.06,0-.11-.05-.11-.11v-.93c0-.06.05-.11.11-.11Z"/>
            <path class="cls-5" d="m77.89,109.93h.9c.06,0,.11.05.11.11v.93c0,.06-.05.11-.11.11h-.9c-.06,0-.11-.05-.11-.11v-.93c0-.06.05-.11.11-.11Z"/>
            <path class="cls-5" d="m144.84,109.9h1.03c.06,0,.11.05.11.11v.93c0,.06-.05.11-.11.11h-1.03c-.06,0-.11-.05-.11-.11v-.93c0-.06.05-.11.11-.11Z"/>
            <path class="cls-5" d="m166.18,101.75h-.99c-.07,0-.11.04-.11.11v5.53c0,.21-.04.36-.12.44-.08.08-.21.12-.39.12h-.52s0,0,0,0c0,0,0,0,0,0h-.18c-.27,0-.49-.06-.65-.17-.16-.11-.24-.28-.24-.49v-5.43c0-.07-.04-.11-.11-.11h-.99c-.07,0-.11.04-.11.11v5.53c0,.21-.04.36-.12.44-.08.08-.21.12-.39.12h-.81c-.17,0-.32-.06-.45-.19-.13-.12-.2-.34-.21-.63,0-.06.01-.12.01-.18v-.19c0-.43-.06-.8-.17-1.11-.11-.31-.26-.55-.46-.74s-.43-.32-.7-.4c-.27-.09-.56-.13-.88-.13s-.6.04-.87.12c-.26.08-.49.21-.69.39-.2.18-.35.42-.46.7-.11.29-.17.64-.18,1.05v.16s0,.1.01.16c0,.37-.08.62-.21.76-.14.14-.29.21-.46.21h-.42s0,0,0,0c0,0,0,0,0,0h-.18c-.27,0-.49-.06-.65-.17-.16-.11-.24-.28-.24-.49v-2.6c0-.07-.04-.11-.11-.11h-.99c-.07,0-.11.04-.11.11v3.82c0,.26,0,.48-.02.68-.01.2-.04.36-.1.5-.05.14-.14.24-.25.32-.11.07-.27.11-.48.11h-.24c-.07,0-.11.04-.11.11v.86c0,.07.04.11.11.11h.4c.36,0,.65-.05.9-.14.24-.1.43-.24.58-.43.14-.19.25-.43.31-.72.06-.29.1-.63.1-1.01v-.2c.12.15.27.25.44.29.17.04.38.06.63.06,0,0,0,0,0,0,0,0,0,0,0,0h.37c.1,0,.21,0,.32-.02.11-.01.22-.04.33-.08.11-.04.21-.1.31-.17.1-.07.19-.17.26-.28.19.22.43.38.72.48.29.1.61.15.96.15s.69-.05.98-.15c.29-.1.53-.27.72-.5.09.14.2.24.32.32.12.08.24.13.38.17.13.04.26.06.4.07.12,0,.24,0,.35,0,0,0,0,0,0,0h.9c.32,0,.57-.04.76-.12.19-.08.33-.23.43-.43.12.23.28.38.49.45.21.07.45.1.73.1,0,0,0,0,0,0,0,0,0,0,0,0h.99c.45,0,.76-.11.95-.33.19-.22.29-.56.29-1.02v-5.82c0-.07-.04-.11-.11-.11Zm-7.83,5.97c-.16.2-.42.3-.77.3s-.59-.1-.76-.3-.24-.53-.24-.98c0-.42.08-.74.24-.96.16-.22.41-.33.76-.33.67,0,1.01.43,1.01,1.29,0,.45-.08.77-.24.97Z"/>
            <path class="cls-5" d="m147.16,105.19c-.19-.25-.45-.44-.77-.59-.32-.15-.72-.22-1.2-.22-.44,0-.82.08-1.12.25-.31.16-.57.37-.79.62-.04.04-.04.09.02.15l.56.58s.1.04.15-.01c.15-.16.32-.28.51-.37.19-.09.41-.14.64-.14s.44.04.6.12c.16.08.29.19.39.33.1.14.17.31.21.51.04.2.06.41.06.63,0,.17-.01.31-.03.43-.02.12-.06.21-.13.28-.06.07-.15.12-.27.15-.11.03-.26.04-.45.04h-6.97c-.07,0-.13,0-.19-.02.13-.09.26-.19.4-.32.14-.13.26-.27.36-.43.11-.16.19-.33.26-.52.07-.19.1-.39.1-.6,0-.5-.19-.9-.57-1.2-.38-.31-.98-.46-1.8-.46-.3,0-.59.02-.88.07-.29.05-.54.11-.76.19-.22.07-.4.16-.53.25-.14.09-.2.18-.2.26v.67c0,.06,0,.11.02.15.01.05.06.1.13.15.14.1.28.2.42.3.14.1.27.22.39.35.12.13.23.28.33.45.1.17.17.37.23.61-.19.04-.36.07-.5.08-.14.01-.27.02-.38.02h-1.25s0,0,0,0c0,0,0,0,0,0h-.18c-.27,0-.49-.06-.65-.17-.16-.11-.24-.28-.24-.49v-2.6c0-.07-.04-.11-.11-.11h-.91s-.08,0-.12.02c-.04.01-.06.04-.06.09v2.22c0,.19,0,.35-.01.48,0,.13-.03.24-.06.32-.03.08-.08.14-.15.18-.07.04-.17.06-.29.06h-.69s-.02,0-.03,0c-.01,0-.02,0-.03,0h-.12c-.27,0-.49-.06-.65-.17-.16-.11-.24-.28-.24-.49v-1.7c0-.07-.04-.11-.11-.11h-.99c-.07,0-.11.04-.11.11v3.18c0,.48-.13.84-.38,1.05-.25.22-.58.33-.99.33-.16,0-.33-.02-.5-.07-.17-.05-.33-.13-.47-.24-.14-.11-.25-.27-.34-.45-.09-.19-.13-.42-.13-.7,0-.32.05-.61.16-.88.1-.27.21-.5.33-.7.01-.03.02-.06.02-.08,0-.02-.02-.04-.06-.06l-.87-.34c-.07-.05-.12-.04-.16.02-.18.28-.33.61-.45.99-.12.38-.18.77-.18,1.15,0,.41.07.77.2,1.08.13.31.31.56.55.76.23.2.51.35.83.45.32.1.66.15,1.04.15s.75-.05,1.07-.15.6-.25.83-.45c.23-.2.41-.46.53-.77.12-.31.19-.66.19-1.07v-.12c.12.14.27.24.43.28.17.04.36.06.57.06.02,0,.03,0,.04,0,0,0,.01,0,.02,0h.99c.34,0,.61-.04.81-.12.2-.08.35-.22.45-.43.12.23.28.38.49.45.21.07.45.1.73.1,0,0,0,0,0,0,0,0,0,0,0,0h1.54c.21,0,.44-.02.71-.07.26-.05.51-.13.75-.26.21.13.43.22.66.26.23.05.48.07.73.07h7.46c.28,0,.52-.03.73-.09.21-.06.38-.16.52-.3.14-.15.24-.34.32-.59.07-.25.11-.57.11-.95,0-.36-.04-.71-.12-1.03-.08-.32-.22-.61-.41-.86Zm-8.96,1.46c-.06.14-.13.26-.22.38-.09.12-.19.23-.31.33-.12.1-.23.19-.35.26-.1-.41-.27-.79-.5-1.12-.23-.33-.51-.6-.84-.81.08-.04.22-.09.43-.15.21-.06.46-.09.74-.09.33,0,.6.06.81.17.21.11.32.32.32.61,0,.14-.03.28-.09.42Z"/>
            <path class="cls-5" d="m149.04,101.75h.98c.06,0,.11.05.11.11v7.06c0,.06-.05.11-.11.11h-.99c-.06,0-.11-.05-.11-.11v-7.06c0-.06.05-.11.11-.11Z"/>
            <path class="cls-5" d="m126.8,103.8h1.03c.06,0,.11.05.11.11v.93c0,.06-.05.11-.11.11h-1.03c-.06,0-.11-.05-.11-.11v-.93c0-.06.05-.11.11-.11Z"/>
            <path class="cls-5" d="m79.28,109.93h.9c.06,0,.11.05.11.11v.93c0,.06-.05.11-.11.11h-.9c-.06,0-.11-.05-.11-.11v-.93c0-.06.05-.11.11-.11Z"/>
            <path class="cls-5" d="m81.96,109.9h1.03c.06,0,.11.05.11.11v.93c0,.06-.05.11-.11.11h-1.03c-.06,0-.11-.05-.11-.11v-.93c0-.06.05-.11.11-.11Z"/>
            <path class="cls-5" d="m91.94,104.58h-.99c-.07,0-.11.04-.11.11v2.22c0,.23,0,.41-.02.54-.01.13-.04.24-.09.31-.05.07-.12.12-.22.15-.1.02-.24.04-.41.04-.23,0-.41-.06-.55-.17-.14-.11-.2-.28-.2-.51v-1.75c0-.07-.04-.11-.11-.11h-.99c-.07,0-.11.04-.11.11v1.61c0,.19,0,.33-.03.44-.02.11-.05.19-.11.24-.05.05-.13.09-.22.11-.09.02-.22.03-.38.03-.52,0-.78-.22-.78-.66v-1.76c0-.07-.04-.11-.11-.11h-.99c-.07,0-.11.04-.11.11v1.61c0,.31-.03.52-.09.64-.06.12-.2.18-.42.18h-.99c-.27,0-.49-.06-.65-.17-.16-.11-.24-.28-.24-.49v-2.6c0-.07-.04-.11-.11-.11h-.99c-.07,0-.11.04-.11.11v2.26c0,.18,0,.34-.01.47,0,.13-.03.23-.06.31s-.08.14-.16.17c-.07.04-.17.05-.29.05h-.51s-.02,0-.03,0c-.02,0-.03,0-.05,0h-.18c-.27,0-.49-.06-.65-.17-.16-.11-.24-.28-.24-.49v-2.6c0-.07-.04-.11-.11-.11h-.91s-.08,0-.12.02c-.04.01-.06.04-.06.09v2.22c0,.19,0,.35-.01.48,0,.13-.03.24-.06.32-.03.08-.08.14-.15.18-.07.04-.17.06-.29.06h-.69s-.02,0-.03,0c0,0-.02,0-.03,0h-1.28s0,0,0,0c0,0,0,0,0,0h-.12c-.27,0-.49-.06-.65-.17s-.24-.28-.24-.49v-1.7c0-.07-.04-.11-.11-.11h-.99c-.07,0-.11.04-.11.11v3.18c0,.48-.13.84-.38,1.05-.25.22-.58.33-.99.33-.16,0-.33-.02-.5-.07-.17-.05-.33-.13-.47-.24-.14-.11-.25-.27-.34-.45-.09-.19-.13-.42-.13-.7,0-.32.05-.61.16-.88.1-.27.21-.5.33-.7.01-.03.02-.06.02-.08,0-.02-.02-.04-.06-.06l-.87-.34c-.07-.05-.12-.04-.16.02-.18.28-.33.61-.45.99-.12.38-.18.77-.18,1.15,0,.41.07.77.2,1.08.13.31.31.56.55.76.23.2.51.35.83.45.32.1.66.15,1.04.15s.75-.05,1.07-.15c.32-.1.6-.25.83-.45.23-.2.41-.46.53-.77.12-.31.19-.66.19-1.07v-.12c.12.14.27.24.43.28.17.04.36.06.57.06,0,0,0,0,0,0,0,0,0,0,0,0h1.28s.02,0,.04,0c0,0,.01,0,.02,0h.99c.34,0,.61-.04.81-.12.2-.08.35-.22.45-.43.12.23.28.38.49.45.21.07.45.1.73.1.01,0,.02,0,.04,0,.01,0,.02,0,.03,0h.84c.34,0,.61-.04.8-.12.19-.08.34-.22.44-.43.12.23.28.38.49.45.18.06.4.09.64.1.01,0,.02,0,.04,0h1.22c.33,0,.58-.04.77-.13.19-.09.33-.23.43-.44.19.38.53.57,1.04.57h.47c.32,0,.58-.04.76-.12.19-.08.33-.23.43-.44.09.18.23.32.4.42.17.1.39.15.64.15h.46c.48,0,.83-.1,1.03-.3.2-.2.3-.55.3-1.04v-2.98c0-.07-.04-.11-.11-.11Z"/>
            <path class="cls-5" d="m72.12,103.8h1.03c.06,0,.11.05.11.11v.93c0,.06-.05.11-.11.11h-1.02c-.06,0-.11-.05-.11-.11v-.93c0-.06.05-.11.11-.11Z"/>
            <path class="cls-5" d="m121.31,104.92c-.19-.19-.42-.32-.69-.41-.27-.09-.56-.13-.88-.13-.29,0-.57.04-.84.13-.26.09-.5.23-.7.43-.2.2-.36.45-.48.76-.12.31-.18.68-.18,1.12,0,.41.05.75.14,1.03.1.28.23.5.41.68.18.17.4.3.66.37.26.07.56.11.89.11h1.08c0,.24-.02.42-.07.57-.05.14-.11.25-.2.33-.09.08-.19.13-.31.16-.12.02-.25.04-.4.04h-1.25c-.07,0-.11.04-.11.11v.86c0,.07.04.11.11.11h1.44c.64,0,1.13-.15,1.47-.46.34-.31.51-.79.51-1.46v-2.5c0-.43-.05-.8-.16-1.1-.11-.3-.26-.54-.45-.73Zm-.59,3.03h-.95c-.34,0-.6-.08-.79-.24-.18-.16-.27-.47-.27-.92,0-.4.09-.73.27-.97.18-.24.43-.36.76-.36s.59.11.75.32c.16.22.24.53.24.95v1.21Z"/>
            <path class="cls-5" d="m131.29,109.93h.9c.06,0,.11.05.11.11v.93c0,.06-.05.11-.11.11h-.9c-.06,0-.11-.05-.11-.11v-.93c0-.06.05-.11.11-.11Z"/>
            <path class="cls-5" d="m113.83,101.75h-.99c-.07,0-.11.04-.11.11v5.53c0,.21-.04.36-.12.44-.08.08-.21.12-.39.12h-.81c-.17,0-.32-.06-.45-.19-.13-.12-.2-.34-.21-.63,0-.06.01-.12.01-.18v-.19c0-.43-.06-.8-.17-1.11-.11-.31-.26-.55-.46-.74-.2-.18-.43-.32-.7-.4-.27-.09-.56-.13-.88-.13s-.6.04-.87.12c-.26.08-.49.21-.69.39-.2.18-.35.42-.46.7-.11.29-.17.64-.18,1.05v.16s0,.1.01.16c0,.37-.08.62-.21.76-.14.14-.29.21-.46.21h-.6c-.26,0-.47-.05-.63-.16-.15-.11-.24-.26-.26-.45,0-.04,0-.09,0-.13,0-.04,0-.09,0-.14,0-.36-.04-.71-.12-1.03-.08-.32-.22-.61-.41-.85-.19-.25-.45-.44-.77-.59-.32-.15-.72-.22-1.2-.22-.44,0-.82.08-1.12.25-.31.16-.57.37-.79.62-.04.04-.04.09.02.15l.56.58s.1.04.15-.01c.15-.16.32-.28.51-.37.19-.09.41-.14.64-.14s.44.04.6.12c.16.08.29.19.39.34.1.14.17.31.21.5s.06.4.06.63c0,.17-.01.31-.03.43-.02.12-.06.21-.13.28-.06.07-.15.12-.27.15-.11.03-.26.04-.45.04h-6.69s0,0,0,0c0,0,0,0,0,0h-.37c-.18,0-.31-.04-.39-.12-.08-.08-.12-.23-.12-.44v-5.53c0-.07-.04-.11-.11-.11h-.99c-.07,0-.11.04-.11.11v5.82c0,.46.1.8.29,1.02.19.22.51.33.95.33h.84s0,0,0,0c0,0,0,0,0,0h7.15c.34,0,.63-.04.87-.13.24-.09.43-.26.56-.5.12.27.29.44.52.52.22.08.49.12.79.12h.37c.1,0,.21,0,.32-.02.11-.01.22-.04.33-.08.11-.04.21-.1.31-.17.1-.07.19-.17.26-.28.19.22.43.38.72.48.29.1.61.15.96.15s.69-.05.98-.15c.29-.1.53-.27.72-.5.09.14.2.24.32.32.12.08.24.13.38.17.13.04.26.06.4.07.12,0,.24,0,.35,0,0,0,0,0,0,0h.99c.45,0,.76-.11.95-.33.19-.22.29-.56.29-1.02v-5.82c0-.07-.04-.11-.11-.11Zm-4.51,5.97c-.16.2-.42.3-.77.3s-.59-.1-.76-.3-.24-.53-.24-.98c0-.42.08-.74.24-.96.16-.22.41-.33.76-.33.67,0,1.01.43,1.01,1.29,0,.45-.08.77-.24.97Z"/>
            <path class="cls-5" d="m115.32,101.75h.98c.06,0,.11.05.11.11v7.06c0,.06-.05.11-.11.11h-.98c-.06,0-.11-.05-.11-.11v-7.06c0-.06.05-.11.11-.11Z"/>
          </g>
        </g>
      </g>
    </g>
  </g>
</svg>