<?xml version="1.0" encoding="UTF-8"?>
<svg id="Layer_2" data-name="Layer 2" xmlns="http://www.w3.org/2000/svg" xmlns:xlink="http://www.w3.org/1999/xlink" viewBox="0 0 881.86 168.7">
  <defs>
    <style>
      .cls-1, .cls-2 {
        fill: none;
      }

      .cls-3 {
        fill: #fff;
      }

      .cls-4 {
        fill: #b50303;
      }

      .cls-2 {
        clip-path: url(#clippath);
      }
    </style>
    <clipPath id="clippath">
      <rect class="cls-1" x="713.17" width="168.7" height="168.7"/>
    </clipPath>
  </defs>
  <g id="Layer_1-2" data-name="Layer 1">
    <g>
      <g>
        <g id="Artwork_29" data-name="Artwork 29">
          <g class="cls-2">
            <polygon class="cls-3" points="789.46 145.59 736.27 145.59 736.27 23.1 788.8 23.1 788.8 30.09 743.25 30.09 743.25 138.61 789.46 138.61 789.46 145.59"/>
            <polygon class="cls-3" points="789.46 122.49 759.37 122.49 759.37 92.41 766.36 92.41 766.36 115.51 789.46 115.51 789.46 122.49"/>
            <polygon class="cls-3" points="789.46 110.94 770.92 110.94 770.92 92.41 777.91 92.41 777.91 103.96 789.46 103.96 789.46 110.94"/>
            <polygon class="cls-3" points="824.11 110.94 805.57 110.94 805.57 103.96 817.12 103.96 817.12 92.41 824.11 92.41 824.11 110.94"/>
            <rect class="cls-3" x="782.47" y="92.41" width="6.99" height="6.98"/>
            <rect class="cls-3" x="805.57" y="92.41" width="6.99" height="6.98"/>
            <rect class="cls-3" x="782.47" y="69.3" width="6.99" height="6.99"/>
            <rect class="cls-3" x="805.57" y="69.3" width="6.99" height="6.99"/>
            <rect class="cls-3" x="747.94" y="92.41" width="6.87" height="30.08"/>
            <rect class="cls-3" x="840.23" y="46.2" width="6.99" height="30.09"/>
            <polygon class="cls-3" points="858.76 145.59 805.57 145.59 805.57 138.61 851.78 138.61 851.78 30.09 805.57 30.09 805.57 23.1 858.76 23.1 858.76 145.59"/>
            <polygon class="cls-3" points="835.66 76.29 828.67 76.29 828.67 53.19 805.57 53.19 805.57 46.2 835.66 46.2 835.66 76.29"/>
            <polygon class="cls-3" points="766.35 76.29 759.37 76.29 759.37 46.2 789.46 46.2 789.46 53.19 766.35 53.19 766.35 76.29"/>
            <polygon class="cls-3" points="777.91 76.29 770.92 76.29 770.92 57.75 789.45 57.75 789.45 64.74 777.91 64.74 777.91 76.29"/>
            <polygon class="cls-3" points="824.11 76.29 817.12 76.29 817.12 64.74 805.57 64.74 805.57 57.75 824.11 57.75 824.11 76.29"/>
            <polygon class="cls-3" points="835.66 122.49 805.57 122.49 805.57 115.51 828.67 115.51 828.67 92.41 835.66 92.41 835.66 122.49"/>
            <polygon class="cls-3" points="731.7 150.16 731.7 34.65 724.72 34.65 724.72 157.15 789.46 157.15 789.46 150.16 731.7 150.16"/>
            <polygon class="cls-3" points="863.33 34.65 863.33 150.16 805.57 150.16 805.57 157.15 870.31 157.15 870.31 34.65 863.33 34.65"/>
            <path class="cls-3" d="m720.15,6.98h154.73v154.73h-154.73V6.98Zm-6.98,161.71h168.7V0h-168.7v168.7Z"/>
            <rect class="cls-4" x="794.02" y="92.41" width="6.99" height="64.74"/>
            <polygon class="cls-4" points="724.72 11.55 724.72 30.08 731.7 30.08 731.7 18.54 794.02 18.54 794.02 76.29 801.01 76.29 801.01 18.54 863.33 18.54 863.33 30.08 870.31 30.08 870.31 11.55 724.72 11.55"/>
            <rect class="cls-4" x="805.57" y="34.65" width="41.64" height="6.99"/>
            <rect class="cls-4" x="747.82" y="127.06" width="41.64" height="6.98"/>
            <polygon class="cls-4" points="847.21 134.05 805.57 134.05 805.57 127.06 840.23 127.06 840.23 87.84 747.94 87.84 747.81 34.65 789.46 34.65 789.46 41.64 754.81 41.64 754.9 80.86 847.21 80.86 847.21 134.05"/>
          </g>
        </g>
        <rect class="cls-4" x="659.35" y="11.52" width="3.66" height="149.58"/>
      </g>
      <g>
        <path class="cls-3" d="m1.17,134.33l4.74-.68c.14,1.18.62,2.13,1.45,2.85.83.73,1.91,1.08,3.25,1.08,1.64,0,2.84-.37,3.62-1.11.77-.73,1.16-1.53,1.16-2.39,0-1.07-.25-1.99-.75-2.77-.5-.78-1.15-1.41-1.95-1.91-.79-.5-1.68-.95-2.63-1.35-.95-.4-1.91-.82-2.87-1.26-.96-.44-1.85-.94-2.65-1.49-.8-.55-1.46-1.28-1.95-2.19-.5-.91-.75-1.98-.75-3.21,0-1.87.78-3.5,2.36-4.88,1.56-1.39,3.81-2.07,6.72-2.07,2.23,0,4.18.4,5.87,1.21l-.24.73c-.16.48-.36,1.08-.61,1.8-.24.73-.42,1.27-.56,1.65-1.82-.58-3.3-.88-4.42-.88-1.53,0-2.65.27-3.37.81-.65.48-.97,1.08-.97,1.81v.24c.08.7.61,1.34,1.56,1.93.97.59,2.11,1.17,3.45,1.73,1.32.56,2.63,1.21,3.93,1.95,1.3.74,2.41,1.77,3.32,3.09.91,1.33,1.36,2.89,1.36,4.68,0,2.38-.78,4.35-2.37,5.91-1.58,1.55-3.99,2.33-7.23,2.33-2.91,0-5.21-.77-6.88-2.31-1.68-1.54-2.54-3.3-2.59-5.28"/>
        <path class="cls-3" d="m60.02,141.49h-5.26l-1.65-7.36h-6.47l-1.56,7.36h-4.99l6.59-28.12h6.23l7.11,28.12Zm-7.95-12.05l-2.29-8.68-2.09,8.68h4.38Z"/>
        <polygon class="cls-3" points="85.02 141.49 80.6 141.49 80.6 113.36 94.02 113.36 94.02 117.78 85.02 117.78 85.02 124.89 90.65 124.89 89.19 129.11 85.02 129.11 85.02 141.49"/>
        <polygon class="cls-3" points="129.09 141.49 115.76 141.49 115.76 113.36 129.17 113.36 129.17 117.78 120.17 117.78 120.17 124.89 125.68 124.89 124.42 129.11 120.17 129.11 120.17 137.47 129.09 137.47 129.09 141.49"/>
        <polygon class="cls-3" points="158.54 141.49 154.12 141.49 154.12 117.82 148.33 117.82 148.33 113.36 164.48 113.36 164.48 117.82 158.54 117.82 158.54 141.49"/>
        <path class="cls-3" d="m195.26,142.25l-1.4-3.38c.88-.11,1.6-.44,2.16-1.01.57-.55.85-1.55.85-2.97v-2.25c-1.34.67-2.75,1.01-4.22,1.01-2.76,0-4.98-.79-6.67-2.37-1.69-1.58-2.53-3.71-2.53-6.39v-11.53h4.42v11.13c0,3.22,1.59,4.82,4.78,4.82.32,0,.62-.01.9-.04.28-.02.54-.06.77-.12.22-.05.43-.1.62-.16.19-.05.37-.13.54-.22.18-.09.32-.16.42-.22.12-.05.23-.13.35-.24.13-.11.21-.19.27-.24.05-.05.12-.13.2-.24l.16-.12v-14.34h4.42v21.85c0,2.12-.46,3.77-1.36,4.94-.92,1.19-2.47,1.88-4.67,2.1"/>
        <polygon class="cls-3" points="258.98 141.49 254.57 141.49 254.57 117.82 248.77 117.82 248.77 113.36 264.92 113.36 264.92 117.82 258.98 117.82 258.98 141.49"/>
        <polygon class="cls-3" points="298.44 141.49 285.1 141.49 285.1 113.36 298.52 113.36 298.52 117.78 289.51 117.78 289.51 124.89 295.03 124.89 293.77 129.11 289.51 129.11 289.51 137.47 298.44 137.47 298.44 141.49"/>
        <path class="cls-3" d="m334.15,136.38l.68,4.18c-1.32.5-2.62.87-3.93,1.08-.86.17-1.71.24-2.58.24-.43,0-.87-.02-1.33-.07-1.28-.12-2.42-.43-3.39-.95-.98-.53-1.76-1.36-2.37-2.49-.6-1.15-.9-2.56-.9-4.24v-12.9c0-2.03.29-3.57.85-4.62.58-1.04,1.47-1.93,2.64-2.65,1.21-.67,2.64-1.01,4.3-1.01h.52c1.88.08,3.61.53,5.18,1.33l-1.24,4.01c-1.23-.45-2.59-.68-4.07-.68-1.12,0-2.03.3-2.73.92-.69.62-1.04,1.39-1.04,2.33v13.17c0,.48.05.92.16,1.31.1.39.27.7.52.94.24.24.48.46.72.65.24.19.58.31,1.01.36.42.06.79.1,1.07.15.3.04.71.02,1.24-.06.52-.08.93-.15,1.22-.18.29-.04.72-.13,1.27-.26.54-.13.93-.23,1.14-.28.21-.05.56-.16,1.04-.28"/>
        <polygon class="cls-3" points="372.4 141.49 368.03 141.49 368.03 129.11 359.55 129.11 359.55 141.49 355.12 141.49 355.12 113.36 359.55 113.36 359.55 124.89 368.03 124.89 368.03 113.36 372.4 113.36 372.4 141.49"/>
        <polygon class="cls-3" points="415.56 141.49 411.1 141.49 400.21 122.49 400.21 141.49 395.79 141.49 395.79 113.36 400.21 113.36 411.1 132.24 411.1 113.36 415.56 113.36 415.56 141.49"/>
        <path class="cls-3" d="m453.44,121.16v12.9c0,2.71-.82,4.7-2.47,5.97-1.64,1.27-3.62,1.91-5.92,1.91s-4.3-.64-5.98-1.91c-1.67-1.27-2.51-3.26-2.51-5.97v-12.94c0-2.76.76-4.84,2.27-6.27,1.51-1.42,3.59-2.13,6.25-2.13s4.7.75,6.16,2.25c1.46,1.5,2.19,3.56,2.19,6.19m-4.42,12.05v-10.6c0-1.71-.26-3-.78-3.84-.53-.84-1.61-1.27-3.24-1.27s-2.71.41-3.24,1.23c-.52.82-.78,2.1-.78,3.84v10.73c0,1.28.32,2.29.98,3.03.66.74,1.67,1.1,3.04,1.1,1.25,0,2.24-.39,2.95-1.16.71-.78,1.07-1.79,1.07-3.05"/>
        <polygon class="cls-3" points="490.77 141.49 476.26 141.49 476.26 113.36 480.68 113.36 480.68 137.43 490.77 137.43 490.77 141.49"/>
        <path class="cls-3" d="m527.25,121.16v12.9c0,2.71-.81,4.7-2.47,5.97-1.64,1.27-3.62,1.91-5.91,1.91s-4.3-.64-5.98-1.91c-1.67-1.27-2.51-3.26-2.51-5.97v-12.94c0-2.76.76-4.84,2.27-6.27,1.51-1.42,3.6-2.13,6.25-2.13s4.7.75,6.16,2.25c1.46,1.5,2.19,3.56,2.19,6.19m-4.42,12.05v-10.6c0-1.71-.26-3-.78-3.84-.52-.84-1.61-1.27-3.23-1.27s-2.71.41-3.24,1.23c-.52.82-.78,2.1-.78,3.84v10.73c0,1.28.32,2.29.98,3.03.65.74,1.66,1.1,3.04,1.1,1.25,0,2.24-.39,2.95-1.16.7-.78,1.06-1.79,1.06-3.05"/>
        <path class="cls-3" d="m566.07,141.49h-4.18l-.24-.32c-1.4.48-2.61.72-3.62.72-2.36,0-4.36-.67-6.01-2.01-1.65-1.34-2.48-3.33-2.48-5.99v-12.62c0-3.43,1.17-5.85,3.5-7.27,1.2-.67,2.63-1.01,4.3-1.01h.52c1.88.08,3.61.53,5.18,1.33l-1.33,3.98c-1.28-.48-2.5-.73-3.65-.73-1.29,0-2.29.24-3.02.7-.73.47-1.08,1.35-1.08,2.63v13.06c0,1.28.35,2.19,1.02,2.69.68.52,1.68.77,2.99.77,2.44,0,3.66-1.14,3.66-3.42v-.36h-2.29l-1.41-4.22h8.11v12.05Z"/>
        <path class="cls-3" d="m599.29,142.25l-1.4-3.38c.88-.11,1.6-.44,2.17-1.01.56-.55.84-1.55.84-2.97v-2.25c-1.34.67-2.75,1.01-4.22,1.01-2.76,0-4.98-.79-6.67-2.37-1.69-1.58-2.53-3.71-2.53-6.39v-11.53h4.42v11.13c0,3.22,1.6,4.82,4.78,4.82.32,0,.63-.01.91-.04.28-.02.53-.06.76-.12.23-.05.44-.1.62-.16.19-.05.37-.13.55-.22.17-.09.32-.16.42-.22.11-.05.22-.13.35-.24.12-.11.21-.19.26-.24.05-.05.12-.13.2-.24l.16-.12v-14.34h4.42v21.85c0,2.12-.46,3.77-1.36,4.94-.92,1.19-2.47,1.88-4.67,2.1"/>
        <rect class="cls-3" x="22.59" y="35.29" width="9.79" height="10.1"/>
        <rect class="cls-3" x="9.26" y="35.29" width="9.79" height="10.1"/>
        <path class="cls-3" d="m62.44,53.66c-1.74.6-3.16,1.58-4.45,2.86-1.28,1.44-2.34,3.01-3.16,4.75-.6,1.65-.9,3.46-.9,5.34v11.08h-18.53v-25.31H13.93c-1.88,0-3.7.45-5.42,1.28-1.65.6-3.16,1.58-4.44,2.86-1.28,1.44-2.34,3.01-3.17,4.75-.59,1.65-.9,3.46-.9,5.34v22.15h89.63v-36.38h-21.47c-2.11,0-3.99.45-5.71,1.28m-38.12,24.03h-13.26v-11.08c0-1.28.31-2.03,1.59-2.56.38-.22.82-.3,1.28-.3h10.39v13.93Zm53.93,0h-13.26v-11.08c0-.67.08-1.2.3-1.58.83-.83,1.58-1.28,2.86-1.28h10.1v13.93Z"/>
        <path class="cls-3" d="m216.55,77.7h-7.47s-11.07,0-11.07,0c.23-1.05.3-2.11.3-3.16v-21.84h-11.07v21.84c0,1.58-1.44,3.16-3.17,3.16h-3.76c-.68,0-1.21-.08-1.66-.3-.98-.38-1.51-1.66-1.51-2.86v-19.96h-11.07v19.96c0,1.58-1.66,3.16-2.86,3.16h-7.31v-19.36h-11.07v19.36h-18.15v-42.41h-11.08v42.41h-6.02v-36.08h-11.07v36.08h-2.87v11.07h67.57c1.43,0,2.93-.23,4.44-.68,1.43-.6,2.79-1.36,4.07-2.19,1.05.83,2.33,1.59,3.84,2.19,1.44.45,3.02.68,4.75.68h47.61v-53.48h-11.38v42.41Z"/>
        <rect class="cls-3" x="233.94" y="35.29" width="11.08" height="53.47"/>
        <rect class="cls-3" x="280.7" y="93.73" width="9.79" height="10.1"/>
        <rect class="cls-3" x="268.35" y="93.73" width="9.87" height="10.1"/>
        <path class="cls-3" d="m355.66,53.97c-1.73-.83-3.62-1.28-5.72-1.28h-19.29l-4.44,11.07h23.72c.67,0,1.2.08,1.58.3.45.38.91.83,1.28,1.28.23.38.3.84.3,1.28v11.07h-44.44v-25.01h-11.37v25.01h-18.15v-42.41h-11.07v53.48h96.1v-22.14c0-1.88-.31-3.69-.9-5.42-1.74-3.31-4.3-6.02-7.61-7.23"/>
        <rect class="cls-3" x="335.16" y="93.73" width="9.79" height="10.1"/>
        <path class="cls-3" d="m424.13,77.69h-17.85v-11.08c0-1.88-.45-3.69-1.28-5.34-1.28-3.39-4.22-6.41-7.61-7.61-1.65-.83-3.47-1.28-5.35-1.28h-7.61c-1.88,0-3.68.45-5.34,1.28-1.73.6-3.16,1.58-4.44,2.86-1.28,1.44-2.34,3.01-3.16,4.75-.68,1.65-1.05,3.46-1.28,5.34v22.15h24.7v1.88c0,1.73-1.13,2.86-2.87,2.86h-8.59v11.08h8.59c1.88,0,3.7-.3,5.35-.98,3.61-1.43,6.18-3.99,7.61-7.53.82-1.73,1.28-3.54,1.28-5.42v-1.88h29.23v-53.47h-11.37v42.4Zm-29.23,0h-13.33v-11.08c0-1.28.45-2.03,1.27-2.56.68-.22,1.21-.3,1.58-.3h7.61c.38,0,.92.07,1.59.3.83.53,1.28,1.28,1.28,2.56v11.08Z"/>
        <rect class="cls-3" x="496.51" y="35.29" width="9.79" height="10.1"/>
        <rect class="cls-3" x="596.46" y="34.99" width="9.79" height="10.1"/>
        <rect class="cls-3" x="584.12" y="34.99" width="9.79" height="10.1"/>
        <path class="cls-3" d="m595.11,77.69h-24.48v-7.91c0-1.88-.31-3.69-.99-5.42-.82-1.65-1.88-3.24-3.16-4.74-1.28-1.28-2.7-2.18-4.44-2.86-1.66-.82-3.47-1.21-5.35-1.21h-20.87v-6.33c0-.9.69-2.19,1.59-2.56.38-.23.9-.3,1.58-.3h18v-11.07h-18c-1.89,0-3.7.3-5.42.9-1.66.83-3.24,1.88-4.75,3.16-1.28,1.28-2.18,2.79-2.79,4.45-.82,1.72-1.28,3.53-1.28,5.42v17.7h31.94c.82,0,2.04.38,2.56,1.28.23.37.3.9.3,1.57v7.91h-52.42v-25.01h-11.37v25.01h-18.15v-11.08c0-1.88-.45-3.69-1.28-5.34-1.28-3.39-4.22-6.41-7.61-7.61-1.66-.83-3.47-1.28-5.35-1.28h-7.61c-1.88,0-3.68.45-5.34,1.28-1.73.6-3.16,1.58-4.44,2.86-1.28,1.44-2.33,3.01-3.16,4.75-.68,1.65-1.06,3.46-1.28,5.34v22.15h24.7v1.88c0,1.73-1.13,2.86-2.86,2.86h-8.59v11.08h8.59c1.88,0,3.69-.3,5.35-.98,3.61-1.43,6.18-3.99,7.61-7.53.83-1.73,1.28-3.54,1.28-5.42v-1.88h128.88v-36.08h-11.38v25.01Zm-128.88,0h-13.33v-11.08c0-1.28.45-2.03,1.28-2.56.68-.22,1.21-.3,1.58-.3h7.61c.38,0,.91.07,1.58.3.83.53,1.28,1.28,1.28,2.56v11.08Z"/>
      </g>
    </g>
  </g>
</svg>