<?xml version="1.0" encoding="UTF-8"?><svg id="Layer_2" xmlns="http://www.w3.org/2000/svg" viewBox="0 0 95.12 95.12"><defs><style>.cls-1{fill:#fff;}</style></defs><g id="Layer_1-2"><g><path class="cls-1" d="M33.56,45.37c.26-.02,.46,.19,.42,.44l-.84,2.55c-.08,.52-.5,.91-1.02,.97l-6.88,.79c-.25,.02-.46-.19-.42-.44l.84-2.55c.09-.52,.51-.91,1.03-.97l6.87-.79Z"/><path class="cls-1" d="M34.71,91.58l-.4,1.48c-.02,.08-.11,.13-.2,.11C15.8,87.77,2.05,71.61,.21,52.04c-.01-.09,.06-.17,.15-.17l1.52-.09c.09,0,.16,.06,.17,.14,1.79,18.76,14.96,34.27,32.53,39.47,.08,.02,.13,.11,.11,.19"/><path class="cls-1" d="M30.16,79.05l.61-2.44c.13-.5,.58-.86,1.1-.87l6.86-.15c.26-.01,.44,.23,.38,.47l-.62,2.43c-.12,.51-.57,.86-1.09,.88l-6.87,.15c-.25,0-.43-.24-.37-.47"/><path class="cls-1" d="M24.99,40.95l14.98-3.3c.07-.02,.13,.04,.13,.11v.81c0,.4-.28,.75-.66,.83l-15.07,3.25c-.07,.02-.14-.04-.13-.11l.06-.79c.03-.39,.31-.72,.69-.8"/><path class="cls-1" d="M43.32,74.89s1.41,1.57,1.73,1.92c.32,.36,.01,.6,.01,.6,0,0-1.16,1.02-1.63,1.52-.46,.5-.83,.07-.83,.07,0,0-2-1.63-1.67-2.29,.37-.7,2.39-1.83,2.39-1.83"/><path class="cls-1" d="M37.46,50.6s.04-.06,.07-.1l-.06,.05c.02-.05,.06-.12,.11-.22,.05-.08,.11-.16,.18-.25,.08-.09,.17-.15,.29-.2,.11-.06,.26-.08,.41-.07,.1,.01,.18,.05,.25,.11,.07,.06,.1,.12,.1,.2v.04s0,.04-.02,.08c0,.02,0,.04,0,.06-.01,.03-.01,.05-.01,.07-.03,.07-.04,.14-.06,.23-.01,.07-.02,.15-.03,.23-.02,.08-.02,.14-.03,.2-.01,.06-.01,.12-.01,.18v.16c.02,.11,.08,.21,.16,.3,.08,.09,.22,.15,.4,.2,0-.01,.02-.02,.08-.02,.17,0,.41-.03,.7-.11,.15-.03,.29-.11,.41-.24,.12-.12,.23-.27,.31-.43,.09-.17,.16-.34,.2-.51,.05-.16,.08-.32,.1-.45l.65-.47c.13-.1,.29-.12,.44-.06,.16,.05,.24,.14,.24,.28,0,.02,0,.03,0,.04,0,.01-.01,.02-.01,.03v.1s-.01,.09-.01,.14v.32c.01,.07,.02,.13,.03,.18,.01,.17,.09,.31,.25,.4,.26,.19,.43,.29,.54,.29h.06c.16-.04,.31-.12,.43-.25,.12-.13,.23-.29,.29-.48l-.02,.02c.06-.23,.09-.4,.09-.52v-.1s.02-.07,.05-.12c.03-.05,.06-.08,.08-.1l.67-.47c.14-.09,.29-.11,.43-.06,.15,.05,.24,.14,.24,.29,0,.04-.01,.07-.01,.11-.01,.03-.01,.06-.01,.1-.03,.26-.06,.55-.1,.9-.05,.36-.12,.7-.22,1.04-.09,.35-.24,.67-.42,.98-.18,.31-.41,.54-.68,.73-.15,.1-.32,.18-.5,.24-.18,.06-.38,.09-.59,.09-.2,0-.47-.04-.81-.11-.17-.08-.33-.15-.46-.23-.13-.08-.25-.16-.35-.25-.25,.28-.57,.52-.98,.72-.41,.19-.82,.32-1.22,.36h-.07c-.37-.02-.67-.07-.91-.16-.25-.08-.45-.19-.61-.33-.16-.13-.29-.3-.36-.47-.07-.18-.12-.37-.15-.57,0-.03-.02-.08-.02-.13v-.14c0-.13,.01-.28,.03-.41,.02-.14,.06-.3,.12-.46,.06-.15,.11-.31,.16-.45,.04-.14,.09-.27,.13-.38v-.02s0-.03,.02-.05c0-.03,.01-.06,.03-.08"/><path class="cls-1" d="M23.66,57.06c.92-2.2,3.5-5.07,8.52-5.94,0,0,1.27-.21,1.81-.27,.53-.05,1.25-.19,1.07,1.13-.16,1.32-.55,7.3-.55,7.3,0,0-.42,1.3,1.15,1.1,1.58-.19,3.39-.53,5.33-2.18,1.94-1.65,1.34,.8,1.34,.8l-.15,.55s1.49-.25,2.6-1.28c.72-.67,1.26-1.2,1.55-1.48,.1-.09,.27-.03,.28,.11,.04,1.09-.13,4.5-3.64,6.54,0,0-1.27,1.22-4.32,.3,0,0-.98-.32-2.21,.56-1.22,.87-3.7,.72-3.7,.72,0,0-1.18,.25-.88-1.09l.53-7.85s.33-1.42-1.15-.93c-1.48,.48-2.6,.76-3.13,1.19-.54,.44,.55,.36,.55,.36l1.71-.16s1.09-.3,1.02,.98c-.08,1.28-.15,1.59-.15,1.59,0,0-.25,1.83-2.65,2.11-2.41,.28-3.59-.22-4.05-.62-.47-.39-1.81-1.34-.89-3.54"/><path class="cls-1" d="M40.76,25.01c-.2-1.56-.48-6.22,3.05-7.84,2.68-1.23,3.41,1.84,3.41,1.84,0,0-.34,2.17-1.24,4.33-.06,.16-.3,.16-.36,0-.26-.72-.84-1.91-1.77-1.54-.81,.33-2.17,2.37-2.75,3.29-.09,.15-.33,.1-.35-.08"/><path class="cls-1" d="M38.51,23.66c-1.12,2.91-1.5,5.36,.64,6.82,1.87,1.28,6.27,.01,8.54-1.79,2.25-1.79,2.62-1.46,2.62-1.46-1.18,4.48-6.86,13.39-6.86,13.39-.81-1.76-.42-2.15-.42-2.15,1.8-3.06,1.76-3.94,1.76-3.94,0,0-6.7,2.69-8.73-3.02-1.7-4.78,1.25-7.3,2.26-7.99,.1-.07,.23,.03,.18,.14"/><path class="cls-1" d="M53.11,21.08s.04-.06,.07-.1l-.06,.05c.03-.05,.06-.12,.11-.22,.05-.08,.11-.16,.19-.25,.07-.09,.16-.15,.28-.21,.11-.05,.26-.07,.42-.06,.09,.01,.17,.05,.24,.11,.06,.06,.09,.12,.09,.2,0,.02,0,.03,0,.04,0,.01,0,.03-.03,.08,0,.02,0,.04,0,.06-.01,.03-.01,.05-.01,.07-.02,.07-.04,.14-.05,.23-.02,.07-.03,.15-.04,.23-.01,.08-.02,.14-.03,.2-.01,.06-.01,.12-.01,.18v.16c.03,.11,.08,.21,.16,.3,.08,.08,.22,.15,.4,.2,0,0,.03-.02,.08-.02,.17,0,.41-.03,.71-.11,.14-.04,.28-.11,.4-.23,.12-.12,.23-.27,.31-.44,.09-.16,.16-.33,.21-.5,.04-.16,.08-.32,.09-.45l.66-.47c.14-.1,.29-.12,.44-.07,.16,.06,.24,.15,.24,.29,0,.02,0,.03,0,.04v.13s-.02,.09-.02,.14v.15s0,.1,.01,.16c0,.07,.01,.13,.02,.18,.02,.17,.1,.31,.25,.4,.26,.19,.44,.29,.55,.29h.05c.16-.04,.31-.12,.43-.25,.13-.13,.23-.29,.29-.48l-.02,.02c.06-.23,.09-.4,.09-.53v-.09s.02-.07,.05-.12c.03-.05,.06-.09,.08-.1l.67-.47c.14-.09,.29-.11,.44-.06,.14,.05,.23,.14,.23,.29,0,.04-.01,.07-.01,.1-.01,.04-.01,.07-.01,.11-.03,.26-.06,.55-.1,.9-.05,.36-.12,.7-.21,1.04-.1,.35-.25,.67-.43,.98-.18,.3-.41,.54-.68,.73-.15,.1-.32,.18-.5,.23-.17,.06-.38,.09-.58,.09s-.47-.04-.82-.12c-.17-.07-.33-.15-.46-.23-.12-.08-.25-.16-.35-.25-.25,.29-.57,.53-.98,.73-.41,.19-.81,.32-1.22,.36h-.07c-.37-.02-.67-.07-.91-.16-.25-.08-.45-.19-.61-.33-.16-.14-.29-.3-.36-.47-.07-.18-.12-.37-.15-.57,0-.04-.02-.08-.02-.13v-.14c0-.13,.01-.28,.03-.42,.02-.13,.06-.29,.12-.45,.06-.16,.12-.31,.16-.45,.04-.14,.09-.27,.14-.38v-.02s0-.04,.01-.05c0-.03,.01-.06,.03-.08"/><path class="cls-1" d="M39.62,72.07c-3.12-.46-5.74-1.71-6.69-2.2-.12-.06-.09-.26,.05-.28l9.06-1.67c.17-.03,.34-.05,.51-.07,.73-.06,3.07-.42,3.73-2.41,.45-1.38,1.64-2.51,3.1-2.81,1.47-.3,1.81-.73,1.81-.73,0,0-1.4-.19-2.3-.11-.9,.07-.58-.53-.53-.68,.04-.14,.79-1.79,.79-1.79,.86-2.06,3.47-2.67,3.47-2.67,4.41-.87,3.15,4.19,3.15,4.19l1.46-.3c1.02-.09,1.06-1.27,1.06-1.27l.28-9.24c.02-.82,.37-1.58,.95-2.15l2.7-2.61c.07-.07,.18-.02,.18,.08l-.83,13.02c-.01,.26-.07,.59-.25,.79l-2.26,3.6c-.47,1-2.2,1.46-2.2,1.46,0,0-6.58,1.9-8.17,2.28-1.59,.39-1.71,1.53-1.71,1.53l-.35,.85c-1.33,2.9-3.11,3.75-7.02,3.17"/><path class="cls-1" d="M67.5,45.75c.06-.06,.18-.01,.18,.08l-.66,15.96c0,.26-.11,.5-.29,.7l-2.71,2.92c-.06,.07-.18,.02-.18-.07l.47-15.3c.02-.82,.37-1.58,.95-2.16l2.24-2.14Z"/><path class="cls-1" d="M63.54,19.75c-.3,.04-.53-.25-.44-.52l.79-2.47c.16-.49,.58-.85,1.08-.91l6.39-.88c.29-.03,.51,.21,.45,.49l-.55,2.36c-.13,.53-.57,.93-1.11,1.01l-6.6,.92Z"/><path class="cls-1" d="M67.1,27.3l1.23,.63s2.52,1.25,1.38,4.91c-1.14,3.67-4.38,4.02-5.06,4.14-.66,.11-3.17,.42-3.89,.49-.69,.06-1.85-.02-1.98-.94-.13-.91-.66-1.21-.66-1.21,0,0-.55-.06-.7,1.38-.15,1.43-1.36,1.37-1.36,1.37,0,0-3.15,.44-5.21-.56-1.53-.74-2.34-1.73-2.65-2.18-.08-.12-.02-.28,.12-.31,1.06-.21,4.86-.75,6.02-.93,1.33-.21,2.53-.68,2.76-1.98,.23-1.3,.63-2.3,1.28-2.5,.65-.2,1.55,1.21,1.58,2.26,.02,.96,1.13,.79,1.13,.79,3.63,.03,4.6-.94,4.6-.94,0,0-.48-.6-2.24-.43-1.77,.16-1.67-.96-1.67-.96,.03-3.43,4.11-8.01,7.14-8.17,2.19-.11,2.8,1.53,2.97,2.46,.07,.35,.02,.7-.14,1.03l-1,2.04c-.07,.14-.26,.19-.39,.1l-.86-.59c-1.12-1.23-2.41,.09-2.41,.09"/><path class="cls-1" d="M1.73,48.99l-1.53,.09c-.09,0-.16-.06-.17-.15-.01-.46-.02-.92-.02-1.38C0,21.33,21.34,0,47.55,0c10.5,0,20.19,3.41,28.06,9.19,.07,.05,.09,.15,.03,.23l-.94,1.22c-.05,.06-.14,.08-.21,.03C66.93,5.12,57.62,1.85,47.55,1.85,22.36,1.85,1.85,22.35,1.85,47.55c0,.43,.01,.86,.02,1.28,0,.09-.06,.16-.14,.16"/><path class="cls-1" d="M89.25,70.07c.08,.04,.11,.14,.07,.23-8.07,14.78-23.77,24.82-41.76,24.82-3.59,0-7.08-.4-10.44-1.16-.08-.02-.14-.11-.11-.2l.39-1.48c.02-.08,.1-.13,.18-.11,3.22,.72,6.55,1.09,9.98,1.09,17.27,0,32.34-9.63,40.1-23.81,.04-.07,.14-.1,.21-.06l1.37,.68Z"/><path class="cls-1" d="M95.12,47.55c0,7.12-1.58,13.88-4.39,19.96-.04,.08-.14,.11-.23,.07l-1.37-.68c-.07-.04-.1-.13-.07-.21,2.7-5.81,4.2-12.3,4.2-19.13,0-14.03-6.36-26.6-16.34-34.99-.06-.05-.07-.15-.02-.21l.94-1.22c.06-.07,.16-.08,.23-.02,10.41,8.73,17.05,21.83,17.05,36.44"/><path class="cls-1" d="M95.12,47.55c0,7.12-1.58,13.88-4.39,19.96-.04,.08-.14,.11-.23,.07l-1.37-.68c-.07-.04-.1-.13-.07-.21,2.7-5.81,4.2-12.3,4.2-19.13,0-14.03-6.36-26.6-16.34-34.99-.06-.05-.07-.15-.02-.21l.94-1.22c.06-.07,.16-.08,.23-.02,10.41,8.73,17.05,21.83,17.05,36.44"/><path class="cls-1" d="M75.65,9.41l-.94,1.22c-.05,.06-.14,.08-.21,.03C66.93,5.12,57.62,1.85,47.55,1.85,22.36,1.85,1.85,22.35,1.85,47.55c0,.43,.01,.86,.02,1.28,0,.09-.06,.16-.14,.16l-1.53,.09c-.09,.01-.16-.06-.17-.15-.01-.46-.02-.92-.02-1.38C0,21.33,21.34,0,47.55,0,58.05,0,67.75,3.41,75.62,9.19c.07,.05,.09,.15,.03,.23"/><path class="cls-1" d="M89.32,70.29c-8.07,14.78-23.77,24.82-41.76,24.82-3.59,0-7.08-.4-10.44-1.16-.08-.02-.14-.11-.11-.2l.39-1.48c.02-.08,.1-.13,.18-.11,3.22,.72,6.55,1.09,9.98,1.09,17.27,0,32.34-9.63,40.1-23.81,.04-.07,.14-.1,.21-.06l1.37,.68c.08,.04,.11,.14,.07,.23"/><path class="cls-1" d="M34.71,91.58l-.4,1.48c-.02,.08-.11,.13-.2,.11C15.8,87.77,2.05,71.61,.21,52.04c-.01-.09,.06-.17,.15-.17l1.52-.09c.09,0,.16,.06,.17,.14,1.79,18.76,14.96,34.27,32.53,39.47,.08,.02,.13,.11,.11,.19"/><path class="cls-1" d="M71.8,15.46l-.55,2.36c-.13,.53-.57,.93-1.11,1.01l-6.6,.92c-.3,.04-.53-.25-.44-.52l.79-2.47c.16-.49,.58-.85,1.08-.91l6.39-.88c.29-.03,.51,.21,.45,.49"/><path class="cls-1" d="M47.22,19.01s-.34,2.17-1.24,4.33c-.06,.16-.3,.16-.36,0-.26-.72-.84-1.91-1.77-1.54-.81,.33-2.17,2.37-2.75,3.29-.09,.15-.33,.1-.35-.08-.2-1.56-.48-6.22,3.05-7.84,2.68-1.23,3.41,1.84,3.41,1.84"/><path class="cls-1" d="M50.31,27.23c-1.18,4.48-6.86,13.39-6.86,13.39-.81-1.76-.42-2.15-.42-2.15,1.8-3.06,1.76-3.94,1.76-3.94,0,0-6.7,2.69-8.73-3.02-1.7-4.78,1.25-7.3,2.26-7.99,.1-.07,.23,.03,.18,.14-1.12,2.91-1.5,5.36,.64,6.82,1.87,1.28,6.27,.01,8.54-1.79,2.25-1.79,2.62-1.46,2.62-1.46"/><path class="cls-1" d="M40.1,37.76v.81c0,.4-.28,.75-.66,.83l-15.07,3.25c-.07,.02-.14-.04-.13-.11l.06-.79c.03-.39,.31-.72,.69-.8l14.98-3.3c.07-.02,.13,.04,.13,.11"/><path class="cls-1" d="M39.11,76.06l-.62,2.43c-.12,.51-.57,.86-1.09,.88l-6.87,.15c-.25,0-.43-.23-.37-.47l.61-2.44c.13-.5,.58-.86,1.1-.87l6.86-.15c.26-.01,.44,.23,.38,.47"/><path class="cls-1" d="M33.98,45.8l-.84,2.55c-.08,.52-.5,.91-1.02,.97l-6.88,.79c-.25,.02-.46-.19-.42-.44l.84-2.55c.09-.52,.51-.91,1.03-.97l6.87-.79c.26-.02,.46,.19,.42,.44"/><path class="cls-1" d="M45.06,77.41s-1.16,1.02-1.64,1.52c-.46,.5-.83,.07-.83,.07,0,0-2-1.62-1.67-2.29,.37-.7,2.39-1.83,2.39-1.83,0,0,1.41,1.57,1.73,1.92,.32,.36,.01,.6,.01,.6"/><path class="cls-1" d="M61.09,20.07s-.01,.07-.01,.1c0,.04,0,.07,0,.11-.03,.26-.06,.55-.1,.9-.05,.36-.12,.69-.21,1.04-.1,.35-.25,.67-.43,.98-.18,.3-.41,.54-.68,.73-.15,.1-.32,.18-.5,.23-.17,.06-.38,.09-.58,.09s-.47-.04-.82-.12c-.17-.07-.33-.15-.46-.23-.12-.08-.25-.16-.35-.26-.25,.29-.57,.53-.98,.73-.41,.19-.81,.32-1.22,.36h-.07c-.37-.02-.66-.07-.91-.16-.25-.08-.45-.19-.61-.33-.16-.14-.29-.3-.36-.47-.07-.18-.12-.37-.15-.57-.01-.04-.02-.08-.02-.13v-.14c0-.13,.01-.28,.03-.42,.02-.13,.06-.29,.12-.45,.06-.16,.12-.31,.16-.45,.04-.14,.09-.27,.14-.38v-.02s0-.04,0-.05c0-.03,.01-.06,.03-.08,.02-.02,.04-.06,.07-.1l-.06,.05c.03-.05,.06-.12,.11-.21,.05-.08,.11-.16,.19-.25,.07-.09,.16-.15,.28-.21,.11-.05,.25-.07,.42-.06,.09,0,.17,.05,.25,.11,.06,.06,.09,.12,.09,.2,0,.02,0,.03,.01,.04,0,0-.01,.03-.03,.08,0,.02,0,.04-.01,.06-.01,.03-.01,.05-.01,.07-.02,.07-.04,.14-.05,.22-.02,.07-.03,.15-.04,.24s-.02,.14-.03,.2c-.01,.06-.01,.12-.01,.18v.16c.03,.11,.08,.22,.16,.3s.22,.15,.4,.2c0-.01,.03-.02,.08-.02,.17,0,.41-.03,.72-.11,.14-.04,.28-.11,.4-.23,.12-.12,.23-.27,.31-.44,.09-.16,.16-.33,.21-.5,.04-.16,.08-.32,.09-.45l.66-.47c.14-.1,.29-.12,.44-.07,.16,.06,.24,.15,.24,.29,0,.02,0,.03-.01,.04v.13s-.02,.09-.02,.14v.15s0,.1,0,.16c0,.07,.01,.13,.02,.18,.02,.17,.1,.31,.24,.4,.26,.19,.44,.29,.55,.29h.05c.16-.04,.31-.12,.43-.24,.13-.13,.23-.29,.29-.48l-.02,.02c.06-.22,.09-.4,.09-.53v-.09s.02-.07,.05-.12c.03-.05,.06-.09,.08-.1l.67-.47c.14-.09,.29-.11,.44-.06,.14,.05,.23,.14,.23,.29"/><path class="cls-1" d="M45.44,49.59s-.01,.07-.01,.11c0,.03,0,.06,0,.1-.03,.25-.06,.55-.1,.9-.05,.36-.12,.69-.23,1.04-.09,.35-.24,.67-.42,.98-.18,.31-.41,.54-.68,.73-.15,.1-.32,.18-.5,.23-.18,.06-.38,.09-.59,.09-.19,0-.47-.04-.81-.11-.17-.08-.33-.15-.46-.24-.13-.08-.25-.16-.35-.25-.25,.28-.57,.52-.98,.72-.41,.19-.82,.32-1.22,.36h-.07c-.37-.02-.66-.07-.91-.16-.25-.08-.45-.19-.61-.33s-.29-.3-.36-.47c-.07-.18-.12-.37-.15-.57-.01-.03-.02-.08-.02-.13v-.14c0-.13,.01-.28,.03-.41,.02-.14,.06-.3,.12-.46,.06-.15,.11-.31,.16-.45,.04-.14,.09-.27,.13-.38v-.02s.01-.03,.02-.05c0-.03,.01-.06,.03-.08,.02-.02,.04-.06,.07-.1l-.06,.05c.02-.05,.06-.12,.11-.21,.05-.08,.11-.16,.18-.25,.08-.09,.17-.15,.29-.2,.11-.06,.25-.08,.41-.07,.1,.01,.18,.05,.25,.11,.07,.06,.1,.12,.1,.2v.04s0,.04-.02,.08c0,.02-.01,.04-.01,.06-.01,.03-.01,.05-.01,.07-.03,.07-.04,.14-.06,.22-.01,.07-.02,.15-.03,.23-.02,.08-.02,.14-.03,.2-.01,.06-.01,.12-.01,.18v.16c.02,.11,.08,.21,.16,.3,.08,.09,.22,.15,.4,.2,0-.01,.02-.02,.08-.02,.17,0,.41-.03,.7-.11,.15-.03,.29-.11,.41-.23,.12-.12,.22-.27,.31-.43,.09-.17,.16-.34,.2-.51,.05-.16,.08-.32,.1-.45l.65-.47c.13-.1,.29-.12,.44-.06,.16,.05,.24,.14,.24,.28,0,.02,0,.03-.01,.04,0,.01-.01,.02-.01,.03v.1s0,.09,0,.14v.32c0,.07,.02,.13,.03,.18,0,.17,.09,.31,.24,.4,.26,.19,.43,.29,.54,.29h.06c.16-.04,.31-.12,.43-.25,.12-.13,.23-.29,.29-.48l-.02,.02c.06-.22,.09-.4,.09-.52v-.1s.02-.07,.05-.12c.03-.05,.06-.08,.08-.1l.67-.47c.14-.09,.29-.11,.43-.06,.15,.05,.24,.14,.24,.29"/><path class="cls-1" d="M71.76,25.65l-1,2.04c-.07,.14-.26,.19-.39,.1l-.86-.59c-1.12-1.23-2.41,.09-2.41,.09l1.23,.63s2.52,1.25,1.38,4.91c-1.14,3.67-4.38,4.02-5.06,4.14-.66,.11-3.17,.42-3.89,.49-.7,.06-1.85-.02-1.98-.94-.13-.91-.66-1.21-.66-1.21,0,0-.55-.06-.7,1.38-.15,1.43-1.36,1.37-1.36,1.37,0,0-3.15,.44-5.21-.56-1.53-.74-2.34-1.73-2.65-2.18-.08-.12-.02-.28,.12-.31,1.06-.21,4.86-.75,6.02-.93,1.33-.21,2.54-.68,2.76-1.98,.23-1.3,.63-2.3,1.28-2.5,.65-.2,1.55,1.21,1.58,2.26,.02,.96,1.14,.79,1.14,.79,3.63,.03,4.6-.94,4.6-.94,0,0-.48-.6-2.24-.43-1.77,.16-1.67-.96-1.67-.96,.03-3.43,4.11-8.01,7.14-8.17,2.19-.11,2.8,1.53,2.97,2.46,.07,.35,.02,.7-.14,1.03"/><path class="cls-1" d="M67.69,45.84l-.66,15.96c-.01,.26-.11,.5-.29,.7l-2.71,2.92c-.06,.07-.18,.02-.18-.07l.47-15.3c.02-.82,.37-1.58,.95-2.16l2.24-2.14c.06-.06,.18-.01,.18,.08"/><path class="cls-1" d="M62.39,45.38l-.83,13.02c-.01,.26-.07,.59-.25,.79l-2.26,3.6c-.47,1-2.2,1.46-2.2,1.46,0,0-6.58,1.9-8.17,2.28-1.59,.39-1.71,1.53-1.71,1.53l-.35,.85c-1.33,2.9-3.11,3.75-7.02,3.17-3.12-.46-5.74-1.71-6.69-2.2-.12-.06-.09-.26,.05-.28l9.06-1.67c.17-.03,.34-.05,.51-.07,.73-.06,3.07-.42,3.73-2.41,.45-1.38,1.63-2.51,3.1-2.81,1.47-.3,1.81-.73,1.81-.73,0,0-1.4-.19-2.3-.11-.9,.07-.58-.53-.53-.68,.04-.14,.79-1.79,.79-1.79,.86-2.06,3.47-2.67,3.47-2.67,4.41-.87,3.15,4.19,3.15,4.19l1.46-.3c1.02-.09,1.06-1.27,1.06-1.27l.28-9.24c.02-.82,.37-1.58,.95-2.15l2.7-2.61c.07-.07,.18-.02,.18,.08"/><path class="cls-1" d="M42.97,63.45s-1.27,1.22-4.32,.3c0,0-.98-.32-2.21,.56-1.22,.87-3.7,.72-3.7,.72,0,0-1.17,.26-.88-1.09l.53-7.85s.33-1.42-1.16-.93c-1.48,.48-2.6,.76-3.13,1.19-.54,.44,.55,.36,.55,.36l1.71-.16s1.09-.3,1.02,.98c-.08,1.28-.15,1.59-.15,1.59,0,0-.24,1.83-2.65,2.11-2.41,.28-3.59-.23-4.05-.62-.47-.39-1.81-1.34-.89-3.54,.92-2.2,3.49-5.07,8.52-5.94,0,0,1.27-.21,1.81-.27,.53-.05,1.25-.19,1.07,1.13-.16,1.32-.55,7.3-.55,7.3,0,0-.42,1.3,1.15,1.1,1.58-.19,3.39-.53,5.33-2.18,1.94-1.65,1.34,.8,1.34,.8l-.15,.55s1.49-.25,2.6-1.28c.72-.67,1.26-1.2,1.55-1.48,.1-.09,.27-.03,.28,.11,.04,1.09-.13,4.5-3.64,6.54"/></g></g></svg>