<?xml version="1.0" encoding="UTF-8"?>
<svg id="Layer_2" data-name="Layer 2" xmlns="http://www.w3.org/2000/svg" viewBox="0 0 1758.05 427.12">
  <defs>
    <style>
      .cls-1 {
        fill: #fff;
      }
    </style>
  </defs>
  <g id="Layer_1-2" data-name="Layer 1">
    <g>
      <path class="cls-1" d="m154.12,402.82c-2.26-.87-4.23-2.21-5.89-4.01-1.66-1.81-2.95-4.13-3.86-6.97-.91-2.83-1.37-6.18-1.37-10.05v-6.47h5.1v6.58c0,5.93,1.11,10.21,3.34,12.85,2.23,2.65,5.62,3.96,10.14,3.96h54.12v-35.76h5.65v41.18h-59.77c-2.71,0-5.19-.44-7.45-1.3m23.67-48.08h-5.66v-11.31h5.66v11.31Zm14.04,0h-5.66v-11.31h5.66v11.31Z"/>
      <polygon class="cls-1" points="275.47 335.02 281.13 335.02 281.13 404.12 230.78 404.12 230.78 398.71 244.27 398.71 244.27 352.9 249.92 352.9 249.92 398.71 275.47 398.71 275.47 335.02"/>
      <path class="cls-1" d="m303.95,426.93c-1.01-.14-1.86-.29-2.55-.49-.82-.26-1.55-.51-2.17-.77v-5.9c.88.45,1.93.83,3.15,1.12,1.23.28,2.44.43,3.63.43,2.89,0,5.44-.26,7.64-.77,2.2-.52,4.09-1.44,5.66-2.76,1.57-1.32,2.85-3.08,3.82-5.27.97-2.19,1.74-4.99,2.31-8.41h-12.36c-3.33,0-6.22-.57-8.67-1.74-2.45-1.15-4.5-2.75-6.13-4.78-1.63-2.03-2.86-4.42-3.67-7.15-.82-2.75-1.24-5.72-1.24-8.94s.3-6.33.9-9.32c.6-3,1.63-5.64,3.11-7.93,1.48-2.29,3.49-4.13,6.04-5.52,2.55-1.38,5.76-2.07,9.65-2.07s7.12.65,9.67,1.93c2.55,1.28,4.56,3.18,6.03,5.66,1.48,2.48,2.53,5.5,3.12,9.09.59,3.57.9,7.64.9,12.22,0,7.86-.47,14.43-1.42,19.71-.94,5.28-2.42,9.55-4.44,12.81-2.01,3.25-4.63,5.58-7.87,6.96-3.23,1.38-7.12,2.07-11.64,2.07-1.32,0-2.48-.06-3.49-.19m-1.18-32.62c2.11,2.94,5.55,4.4,10.32,4.4h13.02c.13-1.93.24-4.02.33-6.27.09-2.26.14-4.71.14-7.35,0-7.61-1.01-13.28-3.02-17.01-2.01-3.73-5.47-5.61-10.37-5.61-2.45,0-4.54.47-6.27,1.4-1.73.94-3.13,2.23-4.2,3.91-1.07,1.68-1.85,3.69-2.35,6.05-.51,2.34-.76,4.91-.76,7.68,0,5.6,1.05,9.87,3.16,12.8"/>
      <rect class="cls-1" x="587.19" y="335.01" width="5.66" height="11.31"/>
      <rect class="cls-1" x="573.14" y="335.01" width="5.66" height="11.31"/>
      <path class="cls-1" d="m700.62,398.71h-19.62c-3.77,0-6.77-1.24-9.01-3.71-2.23-2.48-3.34-6.37-3.34-11.65,0-3.54-.45-6.77-1.37-9.67-.91-2.9-2.24-5.4-4-7.49-1.76-2.1-3.95-3.73-6.55-4.89-2.61-1.15-5.62-1.74-9.01-1.74s-6.4.58-9.01,1.74c-2.61,1.16-4.79,2.79-6.56,4.89-1.76,2.09-3.09,4.59-4,7.49-.92,2.9-1.37,6.12-1.37,9.67,0,5.28-1.11,9.16-3.34,11.65-2.23,2.48-5.24,3.71-9.01,3.71h-17.82c2.01-2.05,3.69-4.65,5.04-7.78,1.35-3.13,2.03-6.62,2.03-10.49,0-3.54-.46-6.77-1.37-9.66-.91-2.9-2.25-5.4-4.01-7.49-1.76-2.09-3.94-3.72-6.56-4.88-2.61-1.16-5.61-1.74-9-1.74s-6.39.57-9.01,1.74c-2.61,1.16-4.79,2.79-6.55,4.88-1.76,2.09-3.09,4.59-4,7.49-.92,2.9-1.37,6.12-1.37,9.66,0,3.86.68,7.36,2.03,10.49,1.35,3.13,3.03,5.73,5.05,7.78h-208.1c-.08,0-.16.01-.24.02-.07,0-.15-.02-.24-.02h-9.62v-63.69h-5.65v69.1h15.27c.09,0,.16,0,.24,0,.08,0,.16,0,.24,0h253.64c3.77,0,6.88-.65,9.34-1.93,2.45-1.29,4.11-3.67,5-7.15,1.44,3.73,3.74,6.67,6.88,8.79,3.14,2.13,7.16,3.19,12.07,3.19s8.91-1.06,12.02-3.19c3.11-2.12,5.43-5.06,6.93-8.79.82,3.48,2.47,5.86,4.96,7.15,2.48,1.28,5.61,1.93,9.38,1.93h25.27v-69.1h-5.65v63.69Zm-117.87.2c-4.52,0-8.14-1.59-10.84-4.74-2.7-3.15-4.06-7.73-4.06-13.73s1.36-10.5,4.06-13.53c2.7-3.03,6.32-4.54,10.84-4.54s8.14,1.51,10.84,4.54c2.7,3.03,4.06,7.54,4.06,13.53s-1.36,10.57-4.06,13.73c-2.7,3.15-6.32,4.74-10.84,4.74m75.81-2.09c-2.7,3-6.32,4.5-10.84,4.5s-8.14-1.5-10.85-4.5c-2.7-2.99-4.05-7.48-4.05-13.48s1.35-10.51,4.05-13.53c2.71-3.03,6.33-4.55,10.85-4.55s8.14,1.52,10.84,4.55c2.7,3.02,4.06,7.53,4.06,13.53s-1.36,10.49-4.06,13.48"/>
      <rect class="cls-1" x="720.42" y="335.02" width="5.66" height="69.1"/>
      <path class="cls-1" d="m748.9,426.93c-1.01-.14-1.86-.29-2.55-.49-.82-.26-1.55-.51-2.17-.77v-5.9c.87.45,1.93.83,3.15,1.12,1.23.28,2.44.43,3.63.43,2.9,0,5.44-.26,7.64-.77,2.19-.52,4.08-1.44,5.66-2.76,1.57-1.32,2.84-3.08,3.82-5.27.97-2.19,1.74-4.99,2.31-8.41h-12.36c-3.33,0-6.22-.57-8.68-1.74-2.44-1.15-4.49-2.75-6.12-4.78-1.63-2.03-2.86-4.42-3.68-7.15-.82-2.75-1.23-5.72-1.23-8.94s.3-6.33.9-9.32c.59-3,1.63-5.64,3.11-7.93,1.48-2.29,3.49-4.13,6.04-5.52,2.55-1.38,5.77-2.07,9.66-2.07s7.12.65,9.67,1.93c2.55,1.28,4.56,3.18,6.03,5.66,1.48,2.48,2.52,5.5,3.11,9.09.6,3.57.9,7.64.9,12.22,0,7.86-.47,14.43-1.42,19.71-.93,5.28-2.42,9.55-4.43,12.81-2.01,3.25-4.63,5.58-7.87,6.96-3.23,1.38-7.12,2.07-11.65,2.07-1.32,0-2.48-.06-3.48-.19m-1.18-32.62c2.11,2.94,5.54,4.4,10.32,4.4h13.01c.14-1.93.24-4.02.34-6.27.09-2.26.14-4.71.14-7.35,0-7.61-1-13.28-3.02-17.01-2.01-3.73-5.46-5.61-10.37-5.61-2.44,0-4.54.47-6.27,1.4-1.73.94-3.13,2.23-4.19,3.91-1.07,1.68-1.85,3.69-2.35,6.05-.51,2.34-.76,4.91-.76,7.68,0,5.6,1.05,9.87,3.16,12.8"/>
      <path class="cls-1" d="m821.07,403.25c-2.6-1.29-4.78-3.02-6.55-5.22-1.76-2.19-3.06-4.75-3.91-7.68-.85-2.94-1.28-6.08-1.28-9.43s.43-6.49,1.28-9.42c.85-2.94,2.15-5.5,3.91-7.68,1.77-2.19,3.95-3.94,6.55-5.22,2.61-1.29,5.68-1.94,9.2-1.94s6.58.65,9.19,1.94c2.62,1.28,4.8,3.02,6.56,5.22,1.76,2.19,3.07,4.75,3.91,7.68.85,2.92,1.27,6.07,1.27,9.42s-.42,6.49-1.27,9.43c-.84,2.92-2.15,5.49-3.91,7.68-1.76,2.19-3.94,3.93-6.56,5.22-2.61,1.29-5.67,1.94-9.19,1.94s-6.58-.65-9.2-1.94m20.47-9.09c2.35-3.28,3.53-7.7,3.53-13.24s-1.18-9.89-3.53-13.24c-2.36-3.35-6.12-5.02-11.28-5.02s-8.91,1.67-11.27,5.02c-2.36,3.35-3.54,7.76-3.54,13.24s1.18,9.96,3.54,13.24c2.36,3.29,6.12,4.94,11.27,4.94s8.91-1.65,11.28-4.94m-13.54-47.84h-5.66v-11.31h5.66v11.31Zm14.05,0h-5.66v-11.31h5.66v11.31Z"/>
      <path class="cls-1" d="m869.07,420.51c1.1-.55,1.98-1.49,2.64-2.8.66-1.32,1.13-3.04,1.42-5.18.28-2.12.41-4.79.41-8.01v-41.56h5.66v41.56c0,3.42-.22,6.51-.66,9.28-.44,2.77-1.18,5.16-2.21,7.15-1.04,2-2.39,3.53-4.05,4.59-1.67,1.06-3.73,1.59-6.18,1.59-1.33,0-2.42-.07-3.31-.24-.88-.16-1.57-.36-2.07-.62-.63-.26-1.13-.55-1.51-.87v-5.71c.95.52,1.87.92,2.78,1.22.91.28,1.9.43,2.97.43,1.63,0,3-.28,4.1-.82"/>
      <rect class="cls-1" x="1035.44" y="413.31" width="5.66" height="11.31"/>
      <rect class="cls-1" x="1095.31" y="335.01" width="5.66" height="11.31"/>
      <rect class="cls-1" x="1109.36" y="335.01" width="5.66" height="11.31"/>
      <path class="cls-1" d="m1180.27,335.02v63.69h-21.22c-1.88,0-3.58-.44-5.08-1.31-1.51-.87-2.82-2.03-3.92-3.47-1.09-1.45-1.92-3.11-2.5-4.98-.56-1.87-.84-3.77-.84-5.7v-48.23h-5.56v51.62c0,4.25-.82,7.33-2.45,9.23-1.63,1.9-3.86,2.85-6.69,2.85h-11.23c-1.88,0-3.59-.44-5.08-1.31-1.51-.87-2.82-2.03-3.92-3.47-1.11-1.45-1.94-3.11-2.5-4.98-.56-1.87-.84-3.77-.84-5.7v-20.3h-5.56v23.68c0,4.25-.82,7.33-2.45,9.23-1.63,1.9-3.87,2.85-6.69,2.85h-18.11c-3.27,0-5.98-1.11-8.11-3.34-2.14-2.22-3.21-5.27-3.21-9.13v-4.35c0-3.87-.65-7.36-1.98-10.49-1.32-3.13-3.14-5.79-5.46-7.97-2.33-2.19-5.06-3.87-8.2-5.02-3.15-1.16-6.54-1.74-10.19-1.74-3.33,0-6.41.56-9.24,1.69-2.83,1.13-5.33,2.68-7.49,4.65-2.17,1.96-3.93,4.23-5.29,6.81-1.35,2.58-2.15,5.31-2.4,8.22h5.46c.26-2.38.95-4.56,2.07-6.52,1.13-1.96,2.55-3.64,4.25-5.03,1.7-1.38,3.63-2.46,5.8-3.23,2.17-.78,4.45-1.16,6.83-1.16,2.65,0,5.18.43,7.59,1.3,2.43.86,4.56,2.13,6.41,3.77,1.86,1.64,3.35,3.63,4.48,5.95,1.13,2.32,1.69,4.96,1.69,7.92v17.69h-149.53c-.08,0-.16.01-.24.02-.08,0-.16-.02-.23-.02h-9.62v-63.69h-5.66v69.1h15.28c.08,0,.15,0,.23,0s.16,0,.24,0h152.56c.93-1.22,1.6-2.43,1.98-3.62.37-1.2.59-2.14.65-2.86.32.97.91,1.86,1.8,2.66.88.8,1.86,1.51,2.96,2.08,1.09.57,2.23,1.01,3.4,1.3,1.16.29,2.19.43,3.07.43h18.11c2.83,0,5.41-.62,7.77-1.88,2.36-1.25,4.17-3.52,5.42-6.81.38,1.29,1.02,2.46,1.94,3.53.91,1.06,1.99,1.98,3.25,2.75,1.26.77,2.63,1.36,4.15,1.79,1.51.42,3.05.62,4.62.62h11.13c2.83,0,5.42-.62,7.78-1.88,2.36-1.25,4.16-3.52,5.41-6.81.38,1.29,1.03,2.46,1.94,3.53.91,1.06,1.99,1.98,3.25,2.75,1.26.77,2.63,1.36,4.15,1.79,1.51.42,3.05.62,4.62.62h26.88v-69.1h-5.66Z"/>
      <path class="cls-1" d="m44.59,251.78c-18.5,0-18.5,11.48-18.5,20.3h18.5v13.94H0v-13.94h9.26c0-8.82,0-34.22,35.33-34.22v13.93Z"/>
      <rect class="cls-1" x="53.83" y="219.65" width="16.83" height="66.37"/>
      <path class="cls-1" d="m533.48,219.65v52.43h-21.26c0-2.18,0-34.22-35.34-34.22-7.95,0-13.97,1.99-18.5,5.02v-7.87h-16.84v37.07h-21.27c0-5.02,0-34.22-44.67-34.22v14.03c27.75,0,27.75,15.17,27.75,20.19H96.84v-26.84h-16.93v40.77c0,6.64,0,9.49-18.5,9.49l4.62,13.94c30.8,0,30.8-16.78,30.8-23.42h453.47v-66.37h-16.83Zm-75.1,52.43c0-2.28,0-20.3,18.5-20.3s18.49,18.11,18.49,20.3h-36.99Z"/>
      <rect class="cls-1" x="559.56" y="219.65" width="16.83" height="66.37"/>
      <path class="cls-1" d="m681.25,270.46c0,9.07-6.33,15.56-16.99,15.56h-32.79v-15.15c0-17.52,0-37.2,31.37-37.2h18.4v36.79Zm-27.45-51.22c-1.82,2.46-4.73,4.12-8.05,4.12-5.53,0-10.05-4.64-10.05-10.31s4.52-10.3,10.05-10.3c3.32,0,6.23,1.54,8.05,4.12v12.37Zm9.05,29.57c-12.97,0-13.07,4.54-13.07,22.06h13.07v-22.06Zm-4.02-41.94c1.82-2.47,4.73-4.12,8.04-4.12,5.54,0,10.06,4.53,10.06,10.3s-4.52,10.31-10.06,10.31c-3.31,0-6.22-1.65-8.04-4.12v-12.37Z"/>
      <path class="cls-1" d="m1132.54,243.97h-5.13c-4.22-6.18-11.96-10.31-26.34-10.31h-18.4v37.2h-372.97v-29.16h-18.4v44.31c0,7.22,0,10.31-20.11,10.31l5.02,15.15c33.48,0,33.48-18.24,33.48-25.46h454.2v-15.15c0-7.21,0-26.89-31.36-26.89m-31.48,26.89v-22.05c12.97,0,13.07,4.53,13.07,22.05h-13.07Zm31.37,0c0-4.53,0-9.27-.6-13.81h.71c12.97,0,13.06,6.6,13.06,13.81h-13.17Z"/>
      <path class="cls-1" d="m1192.35,286.01c0,7.22,0,25.46-33.48,25.46l-5.02-15.15c20.11,0,20.11-3.09,20.11-10.31v-44.31h18.4v44.31Zm.9-64.92c0,5.66-4.52,10.3-10.05,10.3s-10.06-4.64-10.06-10.3,4.52-10.3,10.06-10.3,10.05,4.53,10.05,10.3"/>
      <g id="Artwork_3" data-name="Artwork 3">
        <g>
          <path class="cls-1" d="m1530.45,232.29c-5.21,0-10.05,3.38-11.73,6.66l-17.38,42.81h13.47c1.12,0,2.27-.5,2.46-1.23,5.84-25.86,10.74-40.79,13.18-40.79s7.34,14.93,13.18,40.79c.2.73,1.35,1.23,2.47,1.23h13.47l-17.38-42.8c-1.68-3.28-6.52-6.66-11.73-6.66"/>
          <path class="cls-1" d="m1561.76,281.76c-.25-.15-.67-1.01-.67-1.01l-18.44-45.4c-1.77-3.47-6.84-6.97-12.21-6.97s-10.44,3.5-12.21,6.97l-18.44,45.4s-.41.87-.67,1.01h1.63l3.51-8.64,13.96-34.38c.6-1.17,1.58-2.35,2.81-3.39,2.43-2.05,5.84-3.58,9.4-3.58,4.02,0,7.89,1.97,10.31,4.42.81.82,1.46,1.69,1.9,2.56l17.48,43.03h1.63Z"/>
          <path class="cls-1" d="m1612.19,236.04c.64,0,1.17.41,1.1.89-.86,5.4-1.09,6.54-10.41,6.49,5.73.1,7.27.04,8.57,0,3.37-.1,4.19-2.94,4.63-7.27.05-.5-.45-.92-1.1-.92l-29.79-.08c-4.71,0-9.89.31-14.18,1.78,3.64-.78,7.67-.97,11.4-.97l29.79.08h0Z"/>
          <path class="cls-1" d="m1565.87,280.43l20.63.08c5.15,0,12.54-.43,18.45-2.49,6.74-2.35,10.15-6.28,10.15-11.7v-.39c.05-3.07.16-10.25-19.31-12.8l-12.19-1.7c-9.74-1.65-12.05-2.04-12.01-4.62.03-2.01.99-3.29,5.77-3.85,1.85-.22,4.18-.32,7.13-.32h.27c11.19,0,18.08.28,18.15.28,3.53,0,5.73-.1,7.16-.65,1.7-.65,2.36-1.96,2.71-5.37,0-.04-.01-.08-.05-.12-.08-.09-.27-.19-.52-.19l-29.79-.08c-4.63,0-8.51.05-13.73,1.42-4.01,2.01-6.79,5.42-6.79,11.2,0,12.22,15.08,13.33,30.88,15.54,6.62,1.27,11.03,1.23,11.12,5.12.13,4.12-6.13,3.97-9.92,4.2l-30.95.18c-1.03,0-1.76.78-1.43,1.54l1.2,2.87c.4.78.61,1.37.85,1.83h.62c.47.03,1.01.04,1.63.04"/>
          <path class="cls-1" d="m1598.63,252.39c-4.7-.68-12.18-1.77-12.18-1.77-9.61-1.69-11.59-2.1-11.56-4.24.02-1.2.3-2.23,2.52-2.91-1.42.17-2.45.39-3.22.67-.2.08-.39.15-.56.23-.13.07-.25.13-.36.2-.22.13-.4.28-.55.43-.07.08-.14.15-.19.23-.34.47-.42,1-.43,1.57,0,.52.11.93.44,1.28.11.12.26.24.43.34.25.16.55.31.92.45.5.19,1.11.37,1.87.55,1.75.41,4.29.85,7.89,1.46,0,0,.17.03.44.06,1.62.23,7.46,1.04,11.49,1.61.08,0,.17.02.25.04.18.03.36.05.54.08,20.21,2.79,19.24,10.72,19.23,13.64,0,2.57-.73,4.69-1.98,6.46-.29.41-.6.8-.94,1.17-.04.04-.06.08-.1.11-.54.57-1.14,1.08-1.79,1.57-.38.28-.78.55-1.2.8-.26.16-.52.31-.79.46-2.44,1.34-5.33,2.27-8.35,2.89-.8.17-1.61.31-2.42.44-1.22.19-2.44.34-3.64.46-.8.08-1.6.14-2.38.19-1.96.12-3.83.17-5.52.17l-20.54-.08h-.08c-.74,0-1.36-.02-1.89-.04.59.62,1.67.85,4.67.85l20.63.08c10.82,0,29.13-1.89,29.12-15.25,0-3.05,1.01-11.39-19.77-14.21"/>
          <path class="cls-1" d="m1445.93,277.43v-3.32c0-.84.45-1.66,1.28-2.3l34.81-25.53c1.6-1.25.25-3.17-2.23-3.17-.29,0-.59,0-.89-.01,1.11.67,1.41,1.89.3,2.78l-36.09,26.38c-.83.66-1.28,1.51-1.28,2.38v3.43c0,2.04,2.43,3.68,5.42,3.68l44.49-.07c2.15-.01,3.22-.29,3.88-.76l-44.27.06c-2.99,0-5.42-1.59-5.42-3.56"/>
          <path class="cls-1" d="m1498.62,240.99c.67-.63,1.03-1.38,1.03-2.16,0-.92-.51-1.76-1.34-2.4h-1.17s-48.07.01-48.07.01c-.26,0-.44.1-.52.19-.04.04-.06.08-.05.12.37,3.62,1.1,4.91,3.09,5.51,1.45.44,3.59.53,6.8.53,1.57-.06,9.98-.24,16.97-.24,1.24,0,2.44,0,3.55.02h.21c.23,0,.46,0,.68,0,1.61,0,2.96.75,3.35,1.86.28.8-.02,1.64-.79,2.24l-34.83,25.54c-.68.53-1.07,1.2-1.07,1.88v3.32c0,1.65,2.23,3.03,4.88,3.03l44.1-.06.73-.04c.24-.33.43-.7.65-1.12l.47-1.04,1.2-2.87c.33-.76-.4-1.54-1.43-1.54l-32.36.11c-2.36,0-3.72-1.83-2.32-3.13l36.24-29.77h0Z"/>
          <path class="cls-1" d="m1498.33,236.42c-.09-.07-.21-.15-.33-.23.11.07.21.15.31.23h.02,0Z"/>
          <path class="cls-1" d="m1448.98,240.92c-.04-.06-.06-.13-.09-.19-.03-.06-.06-.12-.08-.19-.42-.91-.67-2.11-.83-3.72-.08-.48.45-.9,1.1-.9h48.44c-.91-.47-2.03-.76-3.26-.76h-49.28c-.64,0-1.15.43-1.1.93.46,4.65,1.49,6.8,5.46,7.24.44.05,4.33.02,6.88,0-4.57-.08-6.36-.75-7.23-2.4"/>
          <path class="cls-1" d="m1622.55,115.49l-54.3-94.05c-5.86-10.2-17.9-20.87-35.62-21.4V0c-.45-.01-.89,0-1.33.01-.45,0-.88-.03-1.33-.01v.03c-17.72.54-29.76,11.2-35.62,21.4l-54.3,94.05c-2.26,3.82,2.26,8.53,6.16,5.93,12.9-8,39.56-24.32,85.09-24.66,45.53.34,72.19,16.67,85.09,24.66,3.91,2.6,8.43-2.11,6.16-5.93"/>
          <path class="cls-1" d="m1606.63,406.67l108.6.12c11.76.04,27.03-5.04,36.37-20.11h.02c.24-.37.43-.76.66-1.15s.46-.75.68-1.15h-.02c8.41-15.62,5.21-31.38-.68-41.57l-54.2-94.11c-2.17-3.87-8.52-2.32-8.22,2.36.46,15.17,1.23,46.42-21.28,86-23.11,39.23-50.59,54.13-63.97,61.29-4.21,2.08-2.4,8.35,2.05,8.31"/>
          <path class="cls-1" d="m1453.49,406.67l-108.6.12c-11.76.04-27.03-5.04-36.37-20.11h-.03c-.24-.37-.43-.76-.66-1.15-.23-.39-.46-.75-.68-1.15h.03c-8.41-15.62-5.21-31.38.68-41.57l54.2-94.11c2.17-3.87,8.52-2.32,8.22,2.36-.45,15.17-1.23,46.42,21.28,86,23.11,39.23,50.59,54.13,63.97,61.29,4.21,2.08,2.39,8.35-2.05,8.31"/>
        </g>
      </g>
    </g>
  </g>
</svg>